<svg xmlns="http://www.w3.org/2000/svg" width="586" height="167" fill="none" viewBox="0 0 586 167"><path fill="url(#paint0_radial_198_2)" d="M95.9652 12.4805C95.9652 13.2645 95.9652 13.6565 95.9652 14.4404V15.2244L84.207 73.6296L72.4489 14.8324C72.4489 14.0484 72.0569 13.2645 72.0569 12.4805C72.0569 5.81683 77.5441 0.721069 83.8151 0.721069C90.0861 0.721069 95.9652 5.81683 95.9652 12.4805ZM52.0681 6.60079C45.797 8.95268 43.0535 16.0083 45.4051 22.2801C45.797 23.064 46.189 23.848 46.5809 24.24L79.8957 73.6296L68.1375 15.2244V14.4404C68.1375 13.6565 67.7456 13.2645 67.7456 12.4805C65.394 6.99277 58.3391 4.2489 52.0681 6.60079ZM25.4162 24.6319C20.713 29.3357 20.713 36.7834 25.4162 41.4872C25.8082 41.8791 26.5921 42.6631 27.3759 43.0551L77.1521 76.3735L44.2293 26.5919L43.4454 26.1999C43.0535 25.8079 42.6615 25.0239 42.2696 24.6319C37.5663 19.9282 29.7276 19.9282 25.4162 24.6319ZM6.99514 52.0707C4.64351 58.3424 7.38707 65.0061 13.6581 67.7499C14.442 68.1419 15.2258 68.1419 16.0097 68.5339L74.8005 79.9014L25.4162 46.9749L24.6324 46.5829C24.2404 46.1909 23.4566 45.799 23.0646 45.799C16.4017 43.0551 9.34677 45.799 6.99514 52.0707ZM0.724121 83.8212C0.724121 90.4849 6.21126 95.5806 12.8742 95.5806C13.6581 95.5806 14.442 95.5806 15.2258 95.1886L74.0166 83.4292L15.2258 72.4537H14.442C13.6581 72.4537 13.2662 72.4537 12.4823 72.4537C5.81932 72.0617 0.724121 77.5495 0.724121 83.8212ZM167.298 84.2132C167.298 77.5495 161.811 72.4537 155.54 72.4537C154.756 72.4537 153.972 72.4537 153.188 72.8457L94.3974 84.6051L152.796 96.3646H153.58C154.364 96.3646 154.756 96.7566 155.54 96.7566C161.811 95.9726 167.298 90.0929 167.298 84.2132ZM161.027 52.0707C158.675 45.799 151.62 43.0551 145.349 45.407C144.566 45.799 143.782 46.1909 143.39 46.5829L93.6135 79.9014L152.012 68.5339H152.796C153.58 68.5339 153.972 68.1419 154.756 68.1419C160.635 65.398 163.771 58.3424 161.027 52.0707ZM142.998 25.0239C138.295 20.3201 130.848 20.3201 126.144 25.0239C125.752 25.4159 124.969 26.1999 124.577 26.9838L91.2619 76.7655L140.646 43.839L141.43 43.4471C141.822 43.0551 142.606 42.6631 142.998 42.2711C147.701 37.5673 147.701 29.7277 142.998 25.0239ZM115.954 6.99277C109.683 4.64088 103.02 7.38476 100.276 13.6565C99.8846 14.4404 99.8846 15.2244 99.4926 16.0084L88.1264 74.8056L121.049 25.4159L121.441 24.6319C121.833 24.24 122.225 23.456 122.225 23.064C124.969 16.4003 121.833 9.34466 115.954 6.99277ZM84.207 166.921C90.87 166.921 95.9652 161.434 95.9652 155.162C95.9652 154.378 95.9652 153.594 95.5732 152.81L83.8151 94.0127L72.4489 152.026V152.81C72.4489 153.594 72.4489 153.986 72.4489 154.77C72.0569 161.826 77.5441 166.921 84.207 166.921ZM115.954 160.65C122.225 158.298 124.969 151.242 122.225 144.97C121.833 144.186 121.441 143.402 121.049 143.01L87.7345 93.2287L99.4926 151.634V152.418C99.4926 153.202 99.8846 153.594 99.8846 154.378C102.628 159.866 109.683 163.393 115.954 160.65ZM142.998 142.226C147.701 137.523 147.701 130.075 142.998 125.371C142.606 124.979 141.822 124.195 141.038 123.803L91.2619 90.8768L124.577 140.267L124.969 141.05C125.361 141.442 125.752 142.226 126.144 142.618C130.848 147.322 138.295 147.322 142.998 142.226ZM161.027 115.572C163.379 109.3 160.635 102.636 154.756 99.8924C153.972 99.5004 153.188 99.5004 152.404 99.1084L93.6135 87.349L142.998 120.275L143.782 120.667C144.174 121.059 144.957 121.451 145.349 121.451C151.229 124.587 158.283 121.451 161.027 115.572ZM6.99514 115.964C9.73871 121.843 16.4017 124.979 22.6727 122.235C23.4566 121.843 24.2404 121.451 24.6324 121.059L74.4086 87.741L16.0097 99.5004H15.2258C14.442 99.5004 14.05 99.8924 13.2662 99.8924C7.38708 103.028 4.64351 109.692 6.99514 115.964ZM25.0243 142.226C29.7276 146.93 37.1744 146.93 41.8777 142.226C42.2696 141.834 43.0535 141.05 43.4454 140.267L76.3682 90.4848L26.984 123.803L26.2001 124.195C25.8082 124.587 25.0243 124.979 24.6324 125.371C20.321 130.467 20.713 138.307 25.0243 142.226ZM52.46 160.65C58.731 163.001 65.394 160.258 68.1375 153.986C68.5295 153.202 68.5295 152.418 68.9214 151.634L80.2876 92.8367L47.3648 143.01L46.9729 143.794C46.5809 144.186 46.189 144.97 46.189 145.362C43.4454 151.242 46.189 157.906 52.46 160.65Z"/><path fill="#4A4A49" d="M168.082 25.0239H183.759L220.209 80.2933L255.484 25.0239H270.77L226.089 92.8367V140.267H213.155V93.6207L168.082 25.0239Z"/><path fill="#4A4A49" d="M304.868 57.1665C315.059 57.1665 322.897 59.9104 328.776 65.0061C334.264 70.1019 337.007 77.5495 337.007 86.9571C337.007 88.917 337.007 90.8769 336.615 92.8368C336.223 94.7967 335.831 96.3647 335.439 97.1486H276.649V98.7165C276.649 103.028 277.041 107.34 278.216 111.26C279.392 115.18 280.96 119.1 283.312 122.235C285.663 125.371 288.407 127.723 291.934 129.683C295.462 131.643 299.773 132.427 304.476 132.427C307.22 132.427 309.963 132.035 312.707 131.643C315.45 130.859 317.802 130.075 320.546 129.291C322.897 128.115 325.249 127.331 327.209 126.155C329.168 124.979 331.128 123.803 332.696 122.627L334.656 132.427C333.088 133.211 331.128 134.387 329.168 135.563C326.817 136.739 324.465 137.523 321.722 138.699C318.978 139.483 316.234 140.267 313.099 141.051C309.963 141.835 306.436 141.835 302.908 141.835C296.246 141.835 290.758 140.659 285.663 138.307C280.568 135.955 276.649 132.819 273.121 128.899C269.594 124.979 267.242 120.668 265.282 115.572C263.715 110.476 262.539 104.988 262.539 99.5005C262.539 93.6208 263.323 88.525 265.282 83.0373C267.242 77.9415 269.594 73.2377 273.121 69.3179C276.649 65.3981 280.96 62.2623 286.055 59.9104C292.326 58.3425 298.205 57.1665 304.868 57.1665ZM304.476 66.966C296.637 66.966 290.758 68.926 286.447 72.8458C282.136 76.7656 279.392 81.8613 277.824 88.1331H325.641C325.641 87.7411 325.641 86.9571 325.641 86.5651C325.641 86.1731 325.641 85.3892 325.641 84.9972C325.641 82.2533 325.249 79.5095 324.073 77.1576C322.897 74.8057 321.33 72.8458 319.37 71.6698C317.41 70.1019 315.059 68.926 312.707 68.142C309.963 67.358 307.22 66.966 304.476 66.966Z"/><path fill="#4A4A49" d="M402.461 72.8458C400.501 71.6698 398.541 70.8858 396.974 70.4939C395.014 69.7099 393.446 69.7099 391.487 69.7099C389.135 69.7099 386.783 70.4939 384.824 71.6698C382.864 72.8458 380.904 74.8057 378.945 76.7656C377.377 79.1175 375.809 81.4693 374.241 84.6052C373.065 87.3491 371.89 90.4849 371.106 93.6208V140.659H358.956V59.9104H368.362L369.93 77.5495H370.714C371.498 74.8057 372.674 72.4538 373.849 69.7099C375.025 67.358 376.985 65.0061 378.553 63.4382C380.512 61.4783 382.472 59.9104 385.216 59.1264C387.567 57.9505 390.311 57.5585 393.446 57.5585C395.798 57.5585 398.15 57.9505 400.501 58.7344C402.853 59.5184 404.812 60.3023 405.596 61.4783L402.461 72.8458Z"/><path fill="#4A4A49" d="M432.64 59.9104V112.828C432.64 116.356 433.032 119.492 433.816 121.843C434.6 124.195 435.776 126.155 437.343 127.723C438.911 129.291 440.479 130.075 442.439 130.859C444.398 131.643 446.75 131.643 449.102 131.643C451.845 131.643 454.981 131.251 457.724 130.467C460.468 129.683 463.211 128.115 465.563 126.547C467.915 124.979 470.266 122.627 471.834 120.276C473.794 117.532 474.97 114.788 476.145 111.26V59.9104H488.295V140.267H478.889L477.321 125.371H476.537C474.97 130.075 471.834 134.387 466.347 137.523C461.252 140.659 454.589 142.227 446.75 142.227C442.831 142.227 439.695 141.835 436.168 140.659C433.032 139.875 429.897 138.307 427.545 135.955C425.193 133.995 423.234 130.859 421.666 127.331C420.098 123.803 419.314 119.492 419.314 114.004V59.9104H432.64Z"/><path fill="#4A4A49" d="M572.562 140.267V87.3491C572.562 80.2934 570.994 75.1977 567.859 72.4538C564.723 69.3179 560.804 67.75 555.709 67.75C552.965 67.75 549.83 68.142 547.086 69.3179C544.343 70.1019 541.599 71.6698 539.247 73.2377C536.896 75.1977 534.544 77.1576 532.976 79.9014C531.017 82.6453 529.841 85.3892 528.665 88.917V140.267H516.515V59.9104H525.921L527.489 74.8057H528.273C529.841 70.1019 532.976 65.7901 538.463 62.2623C543.559 58.7344 550.222 57.1665 558.06 57.1665C561.588 57.1665 565.115 57.5585 568.643 58.7344C571.778 59.9104 574.914 61.4783 577.265 63.4382C579.617 65.7901 581.577 68.534 583.144 72.0618C584.712 75.5896 585.496 79.9014 585.496 85.3892V139.875H572.562V140.267Z"/><defs><radialGradient id="paint0_radial_198_2" cx="0" cy="0" r="1" gradientTransform="translate(84.011 83.6252) scale(83.3195 83.3286)" gradientUnits="userSpaceOnUse"><stop stop-color="#009B3D"/><stop offset=".5" stop-color="#0065B0"/><stop offset="1" stop-color="#009C8A"/></radialGradient></defs></svg>