<svg width="399" height="171" viewBox="0 0 399 171" fill="none" xmlns="http://www.w3.org/2000/svg">
<g clip-path="url(#clip0_641_438)">
<path fill-rule="evenodd" clip-rule="evenodd" d="M166.903 93.449C166.903 96.8266 164.15 99.5647 160.754 99.5647C159.339 99.5647 158.036 99.089 156.996 98.2897C156.88 98.3879 156.765 98.4868 156.649 98.5857C156.101 99.0544 155.553 99.5234 154.944 99.9193C152.751 101.303 151.641 100.954 150.502 98.6748C150.132 97.9337 149.975 97.1645 149.89 96.3536C149.043 97.1147 149.414 98.1718 149.841 99.3905C149.924 99.6269 150.009 99.8693 150.088 100.117C150.288 100.759 150.378 101.34 150.461 101.868C150.642 103.031 150.784 103.942 151.968 104.701C155.741 107.134 160.083 107.582 164.197 105.932C169.962 103.625 173.834 97.8359 173.094 91.152C173.009 90.3552 172.596 89.9774 171.842 89.6698C170.609 89.1638 169.355 89.2422 168.105 89.3204C167.593 89.3524 167.083 89.3844 166.574 89.3762C166.349 89.3726 166.099 89.3426 165.846 89.3121C165.638 89.287 165.427 89.2616 165.225 89.2504C166.265 90.3458 166.903 91.8233 166.903 93.449Z" fill="#EBB189"/>
<path fill-rule="evenodd" clip-rule="evenodd" d="M79.3769 90.3829C78.8508 91.2843 78.5496 92.3317 78.5496 93.449C78.5496 96.0094 80.1314 98.2023 82.3759 99.1136C82.3626 99.1325 82.3493 99.1515 82.336 99.1704C81.7219 100.044 81.1081 100.917 80.4401 101.638C78.0446 104.174 73.871 100.969 72.6268 96.7944C72.2224 95.4371 72.0511 94.0283 71.9578 92.5433C72.6268 90.1355 74.4467 87.6258 77.3865 85.1672C77.3678 86.8682 78.2773 88.6236 79.3769 90.3829Z" fill="#FEFEFE"/>
<path fill-rule="evenodd" clip-rule="evenodd" d="M89.3495 97.4482C88.2221 98.7445 86.5563 99.5647 84.6978 99.5647C83.1662 99.5647 81.7654 99.0076 80.689 98.086C80.8188 98.551 80.8131 99.1939 80.3194 100.133C77.8664 101.603 77.3491 101.396 75.1339 99.5647C73.4779 97.7721 72.0451 95.9406 73.0844 90.2778C69.8964 98.2056 74.4985 105.056 79.9436 106.617C85.228 108.124 89.949 107.577 93.9859 103.628C95.9037 101.747 96.4343 100.18 94.7173 98.2056C94.3957 97.8386 94.0529 97.4373 93.7014 97.0259C93.0564 96.2708 92.3823 95.4816 91.757 94.808C90.9312 95.9049 90.1296 96.7772 89.3495 97.4482Z" fill="#EBB189"/>
<path fill-rule="evenodd" clip-rule="evenodd" d="M154.728 92.2335C154.648 92.6264 154.606 93.0328 154.606 93.449C154.606 95.5939 155.716 97.4808 157.396 98.5725C157.349 98.6119 157.302 98.6513 157.255 98.6907C156.64 99.2048 156.026 99.7185 155.358 100.143C152.963 101.634 151.749 101.258 150.505 98.8022C150.101 98.0035 149.929 97.175 149.836 96.3011C150.463 94.9733 152.102 93.5926 154.728 92.2335Z" fill="#FEFEFE"/>
<path fill-rule="evenodd" clip-rule="evenodd" d="M80.0796 89.4116C79.1272 90.4887 78.5496 91.9018 78.5496 93.449C78.5496 93.5819 78.5538 93.7138 78.5622 93.8446C78.3552 93.3993 78.2535 92.9093 78.2035 92.3856C78.1285 91.6792 77.9873 90.9789 77.8457 90.2766C77.774 89.921 77.7022 89.5649 77.6388 89.2073C78.3179 89.0666 78.9503 89.1922 79.5811 89.3176C79.7471 89.3506 79.913 89.3835 80.0796 89.4116Z" fill="#EBB189"/>
<path fill-rule="evenodd" clip-rule="evenodd" d="M137.527 106.273C138.801 103.152 140.116 100.123 141.819 97.2814C145.494 91.158 150.47 86.5689 157.511 84.6078C162.031 83.3403 166.631 83.4472 171.271 83.9138C180.7 84.8746 189.431 88.0761 197.961 91.9186C198.125 91.9938 198.312 92.0627 198.504 92.1329C199.159 92.3734 199.869 92.633 199.879 93.2527C199.879 93.8652 199.181 94.2186 198.538 94.5443C198.369 94.6299 198.203 94.7142 198.055 94.8003C197.75 94.9815 197.447 95.1667 197.143 95.3525C196.016 96.0411 194.887 96.7315 193.682 97.2148C191.966 97.9084 191.094 99.0826 190.839 100.804C190.249 104.819 188.077 108.141 185.864 111.369C180.27 119.507 172.626 124.764 162.782 126.511C156.518 127.632 150.336 127.165 144.421 124.644L144.303 124.593C143.099 124.078 142.499 123.821 142.126 124.009C141.755 124.197 141.609 124.827 141.319 126.083L141.269 126.298C139.995 131.794 137.675 136.73 133.396 140.626C129.681 144.001 125.993 147.39 122.372 150.845C121.433 151.752 120.802 151.579 119.998 150.845C119.334 150.235 118.663 149.629 117.992 149.023L117.991 149.022C117.049 148.172 116.107 147.32 115.183 146.456C114.541 145.847 113.893 145.243 113.246 144.64C111.254 142.784 109.263 140.928 107.431 138.905C103.756 134.849 101.878 130.087 101.463 124.71C101.396 123.83 101.154 123.67 100.336 124.03C97.9085 125.084 95.4137 125.938 92.7854 126.418C83.9063 128.032 75.618 126.658 67.9732 121.762C59.6311 116.412 54.3604 108.821 51.5573 99.4559C51.3022 98.5888 50.8327 98.0819 50.0416 97.6552C49.5297 97.3761 49.0141 97.1011 48.4972 96.8261L48.4959 96.8252L48.4945 96.8243C46.4678 95.7443 44.4188 94.6526 42.4639 93.2392C44.127 92.1986 45.7095 91.385 47.3591 90.7444C53.6764 88.2632 60.0332 85.8885 66.7126 84.5675C72.3722 83.4603 78.086 82.967 83.7857 84.2477C92.0476 86.1019 97.8416 91.1449 101.744 98.4557C101.891 98.7288 102.038 99.002 102.186 99.2752C103.364 101.455 104.548 103.646 105.191 106.1C105.597 104.721 105.557 103.343 105.519 101.98C105.511 101.721 105.504 101.461 105.5 101.204C105.312 91.9317 101.798 84.4076 93.6839 79.3913C90.0091 77.1235 85.9316 76.0295 81.6533 75.7228C74.0486 75.1624 66.6588 76.5631 59.2822 78.1106C58.3122 78.3154 57.3471 78.5478 56.3821 78.7797C54.2657 79.2889 52.1484 79.7986 49.9746 80.0183C47.386 80.272 45.6426 78.898 45.4547 76.3099C45.3441 74.819 45.3692 73.3213 45.3943 71.8214C45.4028 71.3208 45.4111 70.8202 45.4145 70.3196C45.5615 68.5465 45.7059 66.8165 45.8475 65.1172C46.7092 54.7789 47.4748 45.5935 48.1775 34.9664C48.1775 33.9258 45.0926 30.8325 44.2208 30.4723C42.3186 29.6692 40.4269 29.1954 38.5297 28.7204C36.7081 28.2642 34.8814 27.8068 33.0354 27.0553C31.9356 26.615 31.5869 26.2415 32.1368 25.0675L32.2233 24.8793C32.7222 23.794 32.9748 23.2444 33.3814 23.086C33.7985 22.9235 34.3778 23.1727 35.5513 23.6777L35.5568 23.6801C35.8635 23.8115 36.1703 23.9469 36.4775 24.0824C37.1373 24.3737 37.7991 24.6659 38.4672 24.9208C38.5916 24.9689 38.7276 25.0471 38.8671 25.1274C39.2691 25.3587 39.7005 25.6069 39.9693 25.2009C40.2867 24.7273 39.8705 24.4289 39.4803 24.149C39.3429 24.0505 39.2087 23.9542 39.1109 23.8535C38.0514 22.7062 36.965 21.5856 35.7982 20.545C35.0471 19.8913 35.1678 19.5044 35.8116 18.864L35.8894 18.7861C37.8516 16.8208 37.9157 16.7566 39.8486 18.8373C40.8076 19.8598 41.6918 20.8154 42.5326 21.7241C46.2775 25.7715 49.1621 28.889 53.9701 32.8438C57.9738 36.139 62.7253 39.7147 67.4763 43.2904C72.2278 46.866 76.9793 50.4417 80.983 53.7369C82.7486 55.1875 84.5207 56.6317 86.2928 58.0764C92.3281 62.9957 98.3662 67.9177 104.172 73.0944C110.878 79.0579 115.035 86.6355 115.88 95.6805C116.658 104.059 116.632 112.424 114.754 120.695C113.935 124.31 112.662 127.792 110.838 131.328H113.305C115.18 131.328 117.054 131.326 118.928 131.324H118.952C122.715 131.322 126.476 131.318 130.231 131.328C131.13 131.328 131.666 131.301 131.103 130.167C127.482 122.869 126.731 114.985 126.516 107.007C126.355 100.99 126.596 95.0268 128.327 89.1969C130.231 82.7667 132.056 79.2337 137.072 74.9644C145.412 67.8484 155.502 59.4998 164.242 52.2673C165.088 51.5674 165.921 50.8784 166.738 50.2016C169.613 47.8246 172.483 45.4408 175.352 43.0574L175.355 43.0555C181.439 38.0014 187.523 32.948 193.656 27.9625C196.735 25.4667 199.511 22.6695 202.29 19.8698C203.432 18.7187 204.575 17.5672 205.74 16.436C206.518 15.6755 206.92 15.6488 207.685 16.436L207.802 16.5576C208.694 17.4814 209.141 17.9444 209.136 18.4034C209.132 18.8645 208.673 19.3217 207.752 20.2381C206.598 21.3855 205.434 22.5223 204.138 23.7882L203.634 24.2804C204.718 24.2804 205.534 23.8854 206.31 23.5093C206.658 23.3411 206.997 23.1767 207.349 23.0531C207.734 22.9196 208.106 22.7506 208.479 22.5816C208.665 22.4972 208.851 22.4127 209.039 22.3326L209.063 22.3222C210.217 21.823 210.792 21.5741 211.207 21.7348C211.619 21.8947 211.874 22.4599 212.38 23.5873L212.446 23.7334C212.955 24.8674 212.674 25.2676 211.561 25.7212C209.049 26.7442 206.561 27.8143 204.075 28.884C202.379 29.6137 200.683 30.3434 198.98 31.0576C197.921 31.4978 197.518 32.0715 197.518 33.2721C197.559 47.0499 197.545 60.8276 197.532 74.6188V74.6287C197.532 74.79 197.534 74.9522 197.536 75.1148C197.553 76.3398 197.57 77.5901 196.646 78.5908C195.091 80.2851 193.079 80.3118 191.067 79.8316C185.34 78.4576 179.573 77.1901 173.766 76.2963C166.323 75.1493 158.852 74.9758 151.757 78.1374C145.266 81.019 140.988 85.9551 138.748 92.6656C137.272 97.0812 137.138 101.644 137.527 106.273ZM80.5 90.203C80.2258 90.1772 79.7961 90.2479 79.5083 90.203C79.0501 90.1319 78.5765 90.0581 78.0942 90.0513C77.8104 90.0472 77.5395 90.0408 77.2735 90.0345C76.6591 90.0196 76.0721 90.0055 75.4167 90.0241L75.2259 90.03C74.1146 90.063 73.6674 90.0766 73.4174 90.3041C73.2493 90.4576 73.1705 90.7077 73.0389 91.1263C72.9455 91.4221 72.8258 91.8022 72.629 92.2919C71.2345 96.8012 74.545 104.699 79.9769 106.247C85.2745 107.754 89.9822 107.207 94.0191 103.258C95.937 101.377 95.9907 100.27 94.2737 98.2953C93.6279 97.5587 92.9553 96.842 92.2748 96.1167L92.273 96.1149L92.2726 96.114L92.2667 96.1081C91.9888 95.8118 91.7097 95.5147 91.4305 95.2139C89.5 93.0165 87 91.5165 85 91.0165C83.9153 90.7453 81.9179 90.203 80.5 90.203ZM145.252 102.965C143.987 104.794 143.297 106.753 142.613 108.695C142.449 109.161 142.285 109.627 142.114 110.089C142.06 110.235 142.002 110.387 141.942 110.542C141.625 111.361 141.274 112.269 141.51 112.93C141.719 113.537 142.392 113.586 143.092 113.638C143.47 113.666 143.855 113.694 144.18 113.811C147.747 115.091 151.368 116.052 155.204 116.199C161.709 116.452 167.503 114.892 172.425 110.436C177.079 106.22 179.546 100.897 180.955 94.947C181.143 94.1733 180.834 93.8127 180.163 93.5594C179.746 93.4013 179.326 93.2469 178.906 93.0919L178.905 93.0915L178.903 93.091L178.902 93.0906C177.728 92.6588 176.55 92.2253 175.416 91.7052C174.007 91.0515 173.887 91.6115 173.927 92.8391C174.061 96.6413 173.256 100.15 170.963 103.325C165.839 110.382 156.049 112.09 149.075 107.02C148.155 106.342 147.436 105.479 146.707 104.603C146.245 104.048 145.778 103.487 145.252 102.965ZM88.1314 116.146C90.5205 116.354 93.0277 115.631 95.6232 114.883C96.8446 114.531 98.0861 114.173 99.3436 113.904C101.812 113.371 101.744 113.171 100.819 110.782C100.45 109.843 100.099 108.896 99.7466 107.95L99.7462 107.948C99.3941 107.001 99.0416 106.053 98.6732 105.113C97.9085 103.178 97.7341 103.165 96.3796 104.766C90.6125 111.583 79.2528 111.609 73.2976 104.926C70.146 101.377 68.5634 97.3616 68.8317 92.6258C68.833 92.5959 68.8344 92.5655 68.8358 92.5356C68.864 91.9761 68.8922 91.4112 68.0269 91.6518C66.0822 92.2122 64.1376 92.7988 62.2197 93.4258C61.8039 93.5594 61.6965 93.8131 61.8039 94.4265C62.6087 98.6292 64.0838 102.484 66.6319 105.98C71.7956 113.104 78.6489 116.626 88.1314 116.146ZM166.752 65.0501C168.704 65.1851 170.439 65.2979 172.147 65.4085L172.586 65.437C176.125 65.6694 179.583 66.3775 183.04 67.0851C183.552 67.1897 184.064 67.2948 184.576 67.3981C184.723 67.428 184.86 67.457 184.988 67.4837C185.784 67.6509 186.2 67.7383 186.417 67.5707C186.655 67.3873 186.655 66.8994 186.655 65.8778V65.837C186.655 60.5675 186.641 55.298 186.628 50.0281C186.628 49.9565 186.638 49.8795 186.649 49.8016C186.683 49.5465 186.718 49.2806 186.4 49.1479C186.097 49.0251 185.869 49.2194 185.654 49.4034C185.612 49.4396 185.57 49.4754 185.528 49.508L185.527 49.5085C183.583 51.0827 181.639 52.6565 179.708 54.2439C175.469 57.7792 171.231 61.3146 166.752 65.0501ZM151.299 95.2931C151.195 95.3878 151.087 95.4857 150.975 95.5867L150.938 95.6198C150.888 95.6646 150.838 95.709 150.788 95.7525L150.786 95.7552C149.904 96.538 149.184 97.1781 149.608 98.5313C150.212 100.492 151.174 103.14 152.796 104.194C156.337 106.502 160.258 107.132 164.134 105.558C169.579 103.343 173.214 97.8332 172.516 91.4565C172.436 90.6959 172.047 90.3358 171.336 90.0422C170.173 89.5683 168.99 89.6399 167.81 89.7115C167.33 89.741 166.851 89.7699 166.374 89.7622C166.161 89.7586 165.927 89.7301 165.688 89.7011C163.5 89.5165 158 90.5165 155.336 92.5637C154.582 93.1429 152.298 94.3866 151.299 95.2931ZM72.9223 59.8531C74.7513 61.3775 76.6045 62.9223 78.5009 64.4979C76.3818 64.6315 74.5172 64.7647 72.6532 64.8979C69.1559 65.1163 65.7384 65.8185 62.3231 66.5202C61.7698 66.6339 61.2164 66.7476 60.6631 66.859C59.5928 67.0774 59.0736 67.226 58.8218 67.0316C58.5809 66.8464 58.5841 66.3476 58.5841 65.2984C58.5841 60.0307 58.5977 54.763 58.6109 49.4958V49.4894C58.6109 49.4151 58.6018 49.3372 58.5923 49.2593C58.5613 49.0015 58.5299 48.742 58.8391 48.6088C59.1465 48.4779 59.3642 48.669 59.5733 48.8525C59.6193 48.8928 59.6648 48.9331 59.7108 48.9694C60.1148 49.296 60.5187 49.6226 60.9227 49.9488C62.4629 51.1937 64.0014 52.4368 65.5316 53.7052C67.9832 55.7361 70.4307 57.776 72.9223 59.8531Z" fill="#E07E3C"/>
</g>
<path d="M257.389 98.5493C257.389 102.041 256.342 104.784 254.246 106.777C252.151 108.753 249.076 109.741 245.022 109.741C240.968 109.741 237.885 108.753 235.772 106.777C233.677 104.784 232.629 102.041 232.629 98.5493V80.8929L232.936 80.5863H235.747C237.229 80.5863 238.361 80.961 239.145 81.7106C239.946 82.4601 240.346 83.7206 240.346 85.4922V98.4982C240.346 100.116 240.695 101.386 241.394 102.305C242.109 103.225 243.319 103.685 245.022 103.685C246.76 103.685 247.969 103.225 248.65 102.305C249.332 101.386 249.672 100.116 249.672 98.4982V80.8673C250.32 80.7481 250.984 80.6714 251.666 80.6374C252.347 80.6033 252.935 80.5863 253.429 80.5863C253.906 80.5863 254.527 80.6118 255.294 80.6629C256.077 80.697 256.776 80.7822 257.389 80.9184V98.5493ZM286.227 102.408C286.227 104.895 285.827 106.641 285.026 107.646C284.226 108.634 282.863 109.128 280.938 109.128H269.133C267.753 109.128 266.655 108.727 265.837 107.927C265.019 107.109 264.61 105.985 264.61 104.554V74.1216L264.968 73.7639H267.83C269.346 73.7639 270.487 74.1557 271.254 74.9393C272.037 75.7229 272.429 76.9834 272.429 78.721V102.586C274.082 102.467 275.666 102.408 277.182 102.408H286.227ZM303.294 80.9184C303.874 80.7822 304.453 80.697 305.032 80.6629C305.628 80.6118 306.173 80.5863 306.667 80.5863C307.332 80.5863 307.97 80.6289 308.584 80.714C309.214 80.7822 309.768 80.8929 310.244 81.0462L310.577 81.4295L301.889 101.002V109C301.276 109.119 300.637 109.196 299.973 109.23C299.308 109.264 298.721 109.281 298.21 109.281C297.75 109.281 297.145 109.264 296.395 109.23C295.646 109.196 294.964 109.119 294.351 109V100.798L285.715 81.5572C286.43 81.2166 287.205 80.944 288.04 80.7396C288.875 80.5352 289.633 80.433 290.314 80.433C291.37 80.433 292.23 80.6544 292.895 81.0973C293.559 81.5232 294.096 82.2727 294.504 83.3459L296.446 88.3029C296.889 89.4954 297.247 90.5089 297.52 91.3436C297.792 92.1613 298.031 93.0812 298.235 94.1032H298.542C299.189 91.7525 299.896 89.5805 300.663 87.5875L303.294 80.9184ZM324.495 95.7386C324.308 95.3638 324.027 94.7505 323.652 93.8988C323.277 93.0301 322.903 92.1613 322.528 91.2925C322.153 90.4238 321.88 89.7935 321.71 89.4017L321.506 89.4783C321.574 90.79 321.642 92.2039 321.71 93.72C321.778 95.236 321.829 96.6329 321.863 97.9105C321.915 99.171 321.94 100.091 321.94 100.67V109C321.31 109.119 320.697 109.196 320.1 109.23C319.504 109.264 318.959 109.281 318.465 109.281C317.988 109.281 317.417 109.264 316.753 109.23C316.089 109.196 315.45 109.119 314.837 109V81.0462C315.45 80.9099 316.199 80.7992 317.085 80.714C317.971 80.6289 318.669 80.5863 319.18 80.5863C319.691 80.5863 320.398 80.6033 321.301 80.6374C322.221 80.6544 322.988 80.7311 323.601 80.8673L330.014 94.1032C330.168 94.3588 330.381 94.7931 330.653 95.4064C330.926 96.0196 331.224 96.6925 331.548 97.425C331.871 98.1575 332.169 98.8474 332.442 99.4947C332.731 100.125 332.944 100.593 333.081 100.9L333.311 100.849C333.243 99.7417 333.149 98.4641 333.03 97.0162C332.927 95.5512 332.834 94.1373 332.749 92.7745C332.68 91.3947 332.646 90.2875 332.646 89.4528V84.7768C332.646 83.0563 333.013 81.9235 333.745 81.3784C334.478 80.8162 335.585 80.5352 337.067 80.5352H339.622L339.903 80.8929V108.872C339.273 109.009 338.515 109.111 337.629 109.179C336.743 109.247 336.053 109.281 335.559 109.281C335.065 109.281 334.333 109.264 333.362 109.23C332.391 109.213 331.607 109.136 331.011 109L324.495 95.7386ZM347.425 80.8673C348.039 80.7481 348.728 80.6714 349.495 80.6374C350.279 80.6033 350.9 80.5863 351.36 80.5863C351.871 80.5863 352.468 80.6033 353.149 80.6374C353.83 80.6714 354.495 80.7481 355.142 80.8673V91.4714H355.73C356.411 91.4714 356.854 91.3862 357.058 91.2159C357.28 91.0285 357.552 90.6537 357.876 90.0916L361.913 83.0904C362.373 82.2557 362.867 81.6254 363.395 81.1995C363.94 80.7737 364.809 80.5607 366.002 80.5607C366.274 80.5607 366.691 80.5778 367.254 80.6118C367.833 80.6289 368.429 80.6629 369.042 80.714C369.672 80.7651 370.201 80.8162 370.626 80.8673L371.061 81.3528L365.695 90.3216C364.86 91.7695 363.94 92.8853 362.935 93.6689C364.247 94.0095 365.226 94.5802 365.874 95.3808C366.521 96.1644 367.092 97.1354 367.586 98.2937L369.477 102.919C369.988 104.145 370.422 105.048 370.78 105.627C371.137 106.206 371.563 106.7 372.057 107.109C371.546 107.774 370.822 108.327 369.885 108.77C368.949 109.196 367.986 109.4 366.998 109.383C365.686 109.366 364.724 109.051 364.111 108.438C363.514 107.825 362.986 106.973 362.526 105.883L360.303 100.389C359.895 99.401 359.452 98.7026 358.975 98.2937C358.515 97.8679 357.859 97.6379 357.007 97.6038C356.786 97.5868 356.513 97.5868 356.19 97.6038C355.866 97.6209 355.517 97.6379 355.142 97.6549V109C354.495 109.119 353.83 109.196 353.149 109.23C352.468 109.264 351.871 109.281 351.36 109.281C350.9 109.281 350.279 109.264 349.495 109.23C348.728 109.196 348.039 109.119 347.425 109V80.8673ZM373.936 106.854C373.936 106.223 374.055 105.533 374.294 104.784C374.549 104.034 374.89 103.336 375.316 102.689C375.742 102.024 376.21 101.53 376.721 101.207C377.965 101.888 379.353 102.476 380.886 102.97C382.436 103.464 383.97 103.711 385.486 103.711C386.508 103.711 387.351 103.498 388.015 103.072C388.697 102.646 389.037 102.041 389.037 101.258C389.037 100.747 388.841 100.287 388.45 99.878C388.058 99.4521 387.385 99.0688 386.431 98.7281L382.138 97.0673C380.81 96.5733 379.583 95.977 378.459 95.2786C377.352 94.5632 376.449 93.6944 375.75 92.6723C375.069 91.6502 374.728 90.4323 374.728 89.0184C374.728 86.4121 375.733 84.2828 377.743 82.6304C379.754 80.9781 382.479 80.1434 385.92 80.1263C387.845 80.1263 389.761 80.3563 391.669 80.8162C393.577 81.2591 395.178 81.7702 396.473 82.3494C396.473 83.4396 396.243 84.5298 395.783 85.62C395.323 86.6932 394.701 87.5279 393.918 88.1241C392.657 87.5619 391.286 87.0935 389.804 86.7187C388.339 86.344 387.01 86.1651 385.818 86.1821C384.864 86.1821 384.123 86.3866 383.595 86.7954C383.084 87.2042 382.828 87.6982 382.828 88.2774C382.828 88.8225 383.067 89.2399 383.544 89.5294C384.038 89.802 384.659 90.0745 385.409 90.3471L389.676 91.9824C391.993 92.8171 393.841 93.9755 395.221 95.4575C396.601 96.9225 397.291 98.7281 397.291 100.874C397.291 102.765 396.78 104.375 395.758 105.704C394.752 107.015 393.373 108.021 391.618 108.719C389.864 109.4 387.871 109.741 385.639 109.741C382.999 109.741 380.656 109.434 378.612 108.821C376.585 108.208 375.026 107.552 373.936 106.854Z" fill="#E07E3C"/>
<defs>
<clipPath id="clip0_641_438">
<rect width="244.565" height="170.335" fill="white"/>
</clipPath>
</defs>
</svg>
