<svg xmlns="http://www.w3.org/2000/svg" fill="none" viewBox="31.521 14.35 367.878 137.119" style="max-height:500px" width="367.878" height="137.119"><g clip-path="url(#clip0_600_463)"><path fill="#fff" d="M160.754 99.5646C164.15 99.5646 166.903 96.8265 166.903 93.4489C166.903 90.0712 164.15 87.3331 160.754 87.3331C157.359 87.3331 154.606 90.0712 154.606 93.4489C154.606 96.8265 157.359 99.5646 160.754 99.5646Z"/><path fill="#fff" d="M84.6978 99.5646C88.0935 99.5646 90.8461 96.8265 90.8461 93.4489C90.8461 90.0712 88.0935 87.3331 84.6978 87.3331C81.3022 87.3331 78.5496 90.0712 78.5496 93.4489C78.5496 96.8265 81.3022 99.5646 84.6978 99.5646Z"/><path fill="#FEFEFE" d="M83.1158 96.5616C82.229 97.7653 81.3892 99.0972 80.4401 100.121C78.0446 102.657 73.871 99.4523 72.6268 95.2778C72.2224 93.9205 72.0511 92.5117 71.9578 91.0267C72.6268 88.6189 74.4467 86.1092 77.3865 83.6506C77.34 87.8764 83.0224 92.4383 83.1158 96.5616Z"/><path fill="#E07E3C" d="M157.392 96.4448C160.04 98.4304 161.364 98.3746 163.727 96.2912C164.738 95.3965 158.783 95.3122 160.221 94.837C161.147 94.5294 161.728 94.3482 161.913 93.4254C161.984 93.048 160.691 90.8699 160.463 91.0516C159.238 92.0723 165.748 90.8237 165.379 90.0966C165.35 90.0409 165.307 89.9988 165.293 89.9431C165.108 89.1462 163.556 88.9224 164.055 88.1251C164.482 87.4401 165.706 87.8456 166.574 87.8596C168.325 87.8877 170.105 87.4401 171.842 88.1532C172.596 88.4608 173.009 88.8386 173.094 89.6355C173.834 96.3193 169.962 102.108 164.197 104.415C160.083 106.065 155.741 105.617 151.968 103.185C150.246 102.08 150.728 100.656 150.088 98.6002C149.603 97.0763 148.879 95.7458 149.89 94.837C149.975 95.6479 150.132 96.4171 150.502 97.1583C151.641 99.4374 152.751 99.7867 154.944 98.4027C155.826 97.8292 156.581 97.1021 157.392 96.4448Z"/><path fill="#E07E3C" d="M80.3194 95.33C83.7123 98.6121 87.3981 99.0814 91.757 93.2914C92.723 94.332 93.8055 95.6485 94.7173 96.689C96.4343 98.6637 95.9037 100.231 93.9859 102.112C89.949 106.061 85.228 106.607 79.9436 105.1C74.4985 103.539 69.8964 96.689 73.0844 88.7612C72.0451 94.4239 73.4779 96.2555 75.1339 98.0481C77.3491 99.8796 77.8664 100.087 80.3194 98.6166C81.5099 96.3515 79.863 95.8102 80.3194 95.33Z"/><path fill="#FEFEFE" d="M158.034 96.5322C157.147 97.2403 156.307 98.0235 155.358 98.6261C152.962 100.118 151.749 99.7409 150.505 97.2856C150.101 96.4869 149.929 95.6583 149.836 94.7845C150.505 93.3683 152.325 91.892 155.265 90.4459C155.218 92.9316 157.94 94.1068 158.034 96.5322Z"/><path fill="#E07E3C" d="M82.5701 95.3299C81.9302 94.9072 81.3841 94.3885 80.65 94.1022C78.8246 93.3928 78.335 92.2471 78.2034 90.869C78.0905 89.8049 77.8272 88.7548 77.6387 87.6907C78.6925 87.4723 79.6339 87.8954 80.6313 87.9634C82.3442 88.0862 82.9462 88.8228 82.5136 89.9825C81.8359 91.7832 81.8924 93.5563 82.5701 95.3299Z"/><path fill="#4A1E00" fill-rule="evenodd" d="M137.527 104.757C138.802 101.635 140.116 98.6066 141.819 95.7648C145.494 89.6414 150.47 85.0523 157.511 83.0912C162.031 81.8237 166.631 81.9306 171.271 82.3972C180.7 83.358 189.431 86.5595 197.961 90.402C198.125 90.4772 198.312 90.5461 198.504 90.6163C199.16 90.8568 199.869 91.1164 199.879 91.7361C199.879 92.3486 199.181 92.702 198.538 93.0277L198.537 93.0281C198.368 93.1138 198.203 93.1976 198.055 93.2837C197.75 93.4649 197.447 93.6501 197.143 93.8359C196.017 94.5245 194.887 95.2149 193.683 95.6982C191.966 96.3918 191.094 97.566 190.839 99.287C190.249 103.303 188.077 106.625 185.864 109.853C180.271 117.991 172.626 123.247 162.782 124.995C156.518 126.115 150.336 125.649 144.421 123.127L144.303 123.076C143.099 122.561 142.499 122.304 142.126 122.493C141.755 122.68 141.609 123.31 141.319 124.566V124.567L141.269 124.781C139.995 130.278 137.675 135.214 133.397 139.11C129.681 142.485 125.993 145.873 122.372 149.328C121.433 150.236 120.803 150.062 119.998 149.328C119.334 148.718 118.663 148.112 117.992 147.506L117.992 147.506L117.991 147.505L117.991 147.505C117.049 146.655 116.107 145.804 115.183 144.939C114.541 144.33 113.893 143.727 113.246 143.123C111.255 141.268 109.263 139.412 107.431 137.389C103.756 133.333 101.879 128.57 101.463 123.194C101.396 122.313 101.154 122.153 100.336 122.513C97.9086 123.567 95.4138 124.421 92.7855 124.902C83.9065 126.516 75.6181 125.142 67.9733 120.245C59.6312 114.896 54.3605 107.305 51.5574 97.9393C51.3023 97.0722 50.8328 96.5653 50.0417 96.1386C49.5298 95.8595 49.0143 95.5845 48.4973 95.3095L48.496 95.3086L48.4946 95.3077C46.468 94.2277 44.4189 93.136 42.464 91.7225C44.1271 90.682 45.7097 89.8684 47.3592 89.2278C53.6765 86.7466 60.0334 84.3719 66.7127 83.0509C72.3723 81.9437 78.0861 81.4504 83.7858 82.7311C92.0477 84.5853 97.8417 89.6283 101.744 96.939C101.891 97.2122 102.038 97.4854 102.186 97.7586C103.364 99.9385 104.548 102.129 105.191 104.583C105.597 103.205 105.558 101.826 105.519 100.463V100.463C105.512 100.203 105.504 99.9448 105.5 99.6871C105.312 90.4151 101.798 82.891 93.6841 77.8747C90.0092 75.6069 85.9318 74.5129 81.6535 74.2062C74.0487 73.6458 66.6589 75.0465 59.2824 76.594C58.3123 76.7988 57.3472 77.0312 56.3822 77.2631C54.2658 77.7723 52.1485 78.282 49.9748 78.5017C47.3861 78.7554 45.6427 77.3814 45.4549 74.7933C45.3442 73.3024 45.3693 71.8047 45.3945 70.3048C45.4029 69.8042 45.4113 69.3036 45.4146 68.803C45.5617 67.0299 45.706 65.2999 45.8477 63.6006C46.7093 53.2623 47.4749 44.0769 48.1776 33.4498C48.1776 32.4092 45.0927 29.3159 44.221 28.9557C42.3188 28.1525 40.4271 27.6788 38.5298 27.2037C36.7082 26.7476 34.8815 26.2902 33.0355 25.5387C31.9357 25.0984 31.587 24.7249 32.1369 23.5509L32.2235 23.3627C32.7223 22.2774 32.9749 21.7278 33.3815 21.5694C33.7987 21.4069 34.3779 21.6561 35.5515 22.1611L35.5569 22.1635C35.8637 22.2949 36.1704 22.4303 36.4776 22.5658C37.1375 22.8571 37.7992 23.1493 38.4673 23.4042C38.5917 23.4523 38.7277 23.5305 38.8673 23.6108C39.2692 23.8421 39.7006 24.0903 39.9694 23.6843C40.2868 23.2107 39.8707 22.9123 39.4805 22.6324C39.343 22.5339 39.2088 22.4376 39.1111 22.3369C38.0515 21.1896 36.9652 20.0689 35.7983 19.0284C35.0473 18.3747 35.1679 17.9878 35.8117 17.3474L35.8895 17.2695C37.8517 15.3042 37.9158 15.24 39.8487 17.3207C40.8078 18.3432 41.6919 19.2988 42.5327 20.2075C46.2776 24.2549 49.1623 27.3724 53.9702 31.3272C57.9739 34.6224 62.7254 38.1981 67.4764 41.7738C72.2279 45.3494 76.9794 48.9251 80.9831 52.2203C82.7488 53.6709 84.5208 55.1151 86.2929 56.5598C92.3283 61.4791 98.3663 66.4011 104.172 71.5778C110.878 77.5413 115.035 85.1189 115.88 94.1639C116.658 102.542 116.632 110.907 114.754 119.178C113.936 122.794 112.662 126.276 110.838 129.811H113.305C115.18 129.811 117.054 129.809 118.928 129.808H118.953C122.715 129.805 126.476 129.802 130.231 129.811C131.13 129.811 131.666 129.784 131.103 128.65C127.482 121.353 126.731 113.468 126.516 105.49C126.355 99.4737 126.597 93.5102 128.327 87.6803C130.231 81.2501 132.056 77.7171 137.072 73.4478C145.413 66.3318 155.502 57.9832 164.242 50.7507C165.088 50.0508 165.921 49.3618 166.738 48.685C169.614 46.308 172.483 43.9242 175.352 41.5408L175.355 41.5389C181.439 36.4848 187.523 31.4314 193.656 26.4459C196.735 23.9501 199.512 21.1529 202.29 18.3532C203.432 17.2021 204.575 16.0505 205.74 14.9194C206.518 14.1589 206.92 14.1322 207.685 14.9194L207.802 15.041C208.694 15.9648 209.141 16.4278 209.137 16.8868C209.133 17.3479 208.673 17.8051 207.752 18.7215C206.598 19.8689 205.434 21.0057 204.138 22.2716L203.634 22.7638C204.718 22.7638 205.534 22.3688 206.31 21.9927C206.658 21.8245 206.997 21.6601 207.35 21.5365C207.734 21.403 208.106 21.234 208.479 21.065C208.665 20.9806 208.852 20.8961 209.039 20.816L209.063 20.8056C210.217 20.3064 210.792 20.0575 211.207 20.2182C211.62 20.3781 211.874 20.9433 212.38 22.0707L212.446 22.2168C212.955 23.3508 212.674 23.751 211.561 24.2046C209.049 25.2276 206.562 26.2977 204.075 27.3674L204.075 27.3675C202.378 28.0972 200.683 28.8268 198.981 29.541C197.921 29.9812 197.519 30.5549 197.519 31.7555C197.559 45.5333 197.545 59.311 197.532 73.1022V73.1121C197.532 73.2734 197.534 73.4356 197.536 73.5982C197.553 74.8232 197.57 76.0735 196.646 77.0742C195.091 78.7685 193.079 78.7952 191.067 78.315C185.34 76.941 179.573 75.6735 173.766 74.7797C166.323 73.6327 158.852 73.4591 151.757 76.6208C145.266 79.5024 140.988 84.4385 138.748 91.149C137.272 95.5646 137.138 100.127 137.527 104.757ZM81.7341 96.0049C81.2377 94.2708 81.2108 92.5366 81.6935 90.7753C82.0023 89.655 81.5729 88.9211 80.3523 88.801C80.0781 88.7752 79.7962 88.7313 79.5084 88.6864C79.0502 88.6153 78.5766 88.5415 78.0943 88.5347C77.8106 88.5306 77.5396 88.5242 77.2736 88.5179C76.6592 88.503 76.0722 88.4889 75.4168 88.5075L75.226 88.5134C74.1148 88.5464 73.6675 88.56 73.4175 88.7875C73.2494 88.941 73.1706 89.1911 73.039 89.6097C72.9457 89.9055 72.8259 90.2856 72.6291 90.7753C71.2346 95.2846 74.5451 103.183 79.977 104.73C85.2746 106.238 89.9823 105.69 94.0193 101.741C95.9371 99.8606 95.9908 98.7534 94.2738 96.7787C93.6281 96.0421 92.9554 95.3254 92.275 94.6001L92.2745 94.5997L92.2732 94.5983L92.2727 94.5974L92.2668 94.5915C91.989 94.2952 91.7098 93.9981 91.4306 93.6973C88.1465 98.0594 87.5276 97.2312 85.9709 95.1487C85.4618 94.4669 84.8515 93.651 84.0149 92.8383C84.0276 92.7187 83.5198 93.4771 82.9806 94.2835L82.9801 94.2839C82.3771 95.185 81.7341 96.1458 81.7341 96.0049ZM145.252 101.448C143.987 103.277 143.297 105.236 142.614 107.179C142.449 107.645 142.286 108.11 142.114 108.572C142.061 108.718 142.002 108.87 141.942 109.025L141.942 109.026C141.625 109.845 141.274 110.752 141.51 111.414C141.719 112.02 142.392 112.07 143.092 112.121C143.47 112.149 143.855 112.177 144.18 112.294C147.747 113.575 151.368 114.536 155.204 114.682C161.709 114.936 167.503 113.375 172.425 108.919C177.079 104.703 179.546 99.3804 180.955 93.4304C181.143 92.6567 180.834 92.2961 180.164 92.0428C179.746 91.8847 179.327 91.7303 178.906 91.5753L178.905 91.5749L178.903 91.5744L178.902 91.574C177.728 91.1422 176.55 90.7087 175.416 90.1886C174.008 89.5349 173.887 90.0949 173.927 91.3225C174.061 95.1247 173.257 98.6333 170.963 101.809C165.839 108.866 156.049 110.573 149.075 105.504C148.155 104.826 147.436 103.963 146.707 103.086V103.086H146.706C146.245 102.531 145.778 101.971 145.252 101.448ZM88.1315 114.629C90.5207 114.837 93.0278 114.115 95.6233 113.366C96.8447 113.014 98.0862 112.656 99.3437 112.387C101.812 111.854 101.744 111.654 100.819 109.266C100.45 108.326 100.099 107.379 99.7467 106.433V106.432L99.7463 106.432L99.7458 106.431C99.3938 105.484 99.0417 104.537 98.6733 103.596C97.9086 101.662 97.7342 101.648 96.3798 103.249C90.6127 110.066 79.2529 110.093 73.2977 103.409C70.1461 99.8606 68.5635 95.845 68.8318 91.1092C68.8331 91.0793 68.8345 91.0489 68.8359 91.019C68.8641 90.4595 68.8924 89.8946 68.027 90.1352C66.0824 90.6956 64.1377 91.2822 62.2199 91.9092C61.8041 92.0428 61.6966 92.2965 61.8041 92.9099C62.6088 97.1126 64.0839 100.968 66.6321 104.463C71.7957 111.587 78.649 115.109 88.1315 114.629ZM166.752 63.5335C168.704 63.6685 170.439 63.7813 172.147 63.8919L172.586 63.9204C176.125 64.1528 179.583 64.8609 183.04 65.5685C183.552 65.6731 184.064 65.7782 184.576 65.8815C184.723 65.9114 184.86 65.9404 184.988 65.9671C185.784 66.1343 186.2 66.2217 186.418 66.0541C186.655 65.8707 186.655 65.3828 186.655 64.3612V64.3204C186.655 59.0509 186.642 53.7814 186.628 48.5115C186.628 48.4399 186.638 48.3629 186.649 48.285C186.683 48.0299 186.719 47.764 186.4 47.6313C186.097 47.5085 185.869 47.7028 185.654 47.8868C185.612 47.923 185.57 47.9588 185.528 47.9914L185.527 47.9919C183.583 49.5661 181.639 51.1399 179.708 52.7273C175.469 56.2626 171.231 59.798 166.752 63.5335ZM151.299 93.7765C151.195 93.8712 151.087 93.9691 150.975 94.0701L150.938 94.1032C150.888 94.148 150.838 94.1924 150.788 94.2359L150.786 94.2386C149.904 95.0214 149.184 95.6615 149.608 97.0147C150.212 98.9758 151.174 101.624 152.796 102.677C156.337 104.986 160.258 105.615 164.134 104.041C169.579 101.827 173.214 96.3166 172.516 89.9399C172.436 89.1793 172.047 88.8192 171.336 88.5256C170.173 88.0518 168.99 88.1233 167.81 88.1949C167.331 88.2243 166.851 88.2533 166.374 88.2456C166.161 88.242 165.927 88.2135 165.688 88.1845C165.008 88.1016 164.298 88.0151 164 88.4989C163.734 88.9311 164.09 89.1861 164.48 89.4656C164.776 89.6781 165.092 89.9046 165.167 90.2335C165.175 90.2661 165.194 90.2942 165.213 90.3232C165.225 90.3409 165.237 90.3594 165.247 90.3803C165.462 90.2068 165.831 92.7047 165.764 93.0648C165.59 93.9586 164.577 96.0099 163.692 96.2899C161.465 98.2777 160.218 98.3312 157.723 96.4367C157.684 95.3902 157.107 94.6065 156.53 93.8232C155.922 92.9992 155.315 92.1756 155.336 91.0471C153.03 92.2064 152.298 92.87 151.299 93.7765ZM72.9224 58.3365C74.7514 59.8609 76.6046 61.4057 78.501 62.9813C76.3819 63.1149 74.5173 63.2481 72.6533 63.3813C69.156 63.5997 65.7385 64.3019 62.3233 65.0036C61.7699 65.1173 61.2166 65.231 60.6632 65.3424C59.593 65.5608 59.0738 65.7094 58.8219 65.515C58.581 65.3298 58.5842 64.831 58.5842 63.7818C58.5842 58.5141 58.5978 53.2464 58.6111 47.9792V47.9728C58.6111 47.8985 58.6019 47.8206 58.5924 47.7427C58.5614 47.4849 58.53 47.2254 58.8392 47.0922C59.1466 46.9613 59.3643 47.1524 59.5734 47.3359C59.6194 47.3762 59.6649 47.4165 59.7109 47.4528C60.1149 47.7794 60.5188 48.106 60.9228 48.4322C62.4631 49.6771 64.0015 50.9202 65.5317 52.1886C67.9833 54.2195 70.4308 56.2594 72.9224 58.3365Z" clip-rule="evenodd"/><path fill="#4A1E00" d="M160.754 98.048C164.15 98.048 166.903 95.3099 166.903 91.9323C166.903 88.5546 164.15 85.8165 160.754 85.8165C157.359 85.8165 154.606 88.5546 154.606 91.9323C154.606 95.3099 157.359 98.048 160.754 98.048Z"/><path fill="#4A1E00" d="M84.6978 98.048C88.0935 98.048 90.8461 95.3099 90.8461 91.9323C90.8461 88.5546 88.0935 85.8165 84.6978 85.8165C81.3022 85.8165 78.5496 88.5546 78.5496 91.9323C78.5496 95.3099 81.3022 98.048 84.6978 98.048Z"/></g><path fill="#4A1E00" d="M257.389 98.5493C257.389 102.041 256.342 104.784 254.246 106.777C252.151 108.753 249.076 109.741 245.022 109.741C240.968 109.741 237.885 108.753 235.772 106.777C233.677 104.784 232.629 102.041 232.629 98.5493V80.8929L232.936 80.5863H235.747C237.229 80.5863 238.361 80.961 239.145 81.7106C239.946 82.4601 240.346 83.7206 240.346 85.4922V98.4982C240.346 100.116 240.695 101.386 241.394 102.305C242.109 103.225 243.319 103.685 245.022 103.685C246.76 103.685 247.969 103.225 248.65 102.305C249.332 101.386 249.672 100.116 249.672 98.4982V80.8673C250.32 80.7481 250.984 80.6714 251.666 80.6374C252.347 80.6033 252.935 80.5863 253.429 80.5863C253.906 80.5863 254.527 80.6118 255.294 80.6629C256.077 80.697 256.776 80.7822 257.389 80.9184V98.5493ZM286.227 102.408C286.227 104.895 285.827 106.641 285.026 107.646C284.226 108.634 282.863 109.128 280.938 109.128H269.133C267.753 109.128 266.655 108.727 265.837 107.927C265.019 107.109 264.61 105.985 264.61 104.554V74.1216L264.968 73.7639H267.83C269.346 73.7639 270.487 74.1557 271.254 74.9393C272.037 75.7229 272.429 76.9834 272.429 78.721V102.586C274.082 102.467 275.666 102.408 277.182 102.408H286.227ZM303.294 80.9184C303.874 80.7822 304.453 80.697 305.032 80.6629C305.628 80.6118 306.173 80.5863 306.667 80.5863C307.332 80.5863 307.97 80.6289 308.584 80.714C309.214 80.7822 309.768 80.8929 310.244 81.0462L310.577 81.4295L301.889 101.002V109C301.276 109.119 300.637 109.196 299.973 109.23C299.308 109.264 298.721 109.281 298.21 109.281C297.75 109.281 297.145 109.264 296.395 109.23C295.646 109.196 294.964 109.119 294.351 109V100.798L285.715 81.5572C286.43 81.2166 287.205 80.944 288.04 80.7396C288.875 80.5352 289.633 80.433 290.314 80.433C291.37 80.433 292.23 80.6544 292.895 81.0973C293.559 81.5232 294.096 82.2727 294.504 83.3459L296.446 88.3029C296.889 89.4954 297.247 90.5089 297.52 91.3436C297.792 92.1613 298.031 93.0812 298.235 94.1032H298.542C299.189 91.7525 299.896 89.5805 300.663 87.5875L303.294 80.9184ZM324.495 95.7386C324.308 95.3638 324.027 94.7505 323.652 93.8988C323.277 93.0301 322.903 92.1613 322.528 91.2925C322.153 90.4238 321.88 89.7935 321.71 89.4017L321.506 89.4783C321.574 90.79 321.642 92.2039 321.71 93.72C321.778 95.236 321.829 96.6329 321.863 97.9105C321.915 99.171 321.94 100.091 321.94 100.67V109C321.31 109.119 320.697 109.196 320.1 109.23C319.504 109.264 318.959 109.281 318.465 109.281C317.988 109.281 317.417 109.264 316.753 109.23C316.089 109.196 315.45 109.119 314.837 109V81.0462C315.45 80.9099 316.199 80.7992 317.085 80.714C317.971 80.6289 318.669 80.5863 319.18 80.5863C319.691 80.5863 320.398 80.6033 321.301 80.6374C322.221 80.6544 322.988 80.7311 323.601 80.8673L330.014 94.1032C330.168 94.3588 330.381 94.7931 330.653 95.4064C330.926 96.0196 331.224 96.6925 331.548 97.425C331.871 98.1575 332.169 98.8474 332.442 99.4947C332.731 100.125 332.944 100.593 333.081 100.9L333.311 100.849C333.243 99.7417 333.149 98.4641 333.03 97.0162C332.927 95.5512 332.834 94.1373 332.749 92.7745C332.68 91.3947 332.646 90.2875 332.646 89.4528V84.7768C332.646 83.0563 333.013 81.9235 333.745 81.3784C334.478 80.8162 335.585 80.5352 337.067 80.5352H339.622L339.903 80.8929V108.872C339.273 109.009 338.515 109.111 337.629 109.179C336.743 109.247 336.053 109.281 335.559 109.281C335.065 109.281 334.333 109.264 333.362 109.23C332.391 109.213 331.607 109.136 331.011 109L324.495 95.7386ZM347.425 80.8673C348.039 80.7481 348.728 80.6714 349.495 80.6374C350.279 80.6033 350.9 80.5863 351.36 80.5863C351.871 80.5863 352.468 80.6033 353.149 80.6374C353.83 80.6714 354.495 80.7481 355.142 80.8673V91.4714H355.73C356.411 91.4714 356.854 91.3862 357.058 91.2159C357.28 91.0285 357.552 90.6537 357.876 90.0916L361.913 83.0904C362.373 82.2557 362.867 81.6254 363.395 81.1995C363.94 80.7737 364.809 80.5607 366.002 80.5607C366.274 80.5607 366.691 80.5778 367.254 80.6118C367.833 80.6289 368.429 80.6629 369.042 80.714C369.672 80.7651 370.201 80.8162 370.626 80.8673L371.061 81.3528L365.695 90.3216C364.86 91.7695 363.94 92.8853 362.935 93.6689C364.247 94.0095 365.226 94.5802 365.874 95.3808C366.521 96.1644 367.092 97.1354 367.586 98.2937L369.477 102.919C369.988 104.145 370.422 105.048 370.78 105.627C371.137 106.206 371.563 106.7 372.057 107.109C371.546 107.774 370.822 108.327 369.885 108.77C368.949 109.196 367.986 109.4 366.998 109.383C365.686 109.366 364.724 109.051 364.111 108.438C363.514 107.825 362.986 106.973 362.526 105.883L360.303 100.389C359.895 99.401 359.452 98.7026 358.975 98.2937C358.515 97.8679 357.859 97.6379 357.007 97.6038C356.786 97.5868 356.513 97.5868 356.19 97.6038C355.866 97.6209 355.517 97.6379 355.142 97.6549V109C354.495 109.119 353.83 109.196 353.149 109.23C352.468 109.264 351.871 109.281 351.36 109.281C350.9 109.281 350.279 109.264 349.495 109.23C348.728 109.196 348.039 109.119 347.425 109V80.8673ZM373.936 106.854C373.936 106.223 374.055 105.533 374.294 104.784C374.549 104.034 374.89 103.336 375.316 102.689C375.742 102.024 376.21 101.53 376.721 101.207C377.965 101.888 379.353 102.476 380.886 102.97C382.436 103.464 383.97 103.711 385.486 103.711C386.508 103.711 387.351 103.498 388.015 103.072C388.697 102.646 389.037 102.041 389.037 101.258C389.037 100.747 388.841 100.287 388.45 99.878C388.058 99.4521 387.385 99.0688 386.431 98.7281L382.138 97.0673C380.81 96.5733 379.583 95.977 378.459 95.2786C377.352 94.5632 376.449 93.6944 375.75 92.6723C375.069 91.6502 374.728 90.4323 374.728 89.0184C374.728 86.4121 375.733 84.2828 377.743 82.6304C379.754 80.9781 382.479 80.1434 385.92 80.1263C387.845 80.1263 389.761 80.3563 391.669 80.8162C393.577 81.2591 395.178 81.7702 396.473 82.3494C396.473 83.4396 396.243 84.5298 395.783 85.62C395.323 86.6932 394.701 87.5279 393.918 88.1241C392.657 87.5619 391.286 87.0935 389.804 86.7187C388.339 86.344 387.01 86.1651 385.818 86.1821C384.864 86.1821 384.123 86.3866 383.595 86.7954C383.084 87.2042 382.828 87.6982 382.828 88.2774C382.828 88.8225 383.067 89.2399 383.544 89.5294C384.038 89.802 384.659 90.0745 385.409 90.3471L389.676 91.9824C391.993 92.8171 393.841 93.9755 395.221 95.4575C396.601 96.9225 397.291 98.7281 397.291 100.874C397.291 102.765 396.78 104.375 395.758 105.704C394.752 107.015 393.373 108.021 391.618 108.719C389.864 109.4 387.871 109.741 385.639 109.741C382.999 109.741 380.656 109.434 378.612 108.821C376.585 108.208 375.026 107.552 373.936 106.854Z"/><defs><clipPath id="clip0_600_463"><rect width="244.565" height="170.335" fill="#fff"/></clipPath></defs></svg>