<?xml version="1.0" encoding="UTF-8" standalone="no"?>
<!DOCTYPE svg PUBLIC "-//W3C//DTD SVG 1.1//EN" "http://www.w3.org/Graphics/SVG/1.1/DTD/svg11.dtd">
<svg width="100%" height="100%" viewBox="0 0 167 126" version="1.1" xmlns="http://www.w3.org/2000/svg" xmlns:xlink="http://www.w3.org/1999/xlink" xml:space="preserve" xmlns:serif="http://www.serif.com/" style="fill-rule:evenodd;clip-rule:evenodd;stroke-linejoin:round;stroke-miterlimit:2;">
    <g transform="matrix(1,0,0,1,-29.3296,-14.7075)">
        <path d="M76.467,90.976C75.651,92.093 74.878,93.328 74.005,94.278C71.801,96.63 67.961,93.657 66.817,89.785C66.445,88.526 66.287,87.219 66.201,85.842C66.817,83.609 68.491,81.281 71.196,79C71.153,82.92 76.381,87.151 76.467,90.976Z" style="fill:rgb(254,254,254);fill-rule:nonzero;"/>
        <path d="M144.801,90.868C147.237,92.709 148.455,92.658 150.629,90.725C151.559,89.895 146.081,89.817 147.404,89.376C148.255,89.091 148.79,88.923 148.96,88.067C149.025,87.717 147.836,85.696 147.626,85.865C146.499,86.812 152.488,85.653 152.148,84.979C152.122,84.927 152.082,84.888 152.069,84.837C151.899,84.098 150.472,83.89 150.93,83.15C151.323,82.515 152.45,82.891 153.248,82.904C154.859,82.93 156.496,82.515 158.094,83.176C158.788,83.462 159.168,83.812 159.246,84.551C159.928,90.751 156.365,96.121 151.061,98.261C147.276,99.791 143.281,99.376 139.811,97.119C138.226,96.095 138.67,94.773 138.081,92.867C137.635,91.453 136.969,90.219 137.899,89.376C137.977,90.128 138.122,90.842 138.462,91.529C139.51,93.643 140.531,93.967 142.548,92.684C143.36,92.152 144.055,91.477 144.801,90.868Z" style="fill:rgb(224,126,60);fill-rule:nonzero;"/>
        <path d="M73.894,89.833C77.015,92.878 80.406,93.313 84.417,87.942C85.305,88.908 86.301,90.129 87.14,91.094C88.72,92.926 88.232,94.379 86.467,96.124C82.753,99.787 78.41,100.294 73.548,98.896C68.539,97.448 64.305,91.094 67.238,83.74C66.282,88.993 67.6,90.692 69.123,92.355C71.161,94.054 71.637,94.246 73.894,92.882C74.989,90.781 73.474,90.279 73.894,89.833Z" style="fill:rgb(224,126,60);fill-rule:nonzero;"/>
        <path d="M145.391,90.949C144.575,91.606 143.803,92.332 142.929,92.891C140.726,94.275 139.609,93.925 138.465,91.648C138.093,90.907 137.935,90.138 137.849,89.328C138.465,88.014 140.139,86.644 142.844,85.303C142.801,87.609 145.305,88.699 145.391,90.949Z" style="fill:rgb(254,254,254);fill-rule:nonzero;"/>
        <path d="M75.965,89.834C75.376,89.442 74.873,88.96 74.198,88.695C72.519,88.037 72.068,86.974 71.947,85.696C71.843,84.709 71.601,83.735 71.428,82.748C72.397,82.545 73.263,82.937 74.181,83C75.757,83.114 76.311,83.798 75.913,84.873C75.289,86.544 75.341,88.188 75.965,89.834Z" style="fill:rgb(224,126,60);fill-rule:nonzero;"/>
        <path d="M126.525,98.578C127.697,95.682 128.907,92.873 130.474,90.237C133.854,84.557 138.432,80.3 144.91,78.481C149.068,77.305 153.3,77.405 157.57,77.837C166.244,78.729 174.277,81.698 182.124,85.263C182.275,85.332 182.447,85.396 182.623,85.461C183.227,85.684 183.879,85.925 183.889,86.5C183.889,87.068 183.247,87.396 182.655,87.698L182.654,87.699C182.499,87.778 182.346,87.856 182.211,87.936C181.93,88.104 181.651,88.275 181.371,88.448C180.335,89.087 179.296,89.727 178.188,90.175C176.609,90.819 175.807,91.908 175.572,93.504C175.029,97.229 173.03,100.31 170.995,103.305C165.849,110.853 158.816,115.729 149.759,117.35C143.997,118.39 138.309,117.957 132.867,115.618L132.759,115.571C131.651,115.093 131.099,114.855 130.756,115.03C130.415,115.204 130.28,115.788 130.013,116.953L129.967,117.152C128.795,122.25 126.661,126.829 122.725,130.443C119.307,133.574 115.914,136.717 112.582,139.922C111.718,140.763 111.138,140.602 110.398,139.922C109.787,139.356 109.17,138.793 108.553,138.232L108.551,138.23C107.685,137.442 106.818,136.652 105.968,135.851C105.378,135.285 104.782,134.726 104.186,134.166C102.354,132.445 100.522,130.723 98.837,128.847C95.456,125.084 93.728,120.667 93.346,115.68C93.284,114.863 93.062,114.714 92.309,115.048C90.076,116.026 87.781,116.818 85.363,117.264C77.194,118.761 69.569,117.487 62.535,112.945C54.861,107.983 50.012,100.941 47.433,92.254C47.198,91.45 46.766,90.98 46.038,90.584C45.567,90.325 45.093,90.07 44.617,89.815L44.615,89.813C42.75,88.811 40.865,87.799 39.067,86.487C40.597,85.522 42.053,84.768 43.57,84.173C49.382,81.872 55.231,79.669 61.376,78.444C66.582,77.417 71.839,76.959 77.083,78.147C84.684,79.867 90.014,84.545 93.605,91.326C93.74,91.58 93.875,91.833 94.011,92.086C95.095,94.108 96.184,96.141 96.776,98.417C97.149,97.138 97.113,95.859 97.077,94.595L97.077,94.595C97.071,94.354 97.063,94.114 97.06,93.875C96.887,85.275 93.654,78.295 86.189,73.642C82.808,71.539 79.057,70.524 75.121,70.24C68.125,69.72 61.326,71.019 54.54,72.454C53.647,72.644 52.759,72.86 51.872,73.075C49.924,73.547 47.977,74.02 45.977,74.224C43.595,74.459 41.991,73.185 41.818,70.784C41.717,69.401 41.74,68.012 41.763,66.621C41.771,66.156 41.778,65.692 41.781,65.228C41.917,63.583 42.049,61.978 42.18,60.402C42.972,50.812 43.677,42.292 44.323,32.435C44.323,31.469 41.485,28.6 40.683,28.266C38.933,27.521 37.193,27.081 35.447,26.641C33.771,26.218 32.091,25.793 30.392,25.096C29.381,24.688 29.06,24.341 29.566,23.252L29.645,23.078C30.104,22.071 30.337,21.561 30.711,21.414C31.095,21.264 31.628,21.495 32.707,21.963L32.712,21.965C32.994,22.087 33.277,22.213 33.559,22.339C34.166,22.609 34.775,22.88 35.39,23.116C35.504,23.161 35.629,23.234 35.758,23.308C36.128,23.523 36.524,23.753 36.772,23.376C37.064,22.937 36.681,22.66 36.322,22.4C36.196,22.309 36.072,22.22 35.982,22.126C35.007,21.062 34.008,20.023 32.934,19.057C32.243,18.451 32.354,18.092 32.947,17.498L33.018,17.426C34.823,15.603 34.882,15.543 36.661,17.473C37.543,18.422 38.356,19.308 39.13,20.151C42.575,23.905 45.229,26.797 49.653,30.465C53.336,33.522 57.707,36.839 62.078,40.156C66.45,43.472 70.821,46.789 74.504,49.846C76.129,51.191 77.759,52.531 79.389,53.871C84.942,58.434 90.497,63 95.838,67.801C102.008,73.333 105.833,80.362 106.61,88.752C107.325,96.523 107.301,104.283 105.574,111.955C104.821,115.309 103.649,118.538 101.971,121.818L104.241,121.818C105.965,121.818 107.69,121.816 109.414,121.815L109.436,121.815C112.898,121.812 116.358,121.809 119.813,121.818C120.639,121.818 121.133,121.793 120.615,120.741C117.283,113.972 116.592,106.658 116.395,99.258C116.247,93.677 116.469,88.146 118.06,82.738C119.813,76.773 121.492,73.496 126.106,69.536C133.779,62.935 143.062,55.191 151.103,48.483C151.881,47.833 152.647,47.194 153.399,46.566C156.044,44.362 158.684,42.15 161.324,39.94L161.326,39.938C166.924,35.25 172.521,30.562 178.163,25.938C180.996,23.623 183.551,21.028 186.107,18.431C187.158,17.363 188.209,16.295 189.281,15.246C189.996,14.541 190.366,14.516 191.07,15.246L191.178,15.359C191.998,16.216 192.409,16.645 192.406,17.071C192.402,17.499 191.979,17.923 191.131,18.773C190.07,19.837 189,20.892 187.807,22.066L187.343,22.522C188.341,22.522 189.091,22.156 189.805,21.807C190.125,21.651 190.437,21.499 190.761,21.384C191.115,21.26 191.458,21.103 191.801,20.947C191.972,20.868 192.143,20.79 192.316,20.716L192.338,20.706C193.399,20.243 193.929,20.012 194.31,20.161C194.69,20.309 194.924,20.834 195.39,21.879L195.45,22.015C195.919,23.067 195.66,23.438 194.636,23.859C192.325,24.808 190.037,25.8 187.749,26.793L187.749,26.793C186.188,27.47 184.628,28.146 183.062,28.809C182.087,29.217 181.717,29.749 181.717,30.863C181.754,43.643 181.742,56.423 181.729,69.215L181.729,69.225C181.729,69.374 181.731,69.525 181.733,69.676C181.748,70.812 181.764,71.972 180.915,72.9C179.483,74.472 177.633,74.496 175.782,74.051C170.513,72.776 165.207,71.601 159.865,70.772C153.017,69.708 146.144,69.547 139.616,72.479C133.645,75.152 129.708,79.731 127.648,85.956C126.29,90.051 126.167,94.284 126.525,98.578ZM75.195,90.46C74.739,88.851 74.714,87.243 75.158,85.609C75.442,84.57 75.047,83.889 73.924,83.778C73.672,83.754 73.412,83.713 73.148,83.671C72.726,83.605 72.29,83.537 71.847,83.53C71.586,83.527 71.336,83.521 71.092,83.515C70.526,83.501 69.986,83.488 69.383,83.505L69.208,83.511C68.185,83.541 67.774,83.554 67.544,83.765C67.389,83.907 67.317,84.139 67.196,84.528C67.11,84.802 67,85.155 66.819,85.609C65.536,89.792 68.581,97.118 73.579,98.553C78.453,99.952 82.784,99.444 86.498,95.781C88.262,94.036 88.311,93.009 86.732,91.177C86.138,90.494 85.519,89.829 84.893,89.157L84.891,89.155L84.891,89.154L84.885,89.149C84.63,88.874 84.373,88.598 84.116,88.319C81.095,92.365 80.525,91.597 79.093,89.665C78.625,89.033 78.063,88.276 77.294,87.522C77.305,87.412 76.838,88.115 76.342,88.863L76.342,88.863C75.787,89.699 75.195,90.59 75.195,90.46ZM133.632,95.509C132.468,97.205 131.833,99.022 131.204,100.824C131.053,101.257 130.903,101.688 130.745,102.117C130.696,102.253 130.642,102.393 130.587,102.537L130.586,102.537C130.295,103.297 129.972,104.139 130.189,104.753C130.382,105.315 131.001,105.361 131.644,105.409C131.992,105.435 132.346,105.461 132.645,105.569C135.927,106.757 139.259,107.649 142.787,107.785C148.772,108.02 154.102,106.572 158.631,102.439C162.913,98.528 165.183,93.591 166.478,88.072C166.651,87.354 166.367,87.019 165.75,86.784C165.367,86.638 164.98,86.495 164.593,86.351L164.59,86.35C163.51,85.949 162.426,85.547 161.382,85.065C160.087,84.458 159.976,84.978 160.013,86.116C160.136,89.643 159.396,92.898 157.286,95.843C152.572,102.389 143.565,103.973 137.149,99.271C136.303,98.642 135.641,97.841 134.97,97.028L134.97,97.028C134.545,96.513 134.115,95.994 133.632,95.509ZM81.081,107.735C83.279,107.928 85.585,107.258 87.973,106.564C89.097,106.237 90.239,105.905 91.396,105.656C93.667,105.161 93.605,104.976 92.753,102.76C92.414,101.889 92.091,101.01 91.767,100.133L91.767,100.132L91.766,100.131L91.766,100.131C91.442,99.252 91.118,98.374 90.779,97.501C90.076,95.707 89.915,95.694 88.669,97.179C83.364,103.503 72.913,103.527 67.434,97.328C64.534,94.036 63.078,90.311 63.325,85.919C63.326,85.891 63.328,85.863 63.329,85.835C63.355,85.316 63.381,84.792 62.585,85.015C60.796,85.535 59.007,86.079 57.242,86.661C56.86,86.784 56.761,87.02 56.86,87.589C57.6,91.487 58.957,95.063 61.301,98.306C66.052,104.914 72.357,108.18 81.081,107.735ZM153.411,60.34C155.207,60.465 156.804,60.57 158.375,60.672L158.779,60.699C162.035,60.914 165.217,61.571 168.396,62.227C168.868,62.324 169.339,62.422 169.81,62.518C169.945,62.545 170.071,62.572 170.189,62.597C170.921,62.752 171.304,62.833 171.504,62.678C171.722,62.508 171.722,62.055 171.722,61.107L171.722,61.07C171.722,56.182 171.71,51.294 171.698,46.405C171.698,46.339 171.707,46.268 171.717,46.195C171.748,45.959 171.781,45.712 171.488,45.589C171.209,45.475 171,45.655 170.801,45.826C170.763,45.86 170.724,45.893 170.686,45.923L170.685,45.923C168.896,47.384 167.107,48.844 165.331,50.316C161.432,53.595 157.533,56.875 153.411,60.34ZM139.195,88.393C139.099,88.481 139,88.571 138.897,88.665L138.863,88.696C138.817,88.737 138.77,88.778 138.725,88.819L138.723,88.821C137.912,89.547 137.249,90.141 137.64,91.396C138.195,93.216 139.08,95.672 140.573,96.649C143.83,98.79 147.437,99.374 151.003,97.914C156.013,95.86 159.357,90.749 158.715,84.834C158.641,84.128 158.283,83.794 157.629,83.522C156.559,83.083 155.471,83.149 154.385,83.215C153.944,83.243 153.503,83.269 153.064,83.262C152.868,83.259 152.653,83.233 152.433,83.206C151.807,83.129 151.154,83.048 150.88,83.497C150.635,83.898 150.962,84.135 151.321,84.394C151.594,84.591 151.884,84.801 151.953,85.106C151.961,85.137 151.978,85.162 151.996,85.189C152.007,85.206 152.018,85.223 152.027,85.242C152.225,85.081 152.565,87.399 152.503,87.733C152.343,88.562 151.411,90.464 150.596,90.724C148.548,92.568 147.401,92.618 145.105,90.86C145.069,89.89 144.538,89.162 144.007,88.436C143.448,87.672 142.89,86.908 142.909,85.861C140.787,86.936 140.114,87.552 139.195,88.393ZM67.089,55.519C68.771,56.933 70.476,58.366 72.221,59.828C70.271,59.951 68.556,60.075 66.841,60.199C63.623,60.401 60.479,61.052 57.337,61.703C56.828,61.809 56.319,61.914 55.81,62.018C54.825,62.22 54.348,62.358 54.116,62.178C53.894,62.006 53.897,61.543 53.897,60.57C53.897,55.684 53.91,50.798 53.922,45.912L53.922,45.906C53.922,45.837 53.914,45.765 53.905,45.692C53.876,45.453 53.847,45.213 54.132,45.089C54.415,44.968 54.615,45.145 54.807,45.315C54.85,45.352 54.892,45.39 54.934,45.423C55.306,45.726 55.677,46.029 56.049,46.332C57.466,47.487 58.881,48.64 60.289,49.816C62.545,51.7 64.796,53.592 67.089,55.519Z" style="fill:rgb(74,30,0);"/>
        <path d="M147.894,92.355C151.018,92.355 153.551,89.815 153.551,86.682C153.551,83.549 151.018,81.009 147.894,81.009C144.77,81.009 142.238,83.549 142.238,86.682C142.238,89.815 144.77,92.355 147.894,92.355Z" style="fill:rgb(74,30,0);fill-rule:nonzero;"/>
        <path d="M77.922,92.355C81.046,92.355 83.579,89.815 83.579,86.682C83.579,83.549 81.046,81.009 77.922,81.009C74.798,81.009 72.266,83.549 72.266,86.682C72.266,89.815 74.798,92.355 77.922,92.355Z" style="fill:rgb(74,30,0);fill-rule:nonzero;"/>
    </g>
</svg>
