<?xml version="1.0" encoding="UTF-8" standalone="no"?>
<!DOCTYPE svg PUBLIC "-//W3C//DTD SVG 1.1//EN" "http://www.w3.org/Graphics/SVG/1.1/DTD/svg11.dtd">
<svg width="100%" height="100%" viewBox="0 0 167 184" version="1.1" xmlns="http://www.w3.org/2000/svg" xmlns:xlink="http://www.w3.org/1999/xlink" xml:space="preserve" xmlns:serif="http://www.serif.com/" style="fill-rule:evenodd;clip-rule:evenodd;stroke-linejoin:round;stroke-miterlimit:2;">
    <g transform="matrix(1,0,0,1,-29.3296,-14.5869)">
        <path d="M56.755,186.709C56.755,190.148 55.723,192.848 53.66,194.811C51.597,196.757 48.569,197.73 44.577,197.73C40.585,197.73 37.549,196.757 35.469,194.811C33.405,192.848 32.374,190.148 32.374,186.709L32.374,169.323L32.676,169.021L35.444,169.021C36.903,169.021 38.018,169.39 38.79,170.128C39.578,170.866 39.972,172.107 39.972,173.852L39.972,186.659C39.972,188.252 40.316,189.502 41.004,190.408C41.709,191.314 42.9,191.766 44.577,191.766C46.288,191.766 47.479,191.314 48.15,190.408C48.821,189.502 49.156,188.252 49.156,186.659L49.156,169.298C49.794,169.18 50.448,169.105 51.119,169.071C51.79,169.038 52.368,169.021 52.855,169.021C53.325,169.021 53.937,169.046 54.692,169.096C55.463,169.13 56.151,169.214 56.755,169.348L56.755,186.709ZM85.152,190.508C85.152,192.957 84.758,194.677 83.97,195.666C83.181,196.639 81.839,197.126 79.944,197.126L68.319,197.126C66.961,197.126 65.879,196.732 65.073,195.943C64.268,195.138 63.866,194.031 63.866,192.622L63.866,162.655L64.218,162.303L67.036,162.303C68.529,162.303 69.653,162.689 70.408,163.46C71.179,164.232 71.565,165.473 71.565,167.184L71.565,190.685C73.192,190.567 74.752,190.508 76.245,190.508L85.152,190.508ZM101.958,169.348C102.528,169.214 103.099,169.13 103.669,169.096C104.256,169.046 104.793,169.021 105.279,169.021C105.934,169.021 106.563,169.063 107.166,169.147C107.787,169.214 108.332,169.323 108.802,169.474L109.129,169.851L100.574,189.125L100.574,197C99.97,197.117 99.341,197.193 98.687,197.226C98.033,197.26 97.454,197.277 96.951,197.277C96.498,197.277 95.903,197.26 95.165,197.226C94.427,197.193 93.756,197.117 93.152,197L93.152,188.923L84.647,169.977C85.352,169.641 86.115,169.373 86.937,169.172C87.759,168.971 88.505,168.87 89.176,168.87C90.216,168.87 91.063,169.088 91.718,169.524C92.372,169.943 92.9,170.681 93.303,171.738L95.215,176.619C95.651,177.794 96.003,178.792 96.272,179.614C96.54,180.419 96.775,181.325 96.976,182.331L97.278,182.331C97.915,180.016 98.612,177.878 99.367,175.915L101.958,169.348ZM122.835,183.941C122.65,183.572 122.373,182.968 122.004,182.13C121.635,181.274 121.266,180.419 120.897,179.563C120.528,178.708 120.26,178.087 120.092,177.701L119.891,177.777C119.958,179.069 120.025,180.461 120.092,181.954C120.159,183.447 120.21,184.822 120.243,186.08C120.293,187.321 120.319,188.227 120.319,188.797L120.319,197C119.698,197.117 119.094,197.193 118.507,197.226C117.92,197.26 117.383,197.277 116.897,197.277C116.427,197.277 115.865,197.26 115.211,197.226C114.557,197.193 113.928,197.117 113.324,197L113.324,169.474C113.928,169.34 114.666,169.231 115.538,169.147C116.41,169.063 117.098,169.021 117.601,169.021C118.104,169.021 118.801,169.038 119.69,169.071C120.595,169.088 121.35,169.163 121.954,169.298L128.27,182.331C128.42,182.583 128.63,183.01 128.899,183.614C129.167,184.218 129.46,184.881 129.779,185.602C130.098,186.323 130.391,187.003 130.66,187.64C130.945,188.261 131.155,188.722 131.289,189.024L131.515,188.974C131.448,187.883 131.356,186.625 131.239,185.199C131.138,183.757 131.046,182.365 130.962,181.023C130.895,179.664 130.861,178.574 130.861,177.752L130.861,173.147C130.861,171.453 131.222,170.338 131.943,169.801C132.664,169.247 133.755,168.971 135.214,168.971L137.73,168.971L138.007,169.323L138.007,196.874C137.386,197.008 136.64,197.109 135.768,197.176C134.895,197.243 134.216,197.277 133.729,197.277C133.243,197.277 132.522,197.26 131.566,197.226C130.61,197.21 129.838,197.134 129.251,197L122.835,183.941ZM145.414,169.298C146.018,169.18 146.697,169.105 147.452,169.071C148.224,169.038 148.836,169.021 149.289,169.021C149.792,169.021 150.379,169.038 151.05,169.071C151.721,169.105 152.375,169.18 153.013,169.298L153.013,179.739L153.591,179.739C154.262,179.739 154.699,179.656 154.9,179.488C155.118,179.303 155.386,178.934 155.705,178.381L159.68,171.487C160.133,170.665 160.62,170.044 161.14,169.625C161.677,169.205 162.532,168.996 163.706,168.996C163.975,168.996 164.386,169.012 164.939,169.046C165.509,169.063 166.097,169.096 166.7,169.147C167.321,169.197 167.841,169.247 168.26,169.298L168.688,169.776L163.404,178.607C162.582,180.033 161.677,181.132 160.687,181.903C161.978,182.239 162.943,182.801 163.58,183.589C164.218,184.361 164.78,185.317 165.266,186.457L167.128,191.012C167.631,192.219 168.059,193.108 168.411,193.679C168.764,194.249 169.183,194.735 169.669,195.138C169.166,195.792 168.453,196.337 167.531,196.774C166.608,197.193 165.66,197.394 164.687,197.377C163.396,197.361 162.448,197.05 161.844,196.446C161.257,195.843 160.737,195.004 160.284,193.93L158.095,188.521C157.693,187.548 157.257,186.86 156.787,186.457C156.334,186.038 155.688,185.812 154.849,185.778C154.631,185.761 154.363,185.761 154.044,185.778C153.726,185.795 153.382,185.812 153.013,185.828L153.013,197C152.375,197.117 151.721,197.193 151.05,197.226C150.379,197.26 149.792,197.277 149.289,197.277C148.836,197.277 148.224,197.26 147.452,197.226C146.697,197.193 146.018,197.117 145.414,197L145.414,169.298ZM171.52,194.886C171.52,194.266 171.637,193.586 171.872,192.848C172.123,192.11 172.459,191.423 172.878,190.785C173.298,190.131 173.759,189.645 174.262,189.326C175.487,189.997 176.854,190.576 178.363,191.062C179.89,191.548 181.399,191.792 182.892,191.792C183.899,191.792 184.729,191.582 185.383,191.163C186.054,190.743 186.39,190.148 186.39,189.376C186.39,188.873 186.197,188.42 185.811,188.017C185.425,187.598 184.763,187.221 183.823,186.885L179.596,185.25C178.288,184.763 177.08,184.176 175.973,183.488C174.883,182.784 173.994,181.928 173.306,180.922C172.635,179.916 172.3,178.716 172.3,177.324C172.3,174.758 173.289,172.661 175.269,171.034C177.248,169.407 179.932,168.585 183.32,168.568C185.216,168.568 187.103,168.794 188.981,169.247C190.86,169.683 192.437,170.187 193.712,170.757C193.712,171.83 193.485,172.904 193.032,173.978C192.579,175.034 191.967,175.856 191.196,176.443C189.954,175.89 188.604,175.429 187.145,175.06C185.702,174.69 184.394,174.514 183.219,174.531C182.28,174.531 181.55,174.732 181.03,175.135C180.527,175.538 180.276,176.024 180.276,176.594C180.276,177.131 180.51,177.542 180.98,177.827C181.467,178.096 182.079,178.364 182.817,178.632L187.019,180.243C189.3,181.065 191.12,182.205 192.479,183.665C193.837,185.107 194.517,186.885 194.517,188.999C194.517,190.861 194.014,192.446 193.007,193.754C192.017,195.046 190.659,196.035 188.931,196.723C187.203,197.394 185.241,197.73 183.043,197.73C180.443,197.73 178.137,197.428 176.124,196.824C174.128,196.22 172.593,195.574 171.52,194.886Z" style="fill:rgb(224,126,60);fill-rule:nonzero;"/>
        <path d="M153.551,85.973C153.551,89.081 151.018,91.6 147.894,91.6C146.592,91.6 145.393,91.162 144.437,90.427C144.33,90.517 144.224,90.608 144.117,90.699C143.613,91.13 143.109,91.562 142.548,91.926C140.531,93.199 139.51,92.878 138.462,90.781C138.122,90.099 137.977,89.391 137.899,88.645C137.12,89.346 137.461,90.318 137.854,91.439C137.93,91.657 138.008,91.88 138.081,92.108C138.265,92.698 138.348,93.233 138.424,93.719C138.591,94.789 138.721,95.626 139.811,96.325C143.281,98.563 147.276,98.975 151.061,97.457C156.365,95.335 159.928,90.009 159.246,83.86C159.168,83.127 158.788,82.779 158.094,82.496C156.96,82.031 155.807,82.103 154.657,82.175C154.186,82.204 153.716,82.234 153.248,82.226C153.041,82.223 152.812,82.195 152.579,82.167C152.387,82.144 152.193,82.121 152.007,82.11C152.964,83.118 153.551,84.477 153.551,85.973Z" style="fill:rgb(235,177,137);"/>
        <path d="M73.027,83.153C72.543,83.982 72.266,84.945 72.266,85.973C72.266,88.329 73.721,90.346 75.786,91.185C75.774,91.202 75.761,91.22 75.749,91.237C75.184,92.041 74.619,92.844 74.005,93.507C71.801,95.84 67.961,92.892 66.817,89.051C66.445,87.802 66.287,86.506 66.201,85.14C66.817,82.925 68.491,80.616 71.196,78.354C71.178,79.919 72.015,81.534 73.027,83.153Z" style="fill:rgb(254,254,254);"/>
        <path d="M82.202,89.652C81.164,90.845 79.632,91.6 77.922,91.6C76.513,91.6 75.224,91.087 74.234,90.239C74.353,90.667 74.348,91.259 73.894,92.123C71.637,93.475 71.161,93.285 69.123,91.6C67.6,89.95 66.281,88.265 67.238,83.056C64.305,90.349 68.539,96.651 73.548,98.088C78.41,99.474 82.753,98.971 86.467,95.338C88.231,93.608 88.72,92.166 87.14,90.349C86.844,90.012 86.529,89.642 86.205,89.264C85.612,88.569 84.992,87.843 84.416,87.223C83.657,88.233 82.919,89.035 82.202,89.652Z" style="fill:rgb(235,177,137);"/>
        <path d="M142.349,84.855C142.276,85.216 142.238,85.59 142.238,85.973C142.238,87.947 143.259,89.683 144.804,90.687C144.761,90.723 144.718,90.759 144.674,90.796C144.109,91.269 143.544,91.741 142.929,92.131C140.726,93.504 139.609,93.157 138.465,90.898C138.093,90.163 137.935,89.401 137.849,88.597C138.426,87.376 139.934,86.105 142.349,84.855Z" style="fill:rgb(254,254,254);"/>
        <path d="M73.673,82.259C72.797,83.25 72.266,84.55 72.266,85.973C72.266,86.095 72.269,86.217 72.277,86.337C72.087,85.927 71.993,85.477 71.947,84.995C71.878,84.345 71.748,83.701 71.618,83.055C71.552,82.727 71.486,82.4 71.428,82.071C72.053,81.941 72.634,82.057 73.215,82.172C73.367,82.203 73.52,82.233 73.673,82.259Z" style="fill:rgb(235,177,137);"/>
        <path d="M126.525,97.771C127.697,94.899 128.907,92.113 130.474,89.499C133.854,83.865 138.432,79.643 144.91,77.839C149.068,76.673 153.3,76.771 157.57,77.201C166.244,78.084 174.277,81.03 182.124,84.565C182.275,84.634 182.447,84.697 182.623,84.762C183.227,84.983 183.879,85.222 183.889,85.792C183.889,86.356 183.247,86.681 182.655,86.981C182.499,87.059 182.346,87.137 182.211,87.216C181.93,87.383 181.651,87.553 181.371,87.724C180.335,88.358 179.296,88.993 178.188,89.437C176.609,90.076 175.807,91.156 175.572,92.739C175.029,96.433 173.03,99.49 170.995,102.46C165.849,109.947 158.816,114.782 149.759,116.39C143.997,117.421 138.309,116.992 132.867,114.672L132.759,114.625C131.651,114.151 131.099,113.915 130.756,114.088C130.414,114.261 130.28,114.84 130.013,115.996L129.967,116.194C128.795,121.25 126.661,125.792 122.725,129.376C119.307,132.481 115.914,135.598 112.582,138.777C111.718,139.612 111.138,139.452 110.398,138.777C109.787,138.216 109.17,137.658 108.553,137.101L108.552,137.1C107.685,136.318 106.818,135.535 105.968,134.739C105.378,134.179 104.782,133.624 104.186,133.068C102.354,131.361 100.522,129.654 98.837,127.792C95.456,124.061 93.728,119.68 93.346,114.733C93.284,113.923 93.062,113.776 92.309,114.107C90.076,115.077 87.781,115.862 85.363,116.304C77.194,117.789 69.569,116.525 62.535,112.021C54.861,107.099 50.012,100.115 47.433,91.499C47.198,90.702 46.766,90.235 46.038,89.843C45.567,89.586 45.093,89.333 44.617,89.08L44.615,89.078C42.75,88.085 40.865,87.08 39.067,85.78C40.597,84.823 42.053,84.074 43.57,83.485C49.382,81.202 55.231,79.017 61.376,77.802C66.582,76.783 71.839,76.329 77.083,77.508C84.684,79.214 90.014,83.853 93.605,90.579C93.74,90.83 93.875,91.082 94.011,91.333C95.095,93.338 96.184,95.354 96.776,97.612C97.149,96.343 97.113,95.075 97.077,93.821C97.071,93.583 97.063,93.344 97.06,93.107C96.887,84.577 93.654,77.655 86.189,73.04C82.808,70.953 79.057,69.947 75.121,69.665C68.125,69.149 61.326,70.438 54.54,71.862C53.647,72.05 52.759,72.264 51.872,72.477C49.924,72.946 47.977,73.415 45.977,73.617C43.595,73.85 41.991,72.586 41.818,70.205C41.717,68.833 41.74,67.455 41.763,66.075C41.771,65.615 41.778,65.154 41.781,64.694C41.917,63.063 42.049,61.471 42.18,59.908C42.972,50.396 43.677,41.946 44.323,32.169C44.323,31.212 41.485,28.366 40.683,28.034C38.933,27.295 37.193,26.86 35.447,26.423C33.771,26.003 32.091,25.582 30.392,24.891C29.381,24.486 29.06,24.142 29.566,23.062L29.645,22.889C30.104,21.89 30.337,21.385 30.711,21.239C31.095,21.089 31.628,21.319 32.707,21.783L32.712,21.785C32.994,21.906 33.277,22.031 33.559,22.156C34.166,22.424 34.775,22.692 35.39,22.927C35.504,22.971 35.629,23.043 35.758,23.117C36.128,23.33 36.524,23.558 36.772,23.185C37.064,22.749 36.681,22.474 36.322,22.217C36.196,22.126 36.072,22.038 35.982,21.945C35.007,20.89 34.008,19.859 32.934,18.901C32.243,18.3 32.354,17.944 32.947,17.355L33.018,17.283C34.823,15.475 34.882,15.416 36.661,17.33C37.543,18.271 38.356,19.15 39.13,19.986C42.575,23.709 45.229,26.578 49.653,30.216C53.336,33.248 57.707,36.537 62.078,39.827C66.45,43.117 70.821,46.406 74.504,49.438C76.129,50.772 77.759,52.101 79.389,53.43C84.942,57.956 90.497,62.484 95.838,67.247C102.008,72.733 105.833,79.704 106.61,88.026C107.325,95.734 107.301,103.429 105.574,111.039C104.821,114.365 103.649,117.569 101.971,120.821L104.241,120.821C105.965,120.821 107.69,120.819 109.414,120.818L109.436,120.818C112.898,120.816 116.358,120.813 119.813,120.821C120.639,120.821 121.133,120.796 120.615,119.753C117.283,113.039 116.592,105.786 116.395,98.446C116.247,92.911 116.469,87.424 118.06,82.061C119.813,76.145 121.492,72.895 126.106,68.967C133.779,62.42 143.062,54.74 151.103,48.086C151.881,47.442 152.647,46.808 153.399,46.185C156.044,43.998 158.684,41.805 161.324,39.613L161.326,39.611C166.924,34.961 172.521,30.312 178.163,25.725C180.996,23.429 183.551,20.856 186.107,18.28C187.158,17.221 188.209,16.162 189.281,15.121C189.996,14.421 190.366,14.397 191.07,15.121L191.178,15.233C191.998,16.083 192.409,16.509 192.406,16.931C192.402,17.355 191.979,17.776 191.131,18.619C190.07,19.674 189,20.72 187.807,21.885L187.343,22.338C188.341,22.338 189.091,21.974 189.805,21.628C190.125,21.474 190.437,21.322 190.761,21.209C191.115,21.086 191.458,20.93 191.801,20.775C191.972,20.697 192.143,20.619 192.316,20.546L192.338,20.536C193.399,20.077 193.929,19.848 194.31,19.996C194.69,20.143 194.924,20.663 195.39,21.7L195.45,21.834C195.919,22.878 195.66,23.246 194.636,23.663C192.325,24.604 190.037,25.589 187.749,26.573C186.189,27.244 184.628,27.916 183.062,28.573C182.087,28.978 181.717,29.506 181.717,30.61C181.754,43.286 181.742,55.961 181.729,68.649L181.729,68.658C181.729,68.807 181.731,68.956 181.733,69.105C181.748,70.232 181.764,71.383 180.915,72.303C179.483,73.862 177.633,73.887 175.782,73.445C170.513,72.181 165.207,71.015 159.865,70.192C153.017,69.137 146.144,68.978 139.616,71.886C133.645,74.537 129.708,79.079 127.648,85.252C126.29,89.315 126.167,93.512 126.525,97.771ZM74.06,82.987C73.808,82.963 73.412,83.028 73.148,82.987C72.726,82.921 72.29,82.853 71.847,82.847C71.586,82.843 71.336,82.837 71.092,82.832C70.526,82.818 69.986,82.805 69.383,82.822L69.208,82.827C68.185,82.858 67.774,82.87 67.544,83.08C67.389,83.221 67.317,83.451 67.196,83.836C67.11,84.108 67,84.458 66.819,84.908C65.536,89.057 68.581,96.323 73.579,97.747C78.453,99.134 82.784,98.63 86.498,94.997C88.262,93.267 88.311,92.248 86.732,90.431C86.138,89.754 85.519,89.094 84.893,88.427L84.891,88.426L84.891,88.425L84.885,88.419C84.63,88.147 84.373,87.873 84.116,87.597C82.34,85.575 80.04,84.195 78.2,83.735C77.202,83.486 75.365,82.987 74.06,82.987ZM133.632,94.727C132.468,96.41 131.833,98.212 131.204,99.999C131.053,100.428 130.903,100.856 130.745,101.281C130.696,101.416 130.642,101.556 130.587,101.698C130.295,102.452 129.972,103.287 130.189,103.896C130.382,104.453 131.001,104.499 131.644,104.546C131.992,104.572 132.346,104.598 132.645,104.706C135.927,105.884 139.259,106.768 142.787,106.903C148.772,107.136 154.102,105.7 158.631,101.601C162.913,97.722 165.183,92.825 166.478,87.351C166.651,86.639 166.367,86.307 165.75,86.074C165.367,85.929 164.98,85.787 164.593,85.644L164.59,85.643C163.51,85.246 162.426,84.847 161.382,84.369C160.087,83.767 159.976,84.282 160.013,85.412C160.136,88.91 159.396,92.138 157.286,95.059C152.572,101.551 143.565,103.122 137.149,98.459C136.303,97.835 135.641,97.041 134.97,96.235C134.545,95.724 134.115,95.208 133.632,94.727ZM81.081,106.854C83.279,107.045 85.585,106.381 87.973,105.692C89.097,105.368 90.239,105.039 91.396,104.791C93.667,104.301 93.605,104.117 92.753,101.919C92.414,101.055 92.091,100.184 91.767,99.313L91.766,99.312C91.443,98.441 91.118,97.569 90.779,96.704C90.076,94.924 89.915,94.911 88.669,96.384C83.364,102.656 72.913,102.68 67.434,96.531C64.534,93.267 63.078,89.573 63.325,85.216C63.326,85.188 63.328,85.16 63.329,85.132C63.355,84.618 63.381,84.098 62.585,84.319C60.796,84.835 59.007,85.375 57.242,85.952C56.86,86.075 56.761,86.308 56.86,86.872C57.6,90.739 58.957,94.285 61.301,97.501C66.052,104.055 72.357,107.295 81.081,106.854ZM153.411,59.846C155.207,59.97 156.804,60.074 158.375,60.176L158.779,60.202C162.035,60.416 165.217,61.067 168.396,61.718C168.868,61.814 169.339,61.911 169.81,62.006C169.945,62.034 170.071,62.06 170.189,62.085C170.921,62.239 171.304,62.319 171.504,62.165C171.722,61.996 171.722,61.547 171.722,60.607L171.722,60.57C171.722,55.722 171.71,50.874 171.698,46.026C171.698,45.96 171.707,45.889 171.717,45.817C171.748,45.583 171.781,45.338 171.488,45.216C171.209,45.103 171,45.282 170.801,45.451C170.763,45.484 170.724,45.517 170.686,45.547L170.685,45.548C168.896,46.996 167.107,48.444 165.331,49.904C161.432,53.157 157.533,56.409 153.411,59.846ZM139.195,87.67C139.099,87.757 139,87.847 138.897,87.94L138.863,87.97C138.817,88.011 138.77,88.052 138.725,88.092L138.723,88.095C137.912,88.815 137.249,89.404 137.64,90.649C138.195,92.453 139.08,94.889 140.573,95.858C143.83,97.982 147.437,98.561 151.003,97.113C156.013,95.076 159.357,90.006 158.715,84.14C158.641,83.44 158.283,83.109 157.629,82.839C156.559,82.403 155.471,82.469 154.385,82.534C153.944,82.562 153.503,82.588 153.064,82.581C152.868,82.578 152.653,82.551 152.433,82.525C150.42,82.355 145.36,83.275 142.909,85.158C142.215,85.691 140.114,86.836 139.195,87.67ZM67.089,55.065C68.771,56.467 70.476,57.888 72.221,59.338C70.271,59.461 68.556,59.583 66.841,59.706C63.623,59.907 60.479,60.553 57.337,61.198C56.828,61.303 56.319,61.408 55.81,61.51C54.825,61.711 54.348,61.848 54.116,61.669C53.894,61.498 53.897,61.039 53.897,60.074C53.897,55.228 53.91,50.382 53.922,45.536L53.922,45.53C53.922,45.462 53.914,45.39 53.905,45.318C53.876,45.081 53.847,44.842 54.132,44.72C54.415,44.599 54.615,44.775 54.807,44.944C54.85,44.981 54.892,45.018 54.934,45.052C55.306,45.352 55.677,45.653 56.049,45.953C57.466,47.098 58.881,48.242 60.289,49.409C62.545,51.277 64.796,53.154 67.089,55.065Z" style="fill:rgb(224,126,60);"/>
    </g>
</svg>
