<svg width="225" height="157" viewBox="0 0 225 157" fill="none" xmlns="http://www.w3.org/2000/svg">
<path fill-rule="evenodd" clip-rule="evenodd" d="M126.525 97.7713C127.697 94.8993 128.907 92.1131 130.474 89.4987C133.854 83.8651 138.432 79.6432 144.91 77.839C149.068 76.6728 153.3 76.7712 157.57 77.2005C166.244 78.0844 174.277 81.0298 182.124 84.5649C182.275 84.6341 182.447 84.6974 182.623 84.762C183.227 84.9833 183.879 85.2221 183.889 85.7923C183.889 86.3558 183.247 86.6809 182.655 86.9805L182.654 86.9809C182.499 87.0597 182.346 87.1368 182.211 87.216C181.93 87.3827 181.651 87.5532 181.371 87.724C180.335 88.3575 179.296 88.9927 178.188 89.4374C176.609 90.0755 175.807 91.1558 175.572 92.7391C175.029 96.4334 173.03 99.4896 170.995 102.46C165.849 109.947 158.816 114.782 149.759 116.39C143.997 117.421 138.309 116.992 132.867 114.672L132.759 114.625C131.651 114.151 131.099 113.915 130.756 114.088C130.415 114.261 130.28 114.84 130.013 115.996V115.996L129.967 116.194C128.795 121.25 126.661 125.792 122.725 129.376C119.307 132.481 115.914 135.598 112.582 138.777C111.718 139.612 111.138 139.452 110.398 138.777C109.787 138.216 109.17 137.658 108.553 137.101L108.552 137.1L108.552 137.1L108.551 137.1C107.685 136.317 106.818 135.535 105.968 134.739C105.378 134.179 104.782 133.624 104.186 133.068C102.354 131.361 100.522 129.654 98.8366 127.792C95.4557 124.061 93.7282 119.68 93.3456 114.733C93.2841 113.923 93.062 113.776 92.3091 114.107C90.0758 115.077 87.7806 115.862 85.3625 116.304C77.1938 117.789 69.5686 116.525 62.5353 112.021C54.8606 107.099 50.0116 100.115 47.4327 91.4992C47.198 90.7015 46.766 90.2351 46.0382 89.8425C45.5673 89.5858 45.093 89.3328 44.6174 89.0798L44.6162 89.079L44.6149 89.0782C42.7504 88.0846 40.8653 87.0801 39.0668 85.7798C40.5968 84.8225 42.0528 84.0739 43.5704 83.4846C49.3822 81.2019 55.2306 79.0172 61.3755 77.8019C66.5824 76.7833 71.8391 76.3294 77.0828 77.5076C84.6838 79.2135 90.0142 83.853 93.6046 90.579C93.7395 90.8303 93.8753 91.0816 94.011 91.3329C95.0945 93.3384 96.1839 95.354 96.7759 97.6116C97.1489 96.3434 97.1128 95.0751 97.0772 93.8211V93.8207C97.0705 93.5823 97.0634 93.3443 97.0596 93.1071C96.887 84.577 93.654 77.6547 86.1892 73.0398C82.8084 70.9534 79.0571 69.9469 75.1211 69.6647C68.1247 69.1492 61.3261 70.4378 54.5396 71.8615C53.6472 72.0499 52.7593 72.2637 51.8715 72.4771C49.9244 72.9456 47.9765 73.4145 45.9767 73.6166C43.5951 73.85 41.9912 72.5859 41.8183 70.2049C41.7166 68.8333 41.7397 67.4554 41.7628 66.0754C41.7705 65.6149 41.7782 65.1544 41.7813 64.6938C41.9166 63.0626 42.0494 61.4709 42.1797 59.9076C42.9725 50.3963 43.6768 41.9458 44.3233 32.1689C44.3233 31.2115 41.4852 28.3656 40.6832 28.0342C38.9331 27.2954 37.1928 26.8596 35.4473 26.4225C33.7714 26.0028 32.0908 25.582 30.3925 24.8906C29.3807 24.4856 29.0599 24.1419 29.5658 23.0619L29.6455 22.8887C30.1044 21.8902 30.3368 21.3846 30.7108 21.2389C31.0946 21.0894 31.6276 21.3187 32.7072 21.7833L32.7122 21.7854C32.9944 21.9063 33.2767 22.0309 33.5593 22.1556C34.1663 22.4236 34.7752 22.6924 35.3898 22.9269C35.5043 22.9711 35.6294 23.0431 35.7578 23.117C36.1276 23.3298 36.5244 23.5582 36.7717 23.1846C37.0638 22.7489 36.6809 22.4743 36.3219 22.2168C36.1955 22.1262 36.072 22.0377 35.982 21.945C35.0072 20.8895 34.0078 19.8585 32.9343 18.9011C32.2434 18.2997 32.3544 17.9438 32.9467 17.3547L33.0182 17.283C34.8234 15.4749 34.8824 15.4159 36.6607 17.3301C37.543 18.2708 38.3564 19.1499 39.1299 19.9859C42.5753 23.7095 45.2292 26.5776 49.6525 30.216C53.3359 33.2476 57.7072 36.5373 62.0782 39.8269C66.4496 43.1165 70.8209 46.4061 74.5043 49.4377C76.1287 50.7723 77.7591 52.1009 79.3894 53.43C84.9419 57.9558 90.4969 62.4841 95.8382 67.2466C102.008 72.733 105.833 79.7044 106.61 88.0258C107.325 95.7337 107.301 103.429 105.574 111.039C104.821 114.365 103.649 117.569 101.971 120.821H104.241C105.965 120.821 107.69 120.819 109.414 120.818H109.436C112.898 120.816 116.358 120.813 119.813 120.821C120.639 120.821 121.133 120.796 120.615 119.753C117.283 113.039 116.592 105.786 116.395 98.446C116.247 92.9108 116.469 87.4244 118.06 82.0609C119.813 76.1452 121.492 72.8947 126.106 68.967C133.779 62.4203 143.062 54.7396 151.103 48.0857C151.881 47.4418 152.647 46.8079 153.399 46.1852C156.044 43.9984 158.684 41.8053 161.324 39.6126L161.326 39.6108C166.924 34.9611 172.521 30.312 178.163 25.7252C180.996 23.4291 183.551 20.8557 186.107 18.28C187.158 17.221 188.209 16.1615 189.281 15.1209C189.996 14.4213 190.366 14.3967 191.07 15.1209L191.178 15.2328C191.998 16.0827 192.409 16.5086 192.406 16.9309C192.402 17.3552 191.979 17.7757 191.131 18.6188C190.07 19.6744 189 20.7203 187.807 21.8849L187.343 22.3377C188.341 22.3377 189.091 21.9744 189.805 21.6284C190.125 21.4736 190.437 21.3223 190.761 21.2086C191.115 21.0858 191.458 20.9303 191.801 20.7749C191.972 20.6972 192.143 20.6194 192.316 20.5458L192.338 20.5362C193.399 20.077 193.929 19.848 194.31 19.9958C194.69 20.1429 194.924 20.6629 195.39 21.7001L195.45 21.8345C195.919 22.8778 195.66 23.246 194.636 23.6633C192.325 24.6044 190.037 25.5889 187.749 26.573L187.749 26.5732C186.188 27.2445 184.628 27.9157 183.062 28.5727C182.087 28.9777 181.717 29.5055 181.717 30.6101C181.754 43.2857 181.742 55.9611 181.729 68.649V68.6582C181.729 68.8066 181.731 68.9558 181.733 69.1054C181.748 70.2324 181.764 71.3827 180.915 72.3033C179.483 73.8621 177.633 73.8867 175.782 73.4449C170.513 72.1808 165.207 71.0147 159.865 70.1924C153.017 69.1371 146.144 68.9775 139.616 71.8861C133.645 74.5373 129.709 79.0784 127.648 85.2521C126.29 89.3145 126.167 93.5122 126.525 97.7713ZM75.1952 89.7196C74.7385 88.1242 74.7138 86.5287 75.1579 84.9083C75.442 83.8776 75.0469 83.2024 73.924 83.092C73.6718 83.0682 73.4124 83.0278 73.1476 82.9866C72.7261 82.9211 72.2903 82.8532 71.8466 82.8469C71.5856 82.8432 71.3363 82.8374 71.0916 82.8315C70.5264 82.8178 69.9863 82.8048 69.3834 82.8219L69.2078 82.8273C68.1854 82.8578 67.774 82.8703 67.544 83.0795C67.3894 83.2208 67.3169 83.4508 67.1958 83.8359C67.1099 84.1081 66.9997 84.4578 66.8187 84.9083C65.5357 89.0569 68.5814 96.323 73.5788 97.7467C78.4525 99.1337 82.7836 98.6303 86.4976 94.9972C88.262 93.2668 88.3114 92.2481 86.7318 90.4314C86.1377 89.7537 85.5188 89.0944 84.8929 88.4272L84.8924 88.4267L84.8912 88.4255L84.8908 88.4247L84.8853 88.4192C84.6297 88.1467 84.3729 87.8733 84.116 87.5965C81.0947 91.6097 80.5253 90.8478 79.0931 88.9319C78.6247 88.3046 78.0632 87.554 77.2935 86.8063C77.3053 86.6963 76.8381 87.394 76.342 88.1358L76.3416 88.1362C75.7868 88.9652 75.1952 89.8492 75.1952 89.7196ZM133.632 94.7271C132.468 96.4101 131.833 98.2122 131.204 99.9994C131.053 100.428 130.903 100.856 130.745 101.281C130.696 101.416 130.642 101.556 130.587 101.698L130.586 101.699C130.295 102.452 129.972 103.287 130.189 103.896C130.382 104.453 131.001 104.499 131.644 104.546C131.992 104.572 132.346 104.598 132.645 104.706C135.927 105.884 139.259 106.768 142.787 106.903C148.772 107.136 154.102 105.7 158.631 101.601C162.913 97.7221 165.183 92.825 166.478 87.351C166.651 86.6392 166.367 86.3074 165.75 86.0744C165.367 85.929 164.98 85.7869 164.593 85.6443L164.592 85.6439L164.591 85.6435L164.59 85.6431C163.51 85.2459 162.426 84.847 161.382 84.3686C160.087 83.7672 159.976 84.2823 160.013 85.4118C160.136 88.9098 159.396 92.1377 157.286 95.0589C152.572 101.551 143.565 103.122 137.149 98.4585C136.303 97.8346 135.641 97.0407 134.97 96.2346V96.2342H134.97C134.545 95.7237 134.115 95.2081 133.632 94.7271ZM81.0808 106.854C83.2789 107.045 85.5854 106.381 87.9733 105.692C89.097 105.368 90.2392 105.039 91.3961 104.791C93.6666 104.301 93.6046 104.117 92.7532 101.919C92.4142 101.055 92.0908 100.184 91.7669 99.3133V99.3125L91.7665 99.3121L91.766 99.3117C91.4422 98.4402 91.1183 97.5687 90.7793 96.7035C90.0758 94.9239 89.9153 94.9114 88.6693 96.3842C83.3635 102.656 72.9125 102.68 67.4338 96.5314C64.5343 93.2668 63.0783 89.5725 63.3251 85.2155C63.3264 85.188 63.3276 85.16 63.3289 85.1325C63.3549 84.6178 63.3808 84.0981 62.5848 84.3194C60.7956 84.835 59.0065 85.3747 57.2422 85.9515C56.8596 86.0745 56.7607 86.3078 56.8596 86.8722C57.6 90.7386 58.9571 94.2854 61.3014 97.5012C66.0519 104.055 72.357 107.295 81.0808 106.854ZM153.411 59.8459C155.207 59.9701 156.804 60.0739 158.375 60.1756L158.779 60.2018C162.035 60.4156 165.217 61.0671 168.396 61.7181C168.868 61.8143 169.339 61.911 169.81 62.006C169.945 62.0336 170.071 62.0602 170.189 62.0848C170.921 62.2386 171.304 62.319 171.504 62.1648C171.722 61.996 171.722 61.5472 171.722 60.6073V60.5698C171.722 55.7219 171.71 50.874 171.698 46.0256C171.698 45.9597 171.707 45.8889 171.717 45.8172C171.748 45.5826 171.781 45.3379 171.488 45.2158C171.209 45.1029 171 45.2817 170.801 45.4509C170.763 45.4842 170.724 45.5171 170.686 45.5471L170.685 45.5476C168.896 46.9959 167.107 48.4437 165.331 49.9041C161.432 53.1566 157.533 56.4092 153.411 59.8459ZM139.195 87.6695C139.099 87.7566 139 87.8466 138.897 87.9395L138.863 87.9699C138.817 88.0112 138.771 88.052 138.725 88.0921L138.723 88.0946C137.912 88.8148 137.249 89.4037 137.64 90.6486C138.195 92.4528 139.08 94.8889 140.573 95.8583C143.83 97.9817 147.437 98.5611 151.003 97.1128C156.013 95.0756 159.357 90.0063 158.715 84.1398C158.641 83.44 158.284 83.1087 157.629 82.8386C156.559 82.4026 155.471 82.4685 154.385 82.5344C153.944 82.5614 153.503 82.5881 153.064 82.581C152.868 82.5777 152.653 82.5514 152.433 82.5248C151.807 82.4485 151.154 82.3689 150.88 82.814C150.635 83.2116 150.962 83.4463 151.321 83.7034C151.594 83.8989 151.884 84.1073 151.953 84.4098C151.961 84.4399 151.978 84.4657 151.996 84.4924C152.007 84.5086 152.018 84.5257 152.027 84.5449C152.225 84.3853 152.565 86.6834 152.503 87.0147C152.343 87.837 151.411 89.7242 150.596 89.9817C148.548 91.8105 147.401 91.8597 145.105 90.1168C145.069 89.154 144.538 88.433 144.007 87.7124C143.448 86.9543 142.89 86.1966 142.909 85.1584C140.787 86.2249 140.114 86.8355 139.195 87.6695ZM67.0885 55.0646C68.7712 56.4671 70.4761 57.8883 72.2208 59.3378C70.2712 59.4608 68.5558 59.5833 66.8409 59.7059C63.6234 59.9067 60.4793 60.5527 57.3373 61.1983C56.8282 61.3029 56.3191 61.4076 55.81 61.5101C54.8254 61.711 54.3477 61.8477 54.116 61.6689C53.8944 61.4984 53.8973 61.0395 53.8973 60.0743C53.8973 55.228 53.9099 50.3817 53.922 45.5359V45.5301C53.922 45.4617 53.9137 45.39 53.9049 45.3183C53.8764 45.0812 53.8475 44.8424 54.132 44.7198C54.4148 44.5994 54.6151 44.7753 54.8074 44.9441C54.8497 44.9812 54.8916 45.0183 54.9339 45.0516C55.3056 45.3521 55.6772 45.6526 56.0489 45.9527C57.4659 47.098 58.8813 48.2416 60.2891 49.4086C62.5445 51.277 64.7962 53.1537 67.0885 55.0646Z" fill="#E07E3C"/>
<path d="M147.894 91.5991C151.018 91.5991 153.551 89.0801 153.551 85.9727C153.551 82.8653 151.018 80.3462 147.894 80.3462C144.77 80.3462 142.238 82.8653 142.238 85.9727C142.238 89.0801 144.77 91.5991 147.894 91.5991Z" fill="#E07E3C"/>
<path d="M77.922 91.5991C81.0459 91.5991 83.5784 89.0801 83.5784 85.9727C83.5784 82.8653 81.0459 80.3462 77.922 80.3462C74.798 80.3462 72.2656 82.8653 72.2656 85.9727C72.2656 89.0801 74.798 91.5991 77.922 91.5991Z" fill="#E07E3C"/>
</svg>
