<svg width="368" height="137" viewBox="0 0 368 137" fill="none" xmlns="http://www.w3.org/2000/svg">
<path fill-rule="evenodd" clip-rule="evenodd" d="M135.903 78.4489C135.903 81.8266 133.15 84.5647 129.754 84.5647C128.339 84.5647 127.036 84.089 125.996 83.2896C125.88 83.3879 125.765 83.4868 125.649 83.5857C125.101 84.0544 124.553 84.5234 123.944 84.9193C121.751 86.3032 120.641 85.954 119.502 83.6748C119.132 82.9337 118.975 82.1645 118.89 81.3536C118.043 82.1147 118.414 83.1718 118.841 84.3905C118.924 84.6269 119.009 84.8693 119.088 85.1168C119.288 85.759 119.378 86.3396 119.461 86.8681C119.642 88.031 119.784 88.9417 120.968 89.7013C124.741 92.134 129.083 92.5816 133.197 90.9317C138.962 88.6245 142.834 82.8359 142.094 76.152C142.009 75.3552 141.596 74.9774 140.842 74.6698C139.609 74.1638 138.355 74.2422 137.105 74.3204C136.593 74.3524 136.083 74.3844 135.574 74.3762C135.349 74.3726 135.099 74.3426 134.846 74.3121C134.638 74.287 134.427 74.2616 134.225 74.2504C135.265 75.3458 135.903 76.8233 135.903 78.4489Z" fill="#EBB189"/>
<path fill-rule="evenodd" clip-rule="evenodd" d="M48.3769 75.3829C47.8508 76.2843 47.5496 77.3317 47.5496 78.449C47.5496 81.0094 49.1314 83.2023 51.3759 84.1136C51.3626 84.1325 51.3493 84.1515 51.336 84.1704C50.7219 85.044 50.1081 85.9172 49.4401 86.638C47.0446 89.1736 42.871 85.9689 41.6268 81.7944C41.2224 80.4371 41.0511 79.0283 40.9578 77.5433C41.6268 75.1355 43.4467 72.6258 46.3865 70.1672C46.3678 71.8682 47.2773 73.6236 48.3769 75.3829Z" fill="#FEFEFE"/>
<path fill-rule="evenodd" clip-rule="evenodd" d="M58.3495 82.4482C57.2221 83.7445 55.5563 84.5647 53.6978 84.5647C52.1662 84.5647 50.7654 84.0076 49.689 83.086C49.8188 83.551 49.813 84.1939 49.3194 85.1332C46.8664 86.6033 46.3491 86.3962 44.1339 84.5647C42.4779 82.7721 41.0451 80.9406 42.0844 75.2778C38.8964 83.2056 43.4985 90.0557 48.9436 91.6168C54.228 93.124 58.949 92.5772 62.9859 88.6283C64.9037 86.7473 65.4343 85.1803 63.7173 83.2056C63.3957 82.8386 63.0529 82.4373 62.7014 82.0259C62.0564 81.2708 61.3823 80.4816 60.757 79.808C59.9312 80.9049 59.1296 81.7772 58.3495 82.4482Z" fill="#EBB189"/>
<path fill-rule="evenodd" clip-rule="evenodd" d="M123.728 77.2335C123.648 77.6264 123.606 78.0328 123.606 78.449C123.606 80.5939 124.716 82.4808 126.396 83.5725C126.349 83.6119 126.302 83.6513 126.255 83.6907C125.64 84.2048 125.026 84.7185 124.358 85.1427C121.962 86.6345 120.749 86.2576 119.505 83.8022C119.101 83.0035 118.929 82.175 118.836 81.3011C119.463 79.9733 121.102 78.5926 123.728 77.2335Z" fill="#FEFEFE"/>
<path fill-rule="evenodd" clip-rule="evenodd" d="M49.0795 74.4116C48.1271 75.4887 47.5494 76.9018 47.5494 78.449C47.5494 78.5819 47.5537 78.7138 47.5621 78.8446C47.3551 78.3993 47.2534 77.9093 47.2034 77.3857C47.1284 76.6792 46.9872 75.9789 46.8456 75.2766C46.7739 74.921 46.702 74.5649 46.6387 74.2073C47.3178 74.0666 47.9502 74.1922 48.581 74.3176C48.747 74.3506 48.9129 74.3835 49.0795 74.4116Z" fill="#EBB189"/>
<path fill-rule="evenodd" clip-rule="evenodd" d="M106.527 91.2734C107.801 88.1516 109.116 85.1232 110.819 82.2814C114.494 76.158 119.469 71.5689 126.511 69.6078C131.03 68.3403 135.631 68.4472 140.271 68.9138C149.7 69.8746 158.431 73.0761 166.961 76.9186C167.125 76.9938 167.312 77.0627 167.503 77.1329C168.159 77.3734 168.868 77.633 168.879 78.2527C168.879 78.8652 168.181 79.2186 167.538 79.5443C167.369 79.6299 167.202 79.7142 167.055 79.8003C166.75 79.9815 166.446 80.1667 166.143 80.3525C165.016 81.0411 163.887 81.7315 162.682 82.2148C160.966 82.9084 160.094 84.0826 159.839 85.8036C159.249 89.8192 157.076 93.1412 154.863 96.3694C149.27 104.507 141.626 109.764 131.781 111.511C125.518 112.632 119.336 112.165 113.421 109.644L113.303 109.593C112.099 109.078 111.499 108.821 111.126 109.009C110.755 109.197 110.609 109.827 110.318 111.083L110.269 111.298C108.995 116.794 106.675 121.73 102.396 125.626C98.6809 129.001 94.9929 132.39 91.3717 135.845C90.4326 136.752 89.8023 136.579 88.9976 135.845C88.3336 135.235 87.6627 134.629 86.9919 134.023L86.991 134.022C86.0491 133.172 85.1069 132.32 84.1828 131.456C83.5411 130.847 82.893 130.243 82.2454 129.64C80.2543 127.784 78.2627 125.928 76.4309 123.905C72.7561 119.849 70.8784 115.087 70.4625 109.71C70.3956 108.83 70.1542 108.67 69.3358 109.03C66.9084 110.084 64.4135 110.938 61.7853 111.418C52.9062 113.032 44.6179 111.658 36.9731 106.762C28.631 101.412 23.3603 93.8211 20.5571 84.4559C20.3021 83.5888 19.8325 83.0819 19.0415 82.6552C18.5296 82.3761 18.014 82.1011 17.4971 81.8261L17.4957 81.8252L17.4944 81.8243C15.4677 80.7443 13.4186 79.6526 11.4638 78.2392C13.1269 77.1986 14.7094 76.385 16.359 75.7444C22.6762 73.2632 29.0331 70.8885 35.7124 69.5675C41.372 68.4603 47.0858 67.967 52.7855 69.2477C61.0475 71.1019 66.8414 76.1449 70.744 83.4557C70.8907 83.7288 71.0382 84.002 71.1858 84.2752C72.3635 86.4551 73.5476 88.6459 74.1911 91.0999C74.5965 89.7213 74.5573 88.3428 74.5186 86.9797C74.5113 86.7205 74.5036 86.4614 74.4995 86.2037C74.3118 76.9317 70.7977 69.4076 62.6838 64.3913C59.009 62.1235 54.9315 61.0295 50.6532 60.7228C43.0485 60.1624 35.6587 61.5631 28.2821 63.1106C27.312 63.3154 26.347 63.5478 25.3819 63.7797C23.2656 64.2889 21.1483 64.7986 18.9745 65.0183C16.3859 65.272 14.6425 63.898 14.4546 61.3099C14.344 59.819 14.3691 58.3213 14.3942 56.8214C14.4026 56.3208 14.411 55.8202 14.4144 55.3196C14.5614 53.5465 14.7058 51.8165 14.8474 50.1172C15.7091 39.7789 16.4747 30.5935 17.1774 19.9664C17.1774 18.9258 14.0925 15.8325 13.2207 15.4723C11.3185 14.6692 9.42681 14.1954 7.52954 13.7204C5.70797 13.2642 3.88124 12.8068 2.03525 12.0553C0.935485 11.615 0.58676 11.2415 1.13664 10.0675L1.22322 9.87926C1.72205 8.79397 1.97464 8.24437 2.38124 8.08599C2.79841 7.92349 3.37768 8.17274 4.55122 8.67772L4.55664 8.68008C4.86342 8.81145 5.1702 8.94686 5.47738 9.08245C6.13721 9.37374 6.79899 9.66589 7.46706 9.92076C7.59148 9.96887 7.72748 10.0471 7.86702 10.1274C8.26898 10.3587 8.70036 10.6069 8.96915 10.2009C9.28659 9.72732 8.87042 9.42887 8.48021 9.149C8.3428 9.05047 8.20859 8.95424 8.11081 8.85349C7.05125 7.70618 5.96492 6.58555 4.79807 5.54497C4.04702 4.89127 4.1677 4.50439 4.8115 3.864L4.88924 3.78613C6.85146 1.8208 6.91554 1.75661 8.84847 3.83732C9.80751 4.85978 10.6917 5.81538 11.5324 6.72409C15.2773 10.7715 18.162 13.889 22.97 17.8438C26.9737 21.139 31.7252 24.7147 36.4762 28.2904C41.2277 31.866 45.9792 35.4417 49.9828 38.7369C51.7485 40.1875 53.5206 41.6317 55.2927 43.0764C61.328 47.9957 67.3661 52.9177 73.1719 58.0944C79.8776 64.0579 84.0352 71.6355 84.8801 80.6805C85.6579 89.0586 85.6315 97.4235 83.7538 105.695C82.9354 109.31 81.6615 112.792 79.8375 116.328H82.3051C84.1796 116.328 86.0542 116.326 87.9278 116.324H87.9524C91.7151 116.322 95.4761 116.318 99.2311 116.328C100.13 116.328 100.666 116.301 100.103 115.167C96.4816 107.869 95.7306 99.9849 95.5157 92.0068C95.3549 85.9903 95.5963 80.0268 97.3265 74.1969C99.2311 67.7667 101.056 64.2337 106.072 59.9644C114.412 52.8484 124.502 44.4998 133.242 37.2673C134.088 36.5674 134.921 35.8784 135.738 35.2016C138.613 32.8246 141.483 30.4408 144.352 28.0574L144.354 28.0555C150.439 23.0014 156.523 17.948 162.655 12.9625C165.735 10.4667 168.511 7.66949 171.29 4.86984C172.432 3.71868 173.575 2.56715 174.74 1.43597C175.518 0.675531 175.92 0.648848 176.684 1.43597L176.802 1.55765C177.694 2.4814 178.14 2.94438 178.136 3.40338C178.132 3.86455 177.673 4.32169 176.751 5.2381C175.598 6.38545 174.434 7.5223 173.138 8.78817L172.634 9.28037C173.718 9.28037 174.533 8.88543 175.31 8.50934C175.657 8.34113 175.997 8.17668 176.349 8.05306C176.734 7.91964 177.106 7.75062 177.479 7.58165C177.665 7.49716 177.851 7.41267 178.039 7.33262L178.063 7.32216C179.217 6.82302 179.792 6.57414 180.207 6.73482C180.619 6.89469 180.873 7.45988 181.38 8.58735L181.445 8.7334C181.955 9.86739 181.674 10.2676 180.561 10.7212C178.049 11.7442 175.561 12.8143 173.075 13.884C171.379 14.6137 169.683 15.3434 167.98 16.0576C166.921 16.4978 166.518 17.0715 166.518 18.2721C166.558 32.0499 166.545 45.8276 166.532 59.6188V59.6287C166.532 59.79 166.534 59.9522 166.536 60.1148C166.553 61.3398 166.57 62.5901 165.646 63.5908C164.09 65.2851 162.079 65.3118 160.067 64.8316C154.34 63.4576 148.573 62.1901 142.766 61.2963C135.322 60.1493 127.852 59.9758 120.757 63.1374C114.266 66.019 109.987 70.9551 107.748 77.6656C106.272 82.0812 106.138 86.644 106.527 91.2734ZM49.4999 75.203C49.2257 75.1772 48.796 75.2479 48.5082 75.203C48.05 75.1319 47.5763 75.0581 47.094 75.0513C46.8103 75.0472 46.5393 75.0408 46.2734 75.0345C45.659 75.0196 45.0719 75.0055 44.4166 75.0241L44.2258 75.03C43.1145 75.063 42.6673 75.0766 42.4173 75.3041C42.2492 75.4576 42.1704 75.7077 42.0388 76.1263C41.9454 76.4221 41.8256 76.8022 41.6289 77.2919C40.2344 81.8012 43.5449 89.6991 48.9768 91.2467C54.2743 92.7543 58.9821 92.207 63.019 88.2581C64.9368 86.3772 64.9906 85.27 63.2736 83.2953C62.6278 82.5587 61.9551 81.842 61.2747 81.1167L61.2729 81.1149L61.2725 81.114L61.2665 81.1081C60.9887 80.8118 60.7095 80.5147 60.4304 80.2139C58.4999 78.0165 55.9999 76.5165 53.9999 76.0165C52.9152 75.7453 50.9178 75.203 49.4999 75.203ZM114.252 87.9645C112.987 89.7938 112.297 91.7527 111.613 93.6952C111.449 94.1614 111.285 94.6266 111.114 95.0887C111.06 95.235 111.002 95.3868 110.942 95.5417C110.625 96.3608 110.273 97.2686 110.51 97.9305C110.719 98.5366 111.392 98.5864 112.091 98.6376C112.469 98.6657 112.855 98.6938 113.179 98.8107C116.747 100.091 120.368 101.052 124.204 101.199C130.708 101.452 136.502 99.8916 141.425 95.4357C146.079 91.2199 148.546 85.897 149.954 79.947C150.143 79.1733 149.834 78.8127 149.163 78.5594C148.746 78.4013 148.326 78.2469 147.905 78.0919L147.905 78.0915L147.903 78.091L147.902 78.0906C146.728 77.6588 145.55 77.2253 144.415 76.7052C143.007 76.0515 142.887 76.6115 142.927 77.8391C143.061 81.6413 142.256 85.1499 139.963 88.3251C134.839 95.3822 125.049 97.0897 118.074 92.0204C117.155 91.3422 116.436 90.4792 115.707 89.6031C115.245 89.0481 114.778 88.4873 114.252 87.9645ZM57.1312 101.146C59.5204 101.354 62.0276 100.631 64.623 99.883C65.8445 99.531 67.086 99.1731 68.3434 98.904C70.8114 98.3708 70.744 98.1706 69.8186 95.7823C69.4501 94.8427 69.0985 93.8959 68.7465 92.9495L68.746 92.9482C68.394 92.0009 68.0415 91.0532 67.673 90.1127C66.9084 88.1784 66.734 88.1648 65.3795 89.7657C59.6124 96.5827 48.2527 96.6095 42.2975 89.9257C39.1459 86.3772 37.5633 82.3616 37.8315 77.6258C37.8329 77.5959 37.8343 77.5655 37.8356 77.5356C37.8639 76.9761 37.8921 76.4112 37.0268 76.6518C35.0821 77.2122 33.1374 77.7988 31.2196 78.4258C30.8038 78.5594 30.6963 78.8131 30.8038 79.4265C31.6086 83.6292 33.0837 87.4843 35.6318 90.9798C40.7955 98.104 47.6488 101.626 57.1312 101.146ZM135.751 50.0501C137.703 50.1851 139.439 50.2979 141.147 50.4085L141.585 50.437C145.125 50.6694 148.583 51.3775 152.039 52.0851C152.552 52.1897 153.064 52.2948 153.576 52.3981C153.723 52.428 153.86 52.457 153.988 52.4837C154.784 52.6509 155.2 52.7383 155.417 52.5707C155.655 52.3873 155.655 51.8994 155.655 50.8778V50.837C155.655 45.5675 155.641 40.298 155.628 35.0281C155.628 34.9565 155.638 34.8795 155.649 34.8016C155.683 34.5465 155.718 34.2806 155.4 34.1479C155.097 34.0251 154.869 34.2194 154.654 34.4034C154.612 34.4396 154.57 34.4754 154.528 34.508L154.527 34.5085C152.583 36.0827 150.638 37.6565 148.707 39.2439C144.469 42.7792 140.231 46.3146 135.751 50.0501ZM120.299 80.2931C120.194 80.3878 120.087 80.4857 119.974 80.5867L119.938 80.6198C119.887 80.6646 119.837 80.709 119.788 80.7525L119.785 80.7552C118.904 81.538 118.184 82.1781 118.608 83.5313C119.212 85.4924 120.173 88.1403 121.796 89.194C125.337 91.5021 129.258 92.1318 133.134 90.5576C138.579 88.3433 142.214 82.8332 141.516 76.4565C141.436 75.6959 141.047 75.3358 140.336 75.0422C139.173 74.5683 137.99 74.6399 136.81 74.7115C136.33 74.741 135.851 74.7699 135.374 74.7622C135.161 74.7586 134.927 74.7301 134.688 74.7011C132.5 74.5165 127 75.5165 124.336 77.5637C123.582 78.1429 121.298 79.3866 120.299 80.2931ZM41.9222 44.8531C43.7512 46.3775 45.6043 47.9223 47.5007 49.4979C45.3816 49.6315 43.5171 49.7647 41.653 49.8979C38.1558 50.1163 34.7383 50.8185 31.323 51.5202C30.7697 51.6339 30.2163 51.7476 29.663 51.859C28.5927 52.0774 28.0735 52.226 27.8217 52.0316C27.5807 51.8464 27.5839 51.3476 27.5839 50.2984C27.5839 45.0307 27.5976 39.763 27.6108 34.4958V34.4894C27.6108 34.4151 27.6017 34.3372 27.5921 34.2593C27.5612 34.0015 27.5297 33.742 27.839 33.6088C28.1464 33.4779 28.3641 33.669 28.5731 33.8525C28.6191 33.8928 28.6647 33.9331 28.7107 33.9694C29.1146 34.296 29.5186 34.6226 29.9226 34.9488C31.4628 36.1937 33.0013 37.4368 34.5315 38.7052C36.9831 40.7361 39.4305 42.776 41.9222 44.8531Z" fill="#E07E3C"/>
<path d="M226.389 83.5493C226.389 87.0414 225.342 89.7839 223.246 91.777C221.151 93.753 218.076 94.741 214.022 94.741C209.968 94.741 206.885 93.753 204.772 91.777C202.677 89.7839 201.629 87.0414 201.629 83.5493V65.8929L201.936 65.5863H204.747C206.229 65.5863 207.361 65.961 208.145 66.7106C208.946 67.4601 209.346 68.7206 209.346 70.4922V83.4982C209.346 85.1165 209.695 86.3855 210.394 87.3054C211.109 88.2253 212.319 88.6852 214.022 88.6852C215.76 88.6852 216.969 88.2253 217.65 87.3054C218.332 86.3855 218.672 85.1165 218.672 83.4982V65.8673C219.32 65.7481 219.984 65.6714 220.666 65.6374C221.347 65.6033 221.935 65.5863 222.429 65.5863C222.906 65.5863 223.527 65.6118 224.294 65.6629C225.077 65.697 225.776 65.7822 226.389 65.9184V83.5493ZM255.227 87.4076C255.227 89.8947 254.827 91.6407 254.026 92.6457C253.226 93.6338 251.863 94.1278 249.938 94.1278H238.133C236.753 94.1278 235.655 93.7274 234.837 92.9268C234.019 92.1092 233.61 90.9849 233.61 89.554V59.1216L233.968 58.7639H236.83C238.346 58.7639 239.487 59.1557 240.254 59.9393C241.037 60.7229 241.429 61.9834 241.429 63.721V87.5865C243.082 87.4672 244.666 87.4076 246.182 87.4076H255.227ZM272.294 65.9184C272.874 65.7822 273.453 65.697 274.032 65.6629C274.628 65.6118 275.173 65.5863 275.667 65.5863C276.332 65.5863 276.97 65.6289 277.584 65.714C278.214 65.7822 278.768 65.8929 279.244 66.0462L279.577 66.4295L270.889 86.0023V94C270.276 94.1192 269.637 94.1959 268.973 94.23C268.308 94.264 267.721 94.2811 267.21 94.2811C266.75 94.2811 266.145 94.264 265.395 94.23C264.646 94.1959 263.964 94.1192 263.351 94V85.7978L254.715 66.5572C255.43 66.2166 256.205 65.944 257.04 65.7396C257.875 65.5352 258.633 65.433 259.314 65.433C260.37 65.433 261.23 65.6544 261.895 66.0973C262.559 66.5232 263.096 67.2727 263.504 68.3459L265.446 73.3029C265.889 74.4954 266.247 75.5089 266.52 76.3436C266.792 77.1613 267.031 78.0812 267.235 79.1032H267.542C268.189 76.7525 268.896 74.5805 269.663 72.5875L272.294 65.9184ZM293.495 80.7386C293.308 80.3638 293.027 79.7505 292.652 78.8988C292.277 78.0301 291.903 77.1613 291.528 76.2925C291.153 75.4238 290.88 74.7935 290.71 74.4017L290.506 74.4783C290.574 75.79 290.642 77.2039 290.71 78.72C290.778 80.236 290.829 81.6329 290.863 82.9105C290.915 84.171 290.94 85.0909 290.94 85.6701V94C290.31 94.1192 289.697 94.1959 289.1 94.23C288.504 94.264 287.959 94.2811 287.465 94.2811C286.988 94.2811 286.417 94.264 285.753 94.23C285.089 94.1959 284.45 94.1192 283.837 94V66.0462C284.45 65.9099 285.199 65.7992 286.085 65.714C286.971 65.6289 287.669 65.5863 288.18 65.5863C288.691 65.5863 289.398 65.6033 290.301 65.6374C291.221 65.6544 291.988 65.7311 292.601 65.8673L299.014 79.1032C299.168 79.3588 299.381 79.7931 299.653 80.4064C299.926 81.0196 300.224 81.6925 300.548 82.425C300.871 83.1575 301.169 83.8474 301.442 84.4947C301.731 85.125 301.944 85.5934 302.081 85.9L302.311 85.8489C302.243 84.7417 302.149 83.4641 302.03 82.0162C301.927 80.5512 301.834 79.1373 301.749 77.7745C301.68 76.3947 301.646 75.2875 301.646 74.4528V69.7768C301.646 68.0563 302.013 66.9235 302.745 66.3784C303.478 65.8162 304.585 65.5352 306.067 65.5352H308.622L308.903 65.8929V93.8722C308.273 94.0085 307.515 94.1107 306.629 94.1789C305.743 94.247 305.053 94.2811 304.559 94.2811C304.065 94.2811 303.333 94.264 302.362 94.23C301.391 94.2129 300.607 94.1363 300.011 94L293.495 80.7386ZM316.425 65.8673C317.039 65.7481 317.728 65.6714 318.495 65.6374C319.279 65.6033 319.9 65.5863 320.36 65.5863C320.871 65.5863 321.468 65.6033 322.149 65.6374C322.83 65.6714 323.495 65.7481 324.142 65.8673V76.4714H324.73C325.411 76.4714 325.854 76.3862 326.058 76.2159C326.28 76.0285 326.552 75.6537 326.876 75.0916L330.913 68.0904C331.373 67.2557 331.867 66.6254 332.395 66.1995C332.94 65.7737 333.809 65.5607 335.002 65.5607C335.274 65.5607 335.691 65.5778 336.254 65.6118C336.833 65.6289 337.429 65.6629 338.042 65.714C338.672 65.7651 339.201 65.8162 339.626 65.8673L340.061 66.3528L334.695 75.3216C333.86 76.7695 332.94 77.8853 331.935 78.6689C333.247 79.0095 334.226 79.5802 334.874 80.3808C335.521 81.1644 336.092 82.1354 336.586 83.2937L338.477 87.9186C338.988 89.1451 339.422 90.048 339.78 90.6271C340.137 91.2063 340.563 91.7003 341.057 92.1092C340.546 92.7735 339.822 93.3271 338.885 93.77C337.949 94.1959 336.986 94.4003 335.998 94.3833C334.686 94.3662 333.724 94.0511 333.111 93.4379C332.514 92.8246 331.986 91.9729 331.526 90.8827L329.303 85.389C328.895 84.401 328.452 83.7026 327.975 83.2937C327.515 82.8679 326.859 82.6379 326.007 82.6038C325.786 82.5868 325.513 82.5868 325.19 82.6038C324.866 82.6209 324.517 82.6379 324.142 82.6549V94C323.495 94.1192 322.83 94.1959 322.149 94.23C321.468 94.264 320.871 94.2811 320.36 94.2811C319.9 94.2811 319.279 94.264 318.495 94.23C317.728 94.1959 317.039 94.1192 316.425 94V65.8673ZM342.936 91.8536C342.936 91.2234 343.055 90.5335 343.294 89.7839C343.549 89.0344 343.89 88.336 344.316 87.6887C344.742 87.0243 345.21 86.5303 345.721 86.2067C346.965 86.8881 348.353 87.4757 349.886 87.9697C351.436 88.4638 352.97 88.7108 354.486 88.7108C355.508 88.7108 356.351 88.4978 357.015 88.072C357.697 87.6461 358.037 87.0414 358.037 86.2578C358.037 85.7467 357.841 85.2868 357.45 84.878C357.058 84.4521 356.385 84.0688 355.431 83.7281L351.138 82.0673C349.81 81.5733 348.583 80.977 347.459 80.2786C346.352 79.5632 345.449 78.6944 344.75 77.6723C344.069 76.6502 343.728 75.4323 343.728 74.0184C343.728 71.4121 344.733 69.2828 346.743 67.6304C348.754 65.9781 351.479 65.1434 354.92 65.1263C356.845 65.1263 358.761 65.3563 360.669 65.8162C362.577 66.2591 364.178 66.7702 365.473 67.3494C365.473 68.4396 365.243 69.5298 364.783 70.62C364.323 71.6932 363.701 72.5279 362.918 73.1241C361.657 72.5619 360.286 72.0935 358.804 71.7187C357.339 71.344 356.01 71.1651 354.818 71.1821C353.864 71.1821 353.123 71.3866 352.595 71.7954C352.084 72.2042 351.828 72.6982 351.828 73.2774C351.828 73.8225 352.067 74.2399 352.544 74.5294C353.038 74.802 353.659 75.0745 354.409 75.3471L358.676 76.9824C360.993 77.8171 362.841 78.9755 364.221 80.4575C365.601 81.9225 366.291 83.7281 366.291 85.8745C366.291 87.7653 365.78 89.3751 364.758 90.7038C363.752 92.0155 362.373 93.0205 360.618 93.7189C358.864 94.4003 356.871 94.741 354.639 94.741C351.999 94.741 349.656 94.4344 347.612 93.8211C345.585 93.2079 344.026 92.5521 342.936 91.8536Z" fill="#E07E3C"/>
</svg>
