<svg xmlns="http://www.w3.org/2000/svg" fill="none" viewBox="27.966 13.144 169.068 185.712" style="max-height:500px" width="169.068" height="185.712"><path fill="#4A1E00" d="M56.8882 186.308C56.8882 189.739 55.859 192.433 53.8007 194.391C51.7424 196.332 48.722 197.303 44.7393 197.303C40.7566 197.303 37.7277 196.332 35.6527 194.391C33.5944 192.433 32.5653 189.739 32.5653 186.308V168.964L32.8665 168.662H35.6276C37.0835 168.662 38.1963 169.031 38.966 169.767C39.7525 170.503 40.1458 171.741 40.1458 173.482V186.258C40.1458 187.848 40.4888 189.095 41.1749 189.998C41.8778 190.902 43.0659 191.354 44.7393 191.354C46.4461 191.354 47.6342 190.902 48.3036 189.998C48.973 189.095 49.3076 187.848 49.3076 186.258V168.939C49.9435 168.821 50.5962 168.746 51.2655 168.713C51.9349 168.679 52.5122 168.662 52.9975 168.662C53.466 168.662 54.0768 168.687 54.8299 168.738C55.5996 168.771 56.2857 168.855 56.8882 168.989V186.308ZM85.2174 190.099C85.2174 192.542 84.8241 194.257 84.0376 195.244C83.2511 196.215 81.9124 196.7 80.0215 196.7H68.4248C67.0694 196.7 65.99 196.307 65.1868 195.52C64.3835 194.717 63.9819 193.613 63.9819 192.207V162.312L64.3333 161.96H67.1447C68.634 161.96 69.7552 162.345 70.5082 163.115C71.278 163.885 71.6628 165.123 71.6628 166.83V190.274C73.286 190.157 74.8423 190.099 76.3316 190.099H85.2174ZM101.983 168.989C102.552 168.855 103.121 168.771 103.69 168.738C104.276 168.687 104.811 168.662 105.297 168.662C105.949 168.662 106.577 168.704 107.179 168.788C107.798 168.855 108.342 168.964 108.811 169.114L109.137 169.491L100.603 188.718V196.575C100 196.692 99.3728 196.767 98.7201 196.801C98.0675 196.834 97.4902 196.851 96.9882 196.851C96.5364 196.851 95.9423 196.834 95.206 196.801C94.4697 196.767 93.8003 196.692 93.1979 196.575V188.517L84.7138 169.616C85.4166 169.282 86.178 169.014 86.998 168.813C87.8179 168.612 88.5626 168.512 89.232 168.512C90.2695 168.512 91.1145 168.729 91.7672 169.164C92.4198 169.583 92.9469 170.319 93.3485 171.373L95.2562 176.243C95.6913 177.414 96.0427 178.41 96.3104 179.23C96.5782 180.033 96.8125 180.937 97.0133 181.941H97.3145C97.9504 179.632 98.6448 177.498 99.3979 175.54L101.983 168.989ZM122.81 183.547C122.626 183.179 122.35 182.577 121.982 181.74C121.614 180.887 121.245 180.033 120.877 179.18C120.509 178.326 120.241 177.707 120.074 177.322L119.873 177.398C119.94 178.686 120.007 180.075 120.074 181.564C120.141 183.054 120.191 184.426 120.225 185.681C120.275 186.919 120.3 187.823 120.3 188.392V196.575C119.681 196.692 119.078 196.767 118.493 196.801C117.907 196.834 117.371 196.851 116.886 196.851C116.418 196.851 115.857 196.834 115.204 196.801C114.552 196.767 113.924 196.692 113.322 196.575V169.114C113.924 168.98 114.661 168.872 115.531 168.788C116.401 168.704 117.087 168.662 117.589 168.662C118.091 168.662 118.786 168.679 119.672 168.713C120.576 168.729 121.329 168.805 121.932 168.939L128.232 181.941C128.382 182.192 128.592 182.619 128.859 183.221C129.127 183.823 129.42 184.484 129.738 185.204C130.056 185.924 130.349 186.601 130.616 187.237C130.901 187.856 131.11 188.316 131.244 188.618L131.47 188.567C131.403 187.48 131.311 186.225 131.194 184.802C131.093 183.363 131.001 181.974 130.918 180.636C130.851 179.28 130.817 178.192 130.817 177.372V172.779C130.817 171.089 131.177 169.976 131.897 169.441C132.616 168.888 133.704 168.612 135.16 168.612H137.67L137.946 168.964V196.449C137.327 196.583 136.582 196.683 135.712 196.75C134.842 196.817 134.164 196.851 133.679 196.851C133.193 196.851 132.474 196.834 131.52 196.801C130.566 196.784 129.796 196.709 129.211 196.575L122.81 183.547ZM145.335 168.939C145.938 168.821 146.616 168.746 147.369 168.713C148.138 168.679 148.749 168.662 149.201 168.662C149.703 168.662 150.289 168.679 150.958 168.713C151.627 168.746 152.28 168.821 152.916 168.939V179.355H153.493C154.163 179.355 154.598 179.272 154.799 179.104C155.016 178.92 155.284 178.552 155.602 178L159.568 171.122C160.02 170.302 160.505 169.683 161.024 169.265C161.559 168.846 162.412 168.637 163.584 168.637C163.852 168.637 164.262 168.654 164.814 168.687C165.383 168.704 165.968 168.738 166.571 168.788C167.19 168.838 167.709 168.888 168.127 168.939L168.554 169.415L163.283 178.226C162.463 179.648 161.559 180.744 160.572 181.514C161.86 181.849 162.822 182.409 163.458 183.196C164.094 183.966 164.655 184.919 165.14 186.057L166.998 190.601C167.5 191.806 167.926 192.692 168.278 193.261C168.629 193.83 169.048 194.316 169.533 194.717C169.031 195.37 168.32 195.914 167.399 196.349C166.479 196.767 165.533 196.968 164.563 196.951C163.274 196.934 162.329 196.625 161.726 196.022C161.141 195.42 160.622 194.583 160.17 193.512L157.986 188.116C157.585 187.145 157.15 186.459 156.681 186.057C156.229 185.639 155.585 185.413 154.748 185.38C154.531 185.363 154.263 185.363 153.945 185.38C153.627 185.396 153.284 185.413 152.916 185.43V196.575C152.28 196.692 151.627 196.767 150.958 196.801C150.289 196.834 149.703 196.851 149.201 196.851C148.749 196.851 148.138 196.834 147.369 196.801C146.616 196.767 145.938 196.692 145.335 196.575V168.939ZM171.379 194.466C171.379 193.847 171.496 193.169 171.73 192.433C171.981 191.697 172.316 191.011 172.734 190.375C173.152 189.722 173.612 189.237 174.115 188.919C175.336 189.588 176.7 190.166 178.206 190.651C179.729 191.136 181.235 191.379 182.724 191.379C183.728 191.379 184.557 191.17 185.209 190.751C185.879 190.333 186.213 189.739 186.213 188.969C186.213 188.467 186.021 188.015 185.636 187.614C185.251 187.195 184.59 186.819 183.653 186.484L179.436 184.853C178.131 184.367 176.926 183.782 175.821 183.095C174.734 182.393 173.847 181.539 173.161 180.535C172.491 179.531 172.157 178.335 172.157 176.946C172.157 174.385 173.144 172.294 175.119 170.67C177.093 169.047 179.771 168.227 183.151 168.211C185.042 168.211 186.924 168.436 188.799 168.888C190.673 169.323 192.246 169.825 193.518 170.394C193.518 171.465 193.292 172.536 192.84 173.607C192.388 174.662 191.777 175.482 191.007 176.067C189.769 175.515 188.422 175.055 186.966 174.687C185.527 174.318 184.222 174.143 183.05 174.16C182.113 174.16 181.385 174.36 180.867 174.762C180.365 175.164 180.114 175.649 180.114 176.218C180.114 176.753 180.348 177.163 180.816 177.448C181.302 177.715 181.913 177.983 182.649 178.251L186.841 179.857C189.117 180.677 190.932 181.815 192.288 183.271C193.643 184.71 194.321 186.484 194.321 188.593C194.321 190.45 193.819 192.031 192.815 193.337C191.827 194.625 190.472 195.613 188.748 196.299C187.025 196.968 185.067 197.303 182.875 197.303C180.281 197.303 177.98 197.001 175.972 196.399C173.981 195.797 172.449 195.152 171.379 194.466Z"/><path fill="#FEFEFE" d="M76.4665 90.9761C75.6508 92.0926 74.8781 93.328 74.0049 94.2781C71.801 96.63 67.9614 93.6574 66.8167 89.7852C66.4446 88.5262 66.2871 87.2194 66.2012 85.8419C66.8167 83.6085 68.491 81.2805 71.1956 79C71.1528 82.9197 76.3806 87.1513 76.4665 90.9761Z"/><path fill="#E07E3C" d="M144.801 90.8675C147.237 92.7093 148.455 92.6576 150.629 90.725C151.559 89.8951 146.081 89.817 147.404 89.3762C148.255 89.0908 148.79 88.9228 148.96 88.0668C149.025 87.7167 147.836 85.6964 147.626 85.8649C146.499 86.8116 152.488 85.6535 152.148 84.9791C152.122 84.9274 152.082 84.8883 152.069 84.8366C151.899 84.0975 150.472 83.8899 150.93 83.1503C151.323 82.5149 152.45 82.891 153.248 82.904C154.859 82.9301 156.496 82.5149 158.094 83.1763C158.788 83.4617 159.168 83.8121 159.246 84.5513C159.928 90.7511 156.365 96.1206 151.061 98.2607C147.276 99.7911 143.281 99.376 139.811 97.1194C138.226 96.0945 138.67 94.7734 138.081 92.8669C137.635 91.4533 136.969 90.2191 137.899 89.3762C137.977 90.1283 138.122 90.8419 138.462 91.5293C139.51 93.6434 140.531 93.9674 142.548 92.6837C143.36 92.1517 144.055 91.4772 144.801 90.8675Z"/><path fill="#E07E3C" d="M73.8939 89.8333C77.0154 92.8778 80.4063 93.3131 84.4165 87.9424C85.3052 88.9076 86.3012 90.1287 87.14 91.094C88.7196 92.9257 88.2315 94.3792 86.4671 96.1239C82.7531 99.7869 78.4098 100.294 73.5482 98.896C68.5387 97.448 64.3048 91.094 67.2378 83.7402C66.2816 88.9929 67.5998 90.6918 69.1232 92.3546C71.1612 94.0535 71.6372 94.2455 73.8939 92.882C74.9892 90.7809 73.4741 90.2787 73.8939 89.8333Z"/><path fill="#FEFEFE" d="M145.391 90.9488C144.575 91.6056 143.803 92.3321 142.929 92.891C140.726 94.2748 139.609 93.9252 138.465 91.6476C138.093 90.9068 137.935 90.1382 137.849 89.3276C138.465 88.014 140.139 86.6445 142.844 85.3032C142.801 87.6089 145.305 88.699 145.391 90.9488Z"/><path fill="#E07E3C" d="M75.9645 89.8335C75.3758 89.4415 74.8734 88.9603 74.198 88.6947C72.5187 88.0367 72.0683 86.974 71.9472 85.6957C71.8433 84.7086 71.6011 83.7345 71.4276 82.7475C72.3972 82.5449 73.2632 82.9374 74.1808 83.0004C75.7567 83.1143 76.3106 83.7976 75.9125 84.8733C75.2891 86.5437 75.341 88.1884 75.9645 89.8335Z"/><path fill="#4A1E00" fill-rule="evenodd" d="M126.525 98.5778C127.697 95.6821 128.907 92.873 130.474 90.237C133.854 84.557 138.432 80.3002 144.91 78.4811C149.068 77.3054 153.3 77.4045 157.57 77.8374C166.244 78.7286 174.277 81.6983 182.124 85.2625C182.275 85.3323 182.447 85.3961 182.623 85.4613C183.227 85.6844 183.879 85.9252 183.889 86.5C183.889 87.0682 183.247 87.3959 182.655 87.6981L182.654 87.6985C182.499 87.7779 182.346 87.8557 182.211 87.9355C181.93 88.1036 181.651 88.2754 181.371 88.4477C180.335 89.0865 179.296 89.7269 178.188 90.1752C176.609 90.8186 175.807 91.9078 175.572 93.5042C175.029 97.2289 173.03 100.31 170.995 103.305C165.849 110.853 158.816 115.729 149.759 117.35C143.997 118.39 138.309 117.957 132.867 115.618L132.759 115.571C131.651 115.093 131.099 114.855 130.756 115.03C130.415 115.204 130.28 115.788 130.013 116.953V116.953L129.967 117.152C128.795 122.25 126.661 126.829 122.725 130.443C119.307 133.574 115.914 136.717 112.582 139.922C111.718 140.763 111.138 140.602 110.398 139.922C109.787 139.356 109.17 138.793 108.553 138.232L108.552 138.231L108.552 138.231L108.551 138.23C107.685 137.442 106.818 136.652 105.968 135.851C105.378 135.285 104.782 134.726 104.186 134.166C102.354 132.445 100.522 130.723 98.8366 128.847C95.4557 125.084 93.7282 120.667 93.3456 115.68C93.2841 114.863 93.062 114.714 92.3091 115.048C90.0758 116.026 87.7806 116.818 85.3625 117.264C77.1938 118.761 69.5686 117.487 62.5353 112.945C54.8606 107.983 50.0116 100.941 47.4327 92.254C47.198 91.4497 46.766 90.9795 46.0382 90.5837C45.5673 90.3248 45.093 90.0697 44.6174 89.8147L44.6162 89.8138L44.6149 89.813C42.7504 88.8112 40.8653 87.7985 39.0668 86.4874C40.5968 85.5222 42.0528 84.7675 43.5704 84.1733C49.3822 81.8718 55.2306 79.6691 61.3755 78.4437C66.5824 77.4167 71.8391 76.9591 77.0828 78.1471C84.6838 79.867 90.0142 84.5448 93.6046 91.3262C93.7395 91.5796 93.8753 91.833 94.011 92.0864C95.0945 94.1084 96.1839 96.1406 96.7759 98.4169C97.1489 97.1382 97.1128 95.8594 97.0772 94.595V94.5946C97.0705 94.3542 97.0634 94.1143 97.0596 93.8752C96.887 85.2747 93.654 78.2954 86.1892 73.6424C82.8084 71.5388 79.0571 70.524 75.1211 70.2395C68.1247 69.7197 61.3261 71.019 54.5396 72.4544C53.6472 72.6444 52.7593 72.8599 51.8715 73.0751C49.9244 73.5474 47.9765 74.0201 45.9767 74.2239C43.5951 74.4593 41.9912 73.1848 41.8183 70.7841C41.7166 69.4012 41.7397 68.0119 41.7628 66.6206C41.7705 66.1563 41.7782 65.692 41.7813 65.2276C41.9166 63.5829 42.0494 61.9781 42.1797 60.4019C42.9725 50.8122 43.6768 42.292 44.3233 32.4345C44.3233 31.4692 41.4852 28.5999 40.6832 28.2657C38.9331 27.5208 37.1928 27.0814 35.4473 26.6407C33.7714 26.2176 32.0908 25.7933 30.3925 25.0962C29.3807 24.6878 29.0599 24.3413 29.5658 23.2523L29.6455 23.0778C30.1044 22.071 30.3368 21.5612 30.7108 21.4143C31.0946 21.2636 31.6276 21.4948 32.7072 21.9632L32.7122 21.9654C32.9944 22.0873 33.2767 22.2129 33.5593 22.3386C34.1663 22.6088 34.7752 22.8798 35.3898 23.1162C35.5043 23.1609 35.6294 23.2335 35.7578 23.3079C36.1276 23.5225 36.5244 23.7527 36.7717 23.3761C37.0638 22.9368 36.6809 22.66 36.3219 22.4004C36.1955 22.309 36.072 22.2197 35.982 22.1263C35.0072 21.062 34.0078 20.0226 32.9343 19.0573C32.2434 18.451 32.3544 18.0921 32.9467 17.4981L33.0182 17.4258C34.8234 15.6028 34.8824 15.5433 36.6607 17.4733C37.543 18.4218 38.3564 19.3081 39.1299 20.1511C42.5753 23.9054 45.2292 26.7971 49.6525 30.4655C53.3359 33.5221 57.7072 36.8389 62.0782 40.1557C66.4496 43.4724 70.8209 46.7891 74.5043 49.8457C76.1287 51.1912 77.759 52.5309 79.3894 53.8709C84.9419 58.434 90.4969 62.9996 95.8382 67.8014C102.008 73.3331 105.833 80.362 106.61 88.752C107.325 96.5234 107.301 104.283 105.574 111.955C104.821 115.309 103.649 118.538 101.971 121.818H104.241C105.965 121.818 107.69 121.816 109.414 121.815H109.436C112.898 121.812 116.358 121.809 119.813 121.818C120.639 121.818 121.133 121.793 120.615 120.741C117.283 113.972 116.592 106.658 116.395 99.2581C116.247 93.6773 116.469 88.1456 118.06 82.7379C119.813 76.7734 121.492 73.4961 126.106 69.5361C133.779 62.9354 143.062 55.1913 151.103 48.4826C151.881 47.8333 152.647 47.1942 153.399 46.5664C156.044 44.3615 158.684 42.1504 161.324 39.9396L161.326 39.9378C166.924 35.2497 172.521 30.5622 178.163 25.9377C180.996 23.6226 183.551 21.028 186.107 18.4311C187.158 17.3633 188.209 16.2951 189.281 15.2459C189.996 14.5405 190.366 14.5157 191.07 15.2459L191.178 15.3587C191.998 16.2156 192.409 16.6451 192.406 17.0708C192.402 17.4986 191.979 17.9226 191.131 18.7727C190.07 19.8369 189 20.8915 187.807 22.0657L187.343 22.5222C188.341 22.5222 189.091 22.1559 189.805 21.807C190.125 21.651 190.437 21.4985 190.761 21.3838C191.115 21.26 191.458 21.1033 191.801 20.9465C191.972 20.8681 192.143 20.7898 192.316 20.7155L192.338 20.7058C193.399 20.2428 193.929 20.012 194.31 20.161C194.69 20.3093 194.924 20.8336 195.39 21.8794L195.45 22.0149C195.919 23.0667 195.66 23.438 194.636 23.8587C192.325 24.8076 190.037 25.8003 187.749 26.7925L187.749 26.7926C186.188 27.4695 184.628 28.1462 183.062 28.8087C182.087 29.217 181.717 29.7491 181.717 30.8629C181.754 43.643 181.742 56.4229 181.729 69.2154V69.2247C181.729 69.3743 181.731 69.5247 181.733 69.6756C181.748 70.8118 181.764 71.9716 180.915 72.8999C179.483 74.4715 177.633 74.4962 175.782 74.0508C170.513 72.7763 165.207 71.6006 159.865 70.7715C153.017 69.7075 146.144 69.5466 139.616 72.4792C133.645 75.1522 129.708 79.7308 127.648 85.9554C126.29 90.0513 126.167 94.2836 126.525 98.5778ZM75.1952 90.4597C74.7385 88.8511 74.7138 87.2426 75.1579 85.6088C75.442 84.5696 75.0469 83.8888 73.924 83.7775C73.6718 83.7535 73.4124 83.7128 73.1476 83.6712C72.7261 83.6052 72.2903 83.5367 71.8466 83.5304C71.5856 83.5266 71.3363 83.5207 71.0916 83.5149C70.5264 83.501 69.9863 83.488 69.3834 83.5052L69.2078 83.5106C68.1854 83.5413 67.774 83.5539 67.544 83.7649C67.3894 83.9073 67.3169 84.1393 67.1958 84.5276C67.1099 84.802 66.9997 85.1545 66.8187 85.6088C65.5357 89.7916 68.5814 97.1176 73.5787 98.553C78.4525 99.9515 82.7836 99.4439 86.4976 95.7809C88.262 94.0361 88.3114 93.0091 86.7318 91.1774C86.1377 90.4942 85.5188 89.8294 84.8928 89.1566L84.8924 89.1562L84.8912 89.1549L84.8908 89.1541L84.8853 89.1486C84.6297 88.8738 84.3729 88.5982 84.116 88.3191C81.0947 92.3654 80.5253 91.5972 79.0931 89.6655C78.6247 89.0331 78.0632 88.2763 77.2935 87.5224C77.3053 87.4115 76.8381 88.1149 76.342 88.8629L76.3416 88.8633C75.7868 89.6991 75.1952 90.5904 75.1952 90.4597ZM133.632 95.5086C132.468 97.2054 131.833 99.0224 131.204 100.824C131.053 101.257 130.903 101.688 130.745 102.117C130.696 102.253 130.642 102.393 130.587 102.537L130.586 102.537C130.295 103.297 129.972 104.139 130.189 104.753C130.382 105.315 131.001 105.361 131.644 105.409C131.992 105.435 132.346 105.461 132.645 105.569C135.927 106.757 139.259 107.649 142.787 107.785C148.772 108.02 154.102 106.572 158.631 102.439C162.913 98.5282 165.183 93.5907 166.478 88.0716C166.651 87.3539 166.367 87.0194 165.75 86.7845C165.367 86.6379 164.98 86.4946 164.593 86.3509L164.592 86.3505L164.591 86.35L164.59 86.3496C163.51 85.9491 162.426 85.547 161.382 85.0646C160.087 84.4582 159.976 84.9776 160.013 86.1164C160.136 89.6432 159.396 92.8978 157.286 95.8431C152.572 102.389 143.565 103.973 137.149 99.2707C136.303 98.6417 135.641 97.8412 134.97 97.0285V97.0281H134.97C134.545 96.5133 134.115 95.9935 133.632 95.5086ZM81.0808 107.735C83.2789 107.928 85.5854 107.258 87.9733 106.564C89.097 106.237 90.2392 105.905 91.3961 105.656C93.6666 105.161 93.6046 104.976 92.7532 102.76C92.4142 101.889 92.0908 101.01 91.7669 100.133V100.132L91.7665 100.131L91.766 100.131C91.4422 99.2522 91.1183 98.3736 90.7793 97.5012C90.0758 95.7069 89.9153 95.6943 88.6692 97.1793C83.3635 103.503 72.9125 103.527 67.4338 97.3277C64.5343 94.0361 63.0783 90.3114 63.3251 85.9185C63.3264 85.8907 63.3276 85.8626 63.3289 85.8348C63.3549 85.3159 63.3808 84.7919 62.5848 85.015C60.7956 85.5348 59.0065 86.079 57.2422 86.6606C56.8596 86.7845 56.7607 87.0198 56.8596 87.5888C57.6 91.4871 58.9571 95.0631 61.3014 98.3055C66.0519 104.914 72.357 108.18 81.0808 107.735ZM153.411 60.3397C155.207 60.4649 156.804 60.5696 158.375 60.6721L158.779 60.6986C162.035 60.9141 165.217 61.5709 168.396 62.2273C168.868 62.3244 169.339 62.4219 169.81 62.5177C169.945 62.5454 170.071 62.5723 170.189 62.5971C170.921 62.7521 171.304 62.8332 171.504 62.6778C171.722 62.5076 171.722 62.055 171.722 61.1074V61.0696C171.722 56.1817 171.71 51.2938 171.698 46.4054C171.698 46.339 171.707 46.2676 171.717 46.1953C171.748 45.9588 171.781 45.7121 171.488 45.589C171.209 45.4751 171 45.6554 170.801 45.826C170.763 45.8596 170.724 45.8928 170.686 45.923L170.685 45.9235C168.896 47.3837 167.108 48.8435 165.331 50.3159C161.432 53.5953 157.533 56.8746 153.411 60.3397ZM139.195 88.3927C139.099 88.4805 139 88.5713 138.897 88.665L138.863 88.6957C138.817 88.7373 138.77 88.7784 138.725 88.8188L138.723 88.8213C137.912 89.5474 137.249 90.1412 137.64 91.3964C138.195 93.2155 139.08 95.6716 140.573 96.649C143.83 98.79 147.437 99.3741 151.003 97.9139C156.013 95.8599 159.357 90.7488 158.715 84.8339C158.641 84.1284 158.283 83.7943 157.629 83.522C156.559 83.0825 155.471 83.1489 154.385 83.2152C153.944 83.2426 153.503 83.2695 153.064 83.2623C152.868 83.2589 152.653 83.2325 152.433 83.2056C151.807 83.1287 151.154 83.0484 150.88 83.4972C150.635 83.8981 150.962 84.1347 151.321 84.3939C151.594 84.591 151.884 84.8011 151.953 85.1062C151.961 85.1365 151.978 85.1625 151.996 85.1894C152.007 85.2058 152.018 85.223 152.027 85.2423C152.225 85.0814 152.565 87.3985 152.503 87.7325C152.343 88.5616 151.411 90.4643 150.596 90.724C148.548 92.5679 147.401 92.6175 145.105 90.8602C145.069 89.8895 144.538 89.1625 144.007 88.436C143.448 87.6716 142.89 86.9076 142.909 85.8609C140.787 86.9362 140.114 87.5518 139.195 88.3927ZM67.0885 55.519C68.7712 56.933 70.4761 58.366 72.2208 59.8275C70.2712 59.9514 68.5558 60.075 66.8409 60.1985C63.6234 60.4011 60.4793 61.0524 57.3373 61.7033C56.8282 61.8088 56.3191 61.9142 55.81 62.0176C54.8254 62.2201 54.3477 62.358 54.116 62.1777C53.8944 62.0058 53.8973 61.5432 53.8973 60.57C53.8973 55.6837 53.9099 50.7975 53.922 45.9117V45.9058C53.922 45.8369 53.9137 45.7646 53.9049 45.6923C53.8764 45.4532 53.8475 45.2125 54.132 45.0889C54.4148 44.9675 54.6151 45.1448 54.8074 45.315C54.8497 45.3524 54.8916 45.3898 54.9339 45.4234C55.3056 45.7264 55.6772 46.0294 56.0489 46.3319C57.4659 47.4867 58.8813 48.6397 60.2891 49.8163C62.5445 51.7001 64.7962 53.5923 67.0885 55.519Z" clip-rule="evenodd"/><path fill="#4A1E00" d="M147.894 92.355C151.018 92.355 153.551 89.8152 153.551 86.6821C153.551 83.5491 151.018 81.0093 147.894 81.0093C144.77 81.0093 142.238 83.5491 142.238 86.6821C142.238 89.8152 144.77 92.355 147.894 92.355Z"/><path fill="#4A1E00" d="M77.922 92.355C81.046 92.355 83.5785 89.8152 83.5785 86.6821C83.5785 83.5491 81.046 81.0093 77.922 81.0093C74.7981 81.0093 72.2656 83.5491 72.2656 86.6821C72.2656 89.8152 74.7981 92.355 77.922 92.355Z"/></svg>