<svg width="245" height="171" viewBox="0 0 245 171" fill="none" xmlns="http://www.w3.org/2000/svg">
<g clip-path="url(#clip0_641_440)">
<path fill-rule="evenodd" clip-rule="evenodd" d="M166.903 93.449C166.903 96.8266 164.15 99.5647 160.754 99.5647C159.339 99.5647 158.036 99.089 156.996 98.2897C156.88 98.3879 156.765 98.4868 156.649 98.5857C156.101 99.0544 155.553 99.5234 154.944 99.9193C152.751 101.303 151.641 100.954 150.502 98.6748C150.132 97.9337 149.975 97.1645 149.89 96.3536C149.043 97.1147 149.414 98.1718 149.841 99.3905C149.924 99.6269 150.009 99.8693 150.088 100.117C150.288 100.759 150.378 101.34 150.461 101.868C150.642 103.031 150.784 103.942 151.968 104.701C155.741 107.134 160.083 107.582 164.197 105.932C169.962 103.625 173.834 97.8359 173.094 91.152C173.009 90.3552 172.596 89.9774 171.842 89.6698C170.609 89.1638 169.355 89.2422 168.105 89.3204C167.593 89.3524 167.083 89.3844 166.574 89.3762C166.349 89.3726 166.099 89.3426 165.846 89.3121C165.638 89.287 165.427 89.2616 165.225 89.2504C166.265 90.3458 166.903 91.8233 166.903 93.449Z" fill="#EBB189"/>
<path fill-rule="evenodd" clip-rule="evenodd" d="M79.3769 90.3829C78.8508 91.2843 78.5496 92.3317 78.5496 93.449C78.5496 96.0094 80.1314 98.2023 82.3759 99.1136C82.3626 99.1325 82.3493 99.1515 82.336 99.1704C81.7219 100.044 81.1081 100.917 80.4401 101.638C78.0446 104.174 73.871 100.969 72.6268 96.7944C72.2224 95.4371 72.0511 94.0283 71.9578 92.5433C72.6268 90.1355 74.4467 87.6258 77.3865 85.1672C77.3678 86.8682 78.2773 88.6236 79.3769 90.3829Z" fill="#FEFEFE"/>
<path fill-rule="evenodd" clip-rule="evenodd" d="M89.3495 97.4482C88.2221 98.7445 86.5563 99.5647 84.6978 99.5647C83.1662 99.5647 81.7654 99.0076 80.689 98.086C80.8188 98.551 80.8131 99.1939 80.3194 100.133C77.8664 101.603 77.3491 101.396 75.1339 99.5647C73.4779 97.7721 72.0451 95.9406 73.0844 90.2778C69.8964 98.2056 74.4985 105.056 79.9436 106.617C85.228 108.124 89.949 107.577 93.9859 103.628C95.9037 101.747 96.4343 100.18 94.7173 98.2056C94.3957 97.8386 94.0529 97.4373 93.7014 97.0259C93.0564 96.2708 92.3823 95.4816 91.757 94.808C90.9312 95.9049 90.1296 96.7772 89.3495 97.4482Z" fill="#EBB189"/>
<path fill-rule="evenodd" clip-rule="evenodd" d="M154.728 92.2335C154.648 92.6264 154.606 93.0328 154.606 93.449C154.606 95.5939 155.716 97.4808 157.396 98.5725C157.349 98.6119 157.302 98.6513 157.255 98.6907C156.64 99.2048 156.026 99.7185 155.358 100.143C152.962 101.634 151.749 101.258 150.505 98.8022C150.101 98.0035 149.929 97.175 149.836 96.3011C150.463 94.9733 152.102 93.5926 154.728 92.2335Z" fill="#FEFEFE"/>
<path fill-rule="evenodd" clip-rule="evenodd" d="M80.0795 89.4116C79.1271 90.4887 78.5494 91.9018 78.5494 93.449C78.5494 93.5819 78.5537 93.7138 78.5621 93.8446C78.3551 93.3993 78.2534 92.9093 78.2034 92.3856C78.1284 91.6792 77.9872 90.9789 77.8456 90.2766C77.7739 89.921 77.702 89.5649 77.6387 89.2073C78.3178 89.0666 78.9502 89.1922 79.581 89.3176C79.747 89.3506 79.9129 89.3835 80.0795 89.4116Z" fill="#EBB189"/>
<path fill-rule="evenodd" clip-rule="evenodd" d="M137.527 106.273C138.801 103.152 140.116 100.123 141.819 97.2814C145.494 91.158 150.469 86.5689 157.511 84.6078C162.03 83.3403 166.631 83.4472 171.271 83.9138C180.7 84.8746 189.431 88.0761 197.961 91.9186C198.125 91.9938 198.312 92.0627 198.503 92.1329C199.159 92.3734 199.868 92.633 199.879 93.2527C199.879 93.8652 199.181 94.2186 198.538 94.5443C198.369 94.6299 198.202 94.7142 198.055 94.8003C197.75 94.9815 197.446 95.1667 197.143 95.3525C196.016 96.0411 194.887 96.7315 193.682 97.2148C191.966 97.9084 191.094 99.0826 190.839 100.804C190.249 104.819 188.076 108.141 185.863 111.369C180.27 119.507 172.626 124.764 162.781 126.511C156.518 127.632 150.336 127.165 144.421 124.644L144.303 124.593C143.099 124.078 142.499 123.821 142.126 124.009C141.755 124.197 141.609 124.827 141.318 126.083L141.269 126.298C139.995 131.794 137.675 136.73 133.396 140.626C129.681 144.001 125.993 147.39 122.372 150.845C121.433 151.752 120.802 151.579 119.998 150.845C119.334 150.235 118.663 149.629 117.992 149.023L117.991 149.022C117.049 148.172 116.107 147.32 115.183 146.456C114.541 145.847 113.893 145.243 113.245 144.64C111.254 142.784 109.263 140.928 107.431 138.905C103.756 134.849 101.878 130.087 101.463 124.71C101.396 123.83 101.154 123.67 100.336 124.03C97.9084 125.084 95.4135 125.938 92.7853 126.418C83.9062 128.032 75.6179 126.658 67.9731 121.762C59.631 116.412 54.3603 108.821 51.5571 99.4559C51.3021 98.5888 50.8325 98.0819 50.0415 97.6552C49.5296 97.3761 49.014 97.1011 48.4971 96.8261L48.4957 96.8252L48.4944 96.8243C46.4677 95.7443 44.4186 94.6526 42.4638 93.2392C44.1269 92.1986 45.7094 91.385 47.359 90.7444C53.6762 88.2632 60.0331 85.8885 66.7124 84.5675C72.372 83.4603 78.0858 82.967 83.7855 84.2477C92.0475 86.1019 97.8414 91.1449 101.744 98.4557C101.891 98.7288 102.038 99.002 102.186 99.2752C103.364 101.455 104.548 103.646 105.191 106.1C105.596 104.721 105.557 103.343 105.519 101.98C105.511 101.721 105.504 101.461 105.499 101.204C105.312 91.9317 101.798 84.4076 93.6838 79.3913C90.009 77.1235 85.9315 76.0295 81.6532 75.7228C74.0485 75.1624 66.6587 76.5631 59.2821 78.1106C58.312 78.3154 57.347 78.5478 56.3819 78.7797C54.2656 79.2889 52.1483 79.7986 49.9745 80.0183C47.3859 80.272 45.6425 78.898 45.4546 76.3099C45.344 74.819 45.3691 73.3213 45.3942 71.8214C45.4026 71.3208 45.411 70.8202 45.4144 70.3196C45.5614 68.5465 45.7058 66.8165 45.8474 65.1172C46.7091 54.7789 47.4747 45.5935 48.1774 34.9664C48.1774 33.9258 45.0925 30.8325 44.2207 30.4723C42.3185 29.6692 40.4268 29.1954 38.5295 28.7204C36.708 28.2642 34.8812 27.8068 33.0353 27.0553C31.9355 26.615 31.5868 26.2415 32.1366 25.0675L32.2232 24.8793C32.7221 23.794 32.9746 23.2444 33.3812 23.086C33.7984 22.9235 34.3777 23.1727 35.5512 23.6777L35.5566 23.6801C35.8634 23.8115 36.1702 23.9469 36.4774 24.0824C37.1372 24.3737 37.799 24.6659 38.4671 24.9208C38.5915 24.9689 38.7275 25.0471 38.867 25.1274C39.269 25.3587 39.7004 25.6069 39.9692 25.2009C40.2866 24.7273 39.8704 24.4289 39.4802 24.149C39.3428 24.0505 39.2086 23.9542 39.1108 23.8535C38.0513 22.7062 36.9649 21.5856 35.7981 20.545C35.047 19.8913 35.1677 19.5044 35.8115 18.864L35.8892 18.7861C37.8515 16.8208 37.9155 16.7566 39.8485 18.8373C40.8075 19.8598 41.6917 20.8154 42.5324 21.7241C46.2773 25.7715 49.162 28.889 53.97 32.8438C57.9737 36.139 62.7252 39.7147 67.4762 43.2904C72.2277 46.866 76.9792 50.4417 80.9828 53.7369C82.7485 55.1875 84.5206 56.6317 86.2927 58.0764C92.328 62.9957 98.3661 67.9177 104.172 73.0944C110.878 79.0579 115.035 86.6355 115.88 95.6805C116.658 104.059 116.632 112.424 114.754 120.695C113.935 124.31 112.662 127.792 110.838 131.328H113.305C115.18 131.328 117.054 131.326 118.928 131.324H118.952C122.715 131.322 126.476 131.318 130.231 131.328C131.13 131.328 131.666 131.301 131.103 130.167C127.482 122.869 126.731 114.985 126.516 107.007C126.355 100.99 126.596 95.0268 128.326 89.1969C130.231 82.7667 132.056 79.2337 137.072 74.9644C145.412 67.8484 155.502 59.4998 164.242 52.2673C165.088 51.5674 165.921 50.8784 166.738 50.2016C169.613 47.8246 172.483 45.4408 175.352 43.0574L175.354 43.0555C181.439 38.0014 187.523 32.948 193.655 27.9625C196.735 25.4667 199.511 22.6695 202.29 19.8698C203.432 18.7187 204.575 17.5672 205.74 16.436C206.518 15.6755 206.92 15.6488 207.684 16.436L207.802 16.5576C208.694 17.4814 209.14 17.9444 209.136 18.4034C209.132 18.8645 208.673 19.3217 207.751 20.2381C206.598 21.3855 205.434 22.5223 204.138 23.7882L203.634 24.2804C204.718 24.2804 205.533 23.8854 206.31 23.5093C206.657 23.3411 206.997 23.1767 207.349 23.0531C207.734 22.9196 208.106 22.7506 208.479 22.5816C208.665 22.4972 208.851 22.4127 209.039 22.3326L209.063 22.3222C210.217 21.823 210.792 21.5741 211.207 21.7348C211.619 21.8947 211.873 22.4599 212.38 23.5873L212.445 23.7334C212.955 24.8674 212.674 25.2676 211.561 25.7212C209.049 26.7442 206.561 27.8143 204.075 28.884C202.379 29.6137 200.683 30.3434 198.98 31.0576C197.921 31.4978 197.518 32.0715 197.518 33.2721C197.558 47.0499 197.545 60.8276 197.532 74.6188V74.6287C197.532 74.79 197.534 74.9522 197.536 75.1148C197.553 76.3398 197.57 77.5901 196.646 78.5908C195.09 80.2851 193.079 80.3118 191.067 79.8316C185.34 78.4576 179.573 77.1901 173.766 76.2963C166.322 75.1493 158.852 74.9758 151.757 78.1374C145.266 81.019 140.987 85.9551 138.748 92.6656C137.272 97.0812 137.138 101.644 137.527 106.273ZM80.4999 90.203C80.2257 90.1772 79.796 90.2479 79.5082 90.203C79.05 90.1319 78.5763 90.0581 78.094 90.0513C77.8103 90.0472 77.5393 90.0408 77.2734 90.0345C76.659 90.0196 76.0719 90.0055 75.4166 90.0241L75.2258 90.03C74.1145 90.063 73.6673 90.0766 73.4173 90.3041C73.2492 90.4576 73.1704 90.7077 73.0388 91.1263C72.9454 91.4221 72.8256 91.8022 72.6289 92.2919C71.2344 96.8012 74.5449 104.699 79.9768 106.247C85.2743 107.754 89.9821 107.207 94.019 103.258C95.9368 101.377 95.9906 100.27 94.2736 98.2953C93.6278 97.5587 92.9551 96.842 92.2747 96.1167L92.2729 96.1149L92.2725 96.114L92.2665 96.1081C91.9887 95.8118 91.7095 95.5147 91.4304 95.2139C89.4999 93.0165 86.9999 91.5165 84.9999 91.0165C83.9152 90.7453 81.9178 90.203 80.4999 90.203ZM145.252 102.965C143.987 104.794 143.297 106.753 142.613 108.695C142.449 109.161 142.285 109.627 142.114 110.089C142.06 110.235 142.002 110.387 141.942 110.542C141.625 111.361 141.273 112.269 141.51 112.93C141.719 113.537 142.392 113.586 143.091 113.638C143.469 113.666 143.855 113.694 144.179 113.811C147.747 115.091 151.368 116.052 155.204 116.199C161.708 116.452 167.502 114.892 172.425 110.436C177.079 106.22 179.546 100.897 180.954 94.947C181.143 94.1733 180.834 93.8127 180.163 93.5594C179.746 93.4013 179.326 93.2469 178.905 93.0919L178.905 93.0915L178.903 93.091L178.902 93.0906C177.728 92.6588 176.55 92.2253 175.415 91.7052C174.007 91.0515 173.887 91.6115 173.927 92.8391C174.061 96.6413 173.256 100.15 170.963 103.325C165.839 110.382 156.049 112.09 149.074 107.02C148.155 106.342 147.436 105.479 146.707 104.603C146.245 104.048 145.778 103.487 145.252 102.965ZM88.1312 116.146C90.5204 116.354 93.0276 115.631 95.623 114.883C96.8445 114.531 98.086 114.173 99.3434 113.904C101.811 113.371 101.744 113.171 100.819 110.782C100.45 109.843 100.099 108.896 99.7465 107.95L99.746 107.948C99.394 107.001 99.0415 106.053 98.673 105.113C97.9084 103.178 97.734 103.165 96.3795 104.766C90.6124 111.583 79.2527 111.609 73.2975 104.926C70.1459 101.377 68.5633 97.3616 68.8315 92.6258C68.8329 92.5959 68.8343 92.5655 68.8356 92.5356C68.8639 91.9761 68.8921 91.4112 68.0268 91.6518C66.0821 92.2122 64.1374 92.7988 62.2196 93.4258C61.8038 93.5594 61.6963 93.8131 61.8038 94.4265C62.6086 98.6292 64.0837 102.484 66.6318 105.98C71.7955 113.104 78.6488 116.626 88.1312 116.146ZM166.751 65.0501C168.703 65.1851 170.439 65.2979 172.147 65.4085L172.585 65.437C176.125 65.6694 179.583 66.3775 183.039 67.0851C183.552 67.1897 184.064 67.2948 184.576 67.3981C184.723 67.428 184.86 67.457 184.988 67.4837C185.784 67.6509 186.2 67.7383 186.417 67.5707C186.655 67.3873 186.655 66.8994 186.655 65.8778V65.837C186.655 60.5675 186.641 55.298 186.628 50.0281C186.628 49.9565 186.638 49.8795 186.649 49.8016C186.683 49.5465 186.718 49.2806 186.4 49.1479C186.097 49.0251 185.869 49.2194 185.654 49.4034C185.612 49.4396 185.57 49.4754 185.528 49.508L185.527 49.5085C183.583 51.0827 181.638 52.6565 179.707 54.2439C175.469 57.7792 171.231 61.3146 166.751 65.0501ZM151.299 95.2931C151.194 95.3878 151.087 95.4857 150.974 95.5867L150.938 95.6198C150.887 95.6646 150.837 95.709 150.788 95.7525L150.785 95.7552C149.904 96.538 149.184 97.1781 149.608 98.5313C150.212 100.492 151.173 103.14 152.796 104.194C156.337 106.502 160.258 107.132 164.134 105.558C169.579 103.343 173.214 97.8332 172.516 91.4565C172.436 90.6959 172.047 90.3358 171.336 90.0422C170.173 89.5683 168.99 89.6399 167.81 89.7115C167.33 89.741 166.851 89.7699 166.374 89.7622C166.161 89.7586 165.927 89.7301 165.688 89.7011C163.5 89.5165 158 90.5165 155.336 92.5637C154.582 93.1429 152.298 94.3866 151.299 95.2931ZM72.9222 59.8531C74.7512 61.3775 76.6043 62.9223 78.5007 64.4979C76.3816 64.6315 74.5171 64.7647 72.653 64.8979C69.1558 65.1163 65.7383 65.8185 62.323 66.5202C61.7697 66.6339 61.2163 66.7476 60.663 66.859C59.5927 67.0774 59.0735 67.226 58.8217 67.0316C58.5807 66.8464 58.5839 66.3476 58.5839 65.2984C58.5839 60.0307 58.5976 54.763 58.6108 49.4958V49.4894C58.6108 49.4151 58.6017 49.3372 58.5921 49.2593C58.5612 49.0015 58.5297 48.742 58.839 48.6088C59.1464 48.4779 59.3641 48.669 59.5731 48.8525C59.6191 48.8928 59.6647 48.9331 59.7107 48.9694C60.1146 49.296 60.5186 49.6226 60.9226 49.9488C62.4628 51.1937 64.0013 52.4368 65.5315 53.7052C67.9831 55.7361 70.4305 57.776 72.9222 59.8531Z" fill="#E07E3C"/>
</g>
<defs>
<clipPath id="clip0_641_440">
<rect width="244.565" height="170.335" fill="white"/>
</clipPath>
</defs>
</svg>
