<svg xmlns="http://www.w3.org/2000/svg" fill="none" viewBox="30.723 14.34965034965035 367.87800000000004 138.31468531468533" style="max-height: 500px" width="367.87800000000004" height="138.31468531468533">
<path fill="#E07E3C" d="M137.527 106.273C138.802 103.152 140.116 100.123 141.819 97.2815C145.494 91.1581 150.47 86.569 157.511 84.6079C162.031 83.3404 166.631 83.4473 171.271 83.9139C180.7 84.8748 189.431 88.0762 197.961 91.9187C198.125 91.9939 198.312 92.0628 198.504 92.133C199.16 92.3736 199.869 92.6331 199.879 93.2529C199.879 93.8653 199.181 94.2187 198.538 94.5444L198.537 94.5449C198.368 94.6305 198.203 94.7143 198.055 94.8004C197.75 94.9816 197.447 95.1669 197.143 95.3526C196.017 96.0412 194.887 96.7316 193.683 97.215C191.966 97.9085 191.094 99.0827 190.839 100.804C190.249 104.819 188.077 108.141 185.864 111.369C180.271 119.507 172.626 124.764 162.782 126.512C156.518 127.632 150.336 127.165 144.421 124.644L144.303 124.593C143.099 124.078 142.499 123.821 142.126 124.01C141.755 124.197 141.609 124.827 141.319 126.083V126.083L141.269 126.298C139.995 131.794 137.675 136.73 133.397 140.626C129.681 144.001 125.993 147.39 122.372 150.845C121.433 151.752 120.803 151.579 119.998 150.845C119.334 150.235 118.663 149.629 117.992 149.023L117.992 149.022L117.991 149.022L117.991 149.022C117.049 148.171 116.107 147.321 115.183 146.456C114.541 145.847 113.893 145.243 113.246 144.64C111.255 142.784 109.263 140.928 107.431 138.905C103.756 134.849 101.879 130.087 101.463 124.71C101.396 123.83 101.154 123.67 100.336 124.03C97.9086 125.084 95.4138 125.938 92.7855 126.418C83.9065 128.032 75.6181 126.658 67.9733 121.762C59.6312 116.412 54.3605 108.821 51.5574 99.456C51.3023 98.589 50.8328 98.082 50.0417 97.6553C49.5298 97.3762 49.0143 97.1012 48.4973 96.8263L48.496 96.8254L48.4946 96.8245C46.468 95.7445 44.4189 94.6527 42.464 93.2393C44.1271 92.1987 45.7097 91.3851 47.3592 90.7445C53.6765 88.2633 60.0334 85.8886 66.7127 84.5676C72.3723 83.4604 78.0861 82.9671 83.7858 84.2478C92.0477 86.102 97.8417 91.145 101.744 98.4558C101.891 98.7289 102.038 99.0021 102.186 99.2753C103.364 101.455 104.548 103.646 105.191 106.1C105.597 104.721 105.558 103.343 105.519 101.98V101.979C105.512 101.72 105.504 101.462 105.5 101.204C105.312 91.9319 101.798 84.4077 93.6841 79.3914C90.0092 77.1236 85.9318 76.0296 81.6535 75.7229C74.0487 75.1625 66.6589 76.5632 59.2824 78.1108C58.3123 78.3155 57.3472 78.5479 56.3822 78.7799C54.2658 79.2891 52.1485 79.7987 49.9748 80.0184C47.3861 80.2721 45.6427 78.8981 45.4549 76.31C45.3442 74.8191 45.3693 73.3215 45.3945 71.8215C45.4029 71.3209 45.4113 70.8203 45.4146 70.3198C45.5617 68.5467 45.706 66.8166 45.8477 65.1173C46.7093 54.779 47.4749 45.5936 48.1776 34.9665C48.1776 33.926 45.0927 30.8326 44.221 30.4724C42.3188 29.6693 40.4271 29.1956 38.5298 28.7205C36.7082 28.2643 34.8815 27.8069 33.0355 27.0554C31.9357 26.6152 31.587 26.2416 32.1369 25.0676L32.2235 24.8794C32.7223 23.7941 32.9749 23.2445 33.3815 23.0861C33.7987 22.9236 34.3779 23.1729 35.5515 23.6778L35.5569 23.6802C35.8637 23.8116 36.1704 23.947 36.4776 24.0826C37.1375 24.3739 37.7992 24.666 38.4673 24.9209C38.5917 24.969 38.7277 25.0473 38.8673 25.1275C39.2692 25.3589 39.7006 25.6071 39.9694 25.201C40.2868 24.7274 39.8707 24.429 39.4805 24.1491C39.343 24.0506 39.2088 23.9544 39.1111 23.8536C38.0515 22.7063 36.9652 21.5857 35.7983 20.5451C35.0473 19.8914 35.1679 19.5045 35.8117 18.8641L35.8895 18.7863C37.8517 16.8209 37.9158 16.7567 39.8487 18.8374C40.8078 19.8599 41.6919 20.8155 42.5327 21.7242C46.2776 25.7716 49.1623 28.8891 53.9702 32.8439C57.9739 36.1391 62.7254 39.7148 67.4764 43.2905C72.2279 46.8661 76.9794 50.4418 80.9831 53.7371C82.7488 55.1876 84.5208 56.6318 86.2929 58.0765C92.3283 62.9958 98.3663 67.9179 104.172 73.0945C110.878 79.058 115.035 86.6356 115.88 95.6806C116.658 104.059 116.632 112.424 114.754 120.695C113.936 124.31 112.662 127.792 110.838 131.328H113.305C115.18 131.328 117.054 131.326 118.928 131.324H118.953C122.715 131.322 126.476 131.319 130.231 131.328C131.13 131.328 131.666 131.301 131.103 130.167C127.482 122.869 126.731 114.985 126.516 107.007C126.355 100.99 126.597 95.0269 128.327 89.197C130.231 82.7669 132.056 79.2338 137.072 74.9645C145.413 67.8485 155.502 59.4999 164.242 52.2675C165.088 51.5676 165.921 50.8785 166.738 50.2017C169.614 47.8247 172.483 45.4409 175.352 43.0576L175.355 43.0556C181.439 38.0015 187.523 32.9482 193.656 27.9626C196.735 25.4668 199.512 22.6696 202.29 19.87C203.432 18.7188 204.575 17.5673 205.74 16.4361C206.518 15.6757 206.92 15.649 207.685 16.4361L207.802 16.5578C208.694 17.4815 209.141 17.9445 209.137 18.4035C209.133 18.8647 208.673 19.3218 207.752 20.2382C206.598 21.3856 205.434 22.5224 204.138 23.7883L203.634 24.2805C204.718 24.2805 205.534 23.8856 206.31 23.5095C206.658 23.3413 206.997 23.1768 207.35 23.0532C207.734 22.9198 208.106 22.7507 208.479 22.5818C208.665 22.4973 208.852 22.4128 209.039 22.3327L209.063 22.3223C210.217 21.8231 210.792 21.5743 211.207 21.7349C211.62 21.8948 211.874 22.46 212.38 23.5875L212.446 23.7335C212.955 24.8675 212.674 25.2678 211.561 25.7213C209.049 26.7443 206.562 27.8144 204.075 28.8841L204.075 28.8842C202.378 29.614 200.683 30.3435 198.981 31.0577C197.921 31.4979 197.519 32.0716 197.519 33.2723C197.559 47.0501 197.545 60.8277 197.532 74.6189V74.6289C197.532 74.7901 197.534 74.9523 197.536 75.1149C197.553 76.3399 197.57 77.5902 196.646 78.591C195.091 80.2852 193.079 80.312 191.067 79.8318C185.34 78.4578 179.573 77.1902 173.766 76.2964C166.323 75.1494 158.852 74.9759 151.757 78.1375C145.266 81.0191 140.988 85.9552 138.748 92.6658C137.272 97.0813 137.138 101.644 137.527 106.273ZM81.7341 97.5217C81.2377 95.7875 81.2108 94.0533 81.6935 92.292C82.0023 91.1717 81.5729 90.4378 80.3523 90.3178C80.0781 90.2919 79.7962 90.248 79.5084 90.2031C79.0502 90.132 78.5766 90.0582 78.0943 90.0514C77.8106 90.0473 77.5396 90.041 77.2736 90.0346C76.6592 90.0197 76.0722 90.0056 75.4168 90.0242L75.226 90.0301C74.1148 90.0632 73.6675 90.0768 73.4175 90.3042C73.2494 90.4577 73.1706 90.7078 73.039 91.1264C72.9457 91.4222 72.8259 91.8023 72.6291 92.292C71.2346 96.8014 74.5451 104.699 79.977 106.247C85.2746 107.754 89.9823 107.207 94.0193 103.258C95.9371 101.377 95.9908 100.27 94.2738 98.2954C93.6281 97.5588 92.9554 96.8421 92.275 96.1168L92.2745 96.1164L92.2732 96.115L92.2727 96.1141L92.2668 96.1082C91.989 95.812 91.7098 95.5148 91.4306 95.214C88.1465 99.5761 87.5276 98.748 85.9709 96.6654C85.4618 95.9837 84.8515 95.1678 84.0149 94.3551C84.0276 94.2355 83.5198 94.9938 82.9806 95.8002L82.9801 95.8006C82.3771 96.7017 81.7341 97.6625 81.7341 97.5217ZM145.252 102.965C143.987 104.794 143.297 106.753 142.614 108.695C142.449 109.161 142.286 109.627 142.114 110.089C142.061 110.235 142.002 110.387 141.942 110.542L141.942 110.542C141.625 111.361 141.274 112.269 141.51 112.931C141.719 113.537 142.392 113.587 143.092 113.638C143.47 113.666 143.855 113.694 144.18 113.811C147.747 115.091 151.368 116.052 155.204 116.199C161.709 116.452 167.503 114.892 172.425 110.436C177.079 106.22 179.546 100.897 180.955 94.9472C181.143 94.1734 180.834 93.8128 180.164 93.5596C179.746 93.4015 179.327 93.247 178.906 93.092L178.905 93.0916L178.903 93.0911L178.902 93.0907C177.728 92.659 176.55 92.2254 175.416 91.7054C174.008 91.0517 173.887 91.6116 173.927 92.8393C174.061 96.6414 173.257 100.15 170.963 103.325C165.839 110.382 156.049 112.09 149.075 107.021C148.155 106.342 147.437 105.479 146.707 104.603V104.603H146.706C146.245 104.048 145.778 103.487 145.252 102.965ZM88.1315 116.146C90.5207 116.354 93.0278 115.631 95.6233 114.883C96.8447 114.531 98.0862 114.173 99.3437 113.904C101.812 113.371 101.744 113.171 100.819 110.782C100.45 109.843 100.099 108.896 99.7467 107.95V107.949L99.7463 107.948L99.7458 107.948C99.3938 107.001 99.0417 106.053 98.6733 105.113C97.9086 103.178 97.7342 103.165 96.3798 104.766C90.6127 111.583 79.2529 111.61 73.2977 104.926C70.1462 101.377 68.5635 97.3617 68.8318 92.6259C68.8331 92.596 68.8345 92.5656 68.8359 92.5357C68.8641 91.9763 68.8924 91.4113 68.027 91.6519C66.0824 92.2123 64.1377 92.7989 62.2199 93.4259C61.8041 93.5596 61.6966 93.8132 61.8041 94.4266C62.6088 98.6293 64.0839 102.484 66.6321 105.98C71.7957 113.104 78.649 116.626 88.1315 116.146ZM166.752 65.0503C168.704 65.1853 170.439 65.2981 172.147 65.4086L172.586 65.4371C176.125 65.6695 179.583 66.3776 183.04 67.0852C183.552 67.1899 184.064 67.295 184.576 67.3983C184.723 67.4282 184.86 67.4571 184.988 67.4839C185.784 67.651 186.2 67.7385 186.418 67.5708C186.655 67.3874 186.655 66.8995 186.655 65.8779V65.8372C186.655 60.5676 186.642 55.2982 186.628 50.0282C186.628 49.9566 186.638 49.8796 186.649 49.8017C186.683 49.5466 186.719 49.2807 186.4 49.148C186.097 49.0252 185.869 49.2196 185.654 49.4035C185.612 49.4397 185.57 49.4755 185.528 49.5081L185.527 49.5086C183.583 51.0828 181.639 52.6566 179.708 54.244C175.469 57.7793 171.231 61.3147 166.752 65.0503ZM151.299 95.2933C151.195 95.3879 151.087 95.4858 150.975 95.5868L150.938 95.6199C150.888 95.6647 150.838 95.7091 150.788 95.7526L150.786 95.7553C149.904 96.5381 149.184 97.1783 149.608 98.5314C150.212 100.493 151.174 103.14 152.796 104.194C156.337 106.502 160.258 107.132 164.134 105.558C169.579 103.343 173.214 97.8333 172.516 91.4566C172.436 90.696 172.047 90.3359 171.336 90.0423C170.173 89.5685 168.99 89.6401 167.81 89.7116C167.331 89.7411 166.851 89.7701 166.374 89.7624C166.161 89.7587 165.927 89.7302 165.688 89.7012C165.008 89.6183 164.298 89.5318 164 90.0156C163.734 90.4478 164.09 90.7028 164.48 90.9823C164.776 91.1948 165.092 91.4213 165.167 91.7502C165.175 91.7828 165.194 91.8109 165.213 91.8399C165.225 91.8576 165.237 91.8761 165.247 91.897C165.462 91.7235 165.831 94.2214 165.764 94.5816C165.59 95.4754 164.577 97.5266 163.692 97.8066C161.465 99.7944 160.218 99.8479 157.723 97.9534C157.684 96.9069 157.107 96.1232 156.53 95.3399C155.922 94.5159 155.315 93.6923 155.336 92.5638C153.03 93.7231 152.298 94.3868 151.299 95.2933ZM72.9224 59.8532C74.7514 61.3776 76.6046 62.9224 78.501 64.498C76.3819 64.6317 74.5174 64.7649 72.6533 64.898C69.156 65.1164 65.7385 65.8186 62.3233 66.5203C61.7699 66.634 61.2166 66.7477 60.6632 66.8592C59.593 67.0775 59.0738 67.2261 58.8219 67.0318C58.581 66.8465 58.5842 66.3477 58.5842 65.2985C58.5842 60.0308 58.5978 54.7631 58.6111 49.4959V49.4896C58.6111 49.4153 58.6019 49.3373 58.5924 49.2594C58.5614 49.0017 58.53 48.7421 58.8392 48.6089C59.1466 48.478 59.3643 48.6691 59.5734 48.8526C59.6194 48.8929 59.6649 48.9333 59.7109 48.9695C60.1149 49.2961 60.5188 49.6227 60.9228 49.9489C62.4631 51.1938 64.0015 52.4369 65.5317 53.7053C67.9833 55.7362 70.4308 57.7762 72.9224 59.8532Z" clip-rule="evenodd" fill-rule="evenodd"/>
<path fill="#E07E3C" d="M160.754 99.5647C164.15 99.5647 166.903 96.8266 166.903 93.449C166.903 90.0714 164.15 87.3333 160.754 87.3333C157.359 87.3333 154.606 90.0714 154.606 93.449C154.606 96.8266 157.359 99.5647 160.754 99.5647Z"/>
<path fill="#E07E3C" d="M84.6978 99.5647C88.0935 99.5647 90.8461 96.8266 90.8461 93.449C90.8461 90.0714 88.0935 87.3333 84.6978 87.3333C81.3022 87.3333 78.5496 90.0714 78.5496 93.449C78.5496 96.8266 81.3022 99.5647 84.6978 99.5647Z"/>
<path fill="#E07E3C" d="M257.389 98.5493C257.389 102.041 256.342 104.784 254.246 106.777C252.151 108.753 249.076 109.741 245.022 109.741C240.968 109.741 237.885 108.753 235.772 106.777C233.677 104.784 232.629 102.041 232.629 98.5493V80.8929L232.936 80.5863H235.747C237.229 80.5863 238.361 80.961 239.145 81.7106C239.946 82.4601 240.346 83.7206 240.346 85.4922V98.4982C240.346 100.116 240.695 101.386 241.394 102.305C242.109 103.225 243.319 103.685 245.022 103.685C246.76 103.685 247.969 103.225 248.65 102.305C249.332 101.386 249.672 100.116 249.672 98.4982V80.8673C250.32 80.7481 250.984 80.6714 251.666 80.6374C252.347 80.6033 252.935 80.5863 253.429 80.5863C253.906 80.5863 254.527 80.6118 255.294 80.6629C256.077 80.697 256.776 80.7822 257.389 80.9184V98.5493ZM286.227 102.408C286.227 104.895 285.827 106.641 285.026 107.646C284.226 108.634 282.863 109.128 280.938 109.128H269.133C267.753 109.128 266.655 108.727 265.837 107.927C265.019 107.109 264.61 105.985 264.61 104.554V74.1216L264.968 73.7639H267.83C269.346 73.7639 270.487 74.1557 271.254 74.9393C272.037 75.7229 272.429 76.9834 272.429 78.721V102.586C274.082 102.467 275.666 102.408 277.182 102.408H286.227ZM303.294 80.9184C303.874 80.7822 304.453 80.697 305.032 80.6629C305.628 80.6118 306.173 80.5863 306.667 80.5863C307.332 80.5863 307.97 80.6289 308.584 80.714C309.214 80.7822 309.768 80.8929 310.244 81.0462L310.577 81.4295L301.889 101.002V109C301.276 109.119 300.637 109.196 299.973 109.23C299.308 109.264 298.721 109.281 298.21 109.281C297.75 109.281 297.145 109.264 296.395 109.23C295.646 109.196 294.964 109.119 294.351 109V100.798L285.715 81.5572C286.43 81.2166 287.205 80.944 288.04 80.7396C288.875 80.5352 289.633 80.433 290.314 80.433C291.37 80.433 292.23 80.6544 292.895 81.0973C293.559 81.5232 294.096 82.2727 294.504 83.3459L296.446 88.3029C296.889 89.4954 297.247 90.5089 297.52 91.3436C297.792 92.1613 298.031 93.0812 298.235 94.1032H298.542C299.189 91.7525 299.896 89.5805 300.663 87.5875L303.294 80.9184ZM324.495 95.7386C324.308 95.3638 324.027 94.7505 323.652 93.8988C323.277 93.0301 322.903 92.1613 322.528 91.2925C322.153 90.4238 321.88 89.7935 321.71 89.4017L321.506 89.4783C321.574 90.79 321.642 92.2039 321.71 93.72C321.778 95.236 321.829 96.6329 321.863 97.9105C321.915 99.171 321.94 100.091 321.94 100.67V109C321.31 109.119 320.697 109.196 320.1 109.23C319.504 109.264 318.959 109.281 318.465 109.281C317.988 109.281 317.417 109.264 316.753 109.23C316.089 109.196 315.45 109.119 314.837 109V81.0462C315.45 80.9099 316.199 80.7992 317.085 80.714C317.971 80.6289 318.669 80.5863 319.18 80.5863C319.691 80.5863 320.398 80.6033 321.301 80.6374C322.221 80.6544 322.988 80.7311 323.601 80.8673L330.014 94.1032C330.168 94.3588 330.381 94.7931 330.653 95.4064C330.926 96.0196 331.224 96.6925 331.548 97.425C331.871 98.1575 332.169 98.8474 332.442 99.4947C332.731 100.125 332.944 100.593 333.081 100.9L333.311 100.849C333.243 99.7417 333.149 98.4641 333.03 97.0162C332.927 95.5512 332.834 94.1373 332.749 92.7745C332.68 91.3947 332.646 90.2875 332.646 89.4528V84.7768C332.646 83.0563 333.013 81.9235 333.745 81.3784C334.478 80.8162 335.585 80.5352 337.067 80.5352H339.622L339.903 80.8929V108.872C339.273 109.009 338.515 109.111 337.629 109.179C336.743 109.247 336.053 109.281 335.559 109.281C335.065 109.281 334.333 109.264 333.362 109.23C332.391 109.213 331.607 109.136 331.011 109L324.495 95.7386ZM347.425 80.8673C348.039 80.7481 348.728 80.6714 349.495 80.6374C350.279 80.6033 350.9 80.5863 351.36 80.5863C351.871 80.5863 352.468 80.6033 353.149 80.6374C353.83 80.6714 354.495 80.7481 355.142 80.8673V91.4714H355.73C356.411 91.4714 356.854 91.3862 357.058 91.2159C357.28 91.0285 357.552 90.6537 357.876 90.0916L361.913 83.0904C362.373 82.2557 362.867 81.6254 363.395 81.1995C363.94 80.7737 364.809 80.5607 366.002 80.5607C366.274 80.5607 366.691 80.5778 367.254 80.6118C367.833 80.6289 368.429 80.6629 369.042 80.714C369.672 80.7651 370.201 80.8162 370.626 80.8673L371.061 81.3528L365.695 90.3216C364.86 91.7695 363.94 92.8853 362.935 93.6689C364.247 94.0095 365.226 94.5802 365.874 95.3808C366.521 96.1644 367.092 97.1354 367.586 98.2937L369.477 102.919C369.988 104.145 370.422 105.048 370.78 105.627C371.137 106.206 371.563 106.7 372.057 107.109C371.546 107.774 370.822 108.327 369.885 108.77C368.949 109.196 367.986 109.4 366.998 109.383C365.686 109.366 364.724 109.051 364.111 108.438C363.514 107.825 362.986 106.973 362.526 105.883L360.303 100.389C359.895 99.401 359.452 98.7026 358.975 98.2937C358.515 97.8679 357.859 97.6379 357.007 97.6038C356.786 97.5868 356.513 97.5868 356.19 97.6038C355.866 97.6209 355.517 97.6379 355.142 97.6549V109C354.495 109.119 353.83 109.196 353.149 109.23C352.468 109.264 351.871 109.281 351.36 109.281C350.9 109.281 350.279 109.264 349.495 109.23C348.728 109.196 348.039 109.119 347.425 109V80.8673ZM373.936 106.854C373.936 106.223 374.055 105.533 374.294 104.784C374.549 104.034 374.89 103.336 375.316 102.689C375.742 102.024 376.21 101.53 376.721 101.207C377.965 101.888 379.353 102.476 380.886 102.97C382.436 103.464 383.97 103.711 385.486 103.711C386.508 103.711 387.351 103.498 388.015 103.072C388.697 102.646 389.037 102.041 389.037 101.258C389.037 100.747 388.841 100.287 388.45 99.878C388.058 99.4521 387.385 99.0688 386.431 98.7281L382.138 97.0673C380.81 96.5733 379.583 95.977 378.459 95.2786C377.352 94.5632 376.449 93.6944 375.75 92.6723C375.069 91.6502 374.728 90.4323 374.728 89.0184C374.728 86.4121 375.733 84.2828 377.743 82.6304C379.754 80.9781 382.479 80.1434 385.92 80.1263C387.845 80.1263 389.761 80.3563 391.669 80.8162C393.577 81.2591 395.178 81.7702 396.473 82.3494C396.473 83.4396 396.243 84.5298 395.783 85.62C395.323 86.6932 394.701 87.5279 393.918 88.1241C392.657 87.5619 391.286 87.0935 389.804 86.7187C388.339 86.344 387.01 86.1651 385.818 86.1821C384.864 86.1821 384.123 86.3866 383.595 86.7954C383.084 87.2042 382.828 87.6982 382.828 88.2774C382.828 88.8225 383.067 89.2399 383.544 89.5294C384.038 89.802 384.659 90.0745 385.409 90.3471L389.676 91.9824C391.993 92.8171 393.841 93.9755 395.221 95.4575C396.601 96.9225 397.291 98.7281 397.291 100.874C397.291 102.765 396.78 104.375 395.758 105.704C394.752 107.015 393.373 108.021 391.618 108.719C389.864 109.4 387.871 109.741 385.639 109.741C382.999 109.741 380.656 109.434 378.612 108.821C376.585 108.208 375.026 107.552 373.936 106.854Z"/>
</svg>