<svg width="225" height="212" viewBox="0 0 225 212" fill="none"
  xmlns="http://www.w3.org/2000/svg">
  <path d="M56.7549 186.709C56.7549 190.148 55.7233 192.848 53.6601 194.811C51.5969 196.757 48.5692 197.73 44.577 197.73C40.5847 197.73 37.5486 196.757 35.4686 194.811C33.4054 192.848 32.3738 190.148 32.3738 186.709V169.323L32.6758 169.021H35.4435C36.9028 169.021 38.0183 169.39 38.7899 170.128C39.5783 170.866 39.9725 172.107 39.9725 173.852V186.659C39.9725 188.252 40.3163 189.502 41.0041 190.408C41.7086 191.314 42.8996 191.766 44.577 191.766C46.2879 191.766 47.4789 191.314 48.1498 190.408C48.8208 189.502 49.1563 188.252 49.1563 186.659V169.298C49.7937 169.18 50.4479 169.105 51.1189 169.071C51.7898 169.038 52.3685 169.021 52.855 169.021C53.3246 169.021 53.9369 169.046 54.6917 169.096C55.4633 169.13 56.1511 169.214 56.7549 169.348V186.709ZM85.152 190.508C85.152 192.957 84.7578 194.677 83.9695 195.666C83.1811 196.639 81.8391 197.126 79.9437 197.126H68.3192C66.9605 197.126 65.8786 196.732 65.0734 195.943C64.2683 195.138 63.8657 194.031 63.8657 192.622V162.655L64.218 162.303H67.036C68.5289 162.303 69.6528 162.689 70.4076 163.46C71.1792 164.232 71.565 165.473 71.565 167.184V190.685C73.1921 190.567 74.7521 190.508 76.245 190.508H85.152ZM101.958 169.348C102.528 169.214 103.099 169.13 103.669 169.096C104.256 169.046 104.793 169.021 105.279 169.021C105.934 169.021 106.563 169.063 107.166 169.147C107.787 169.214 108.332 169.323 108.802 169.474L109.129 169.851L100.574 189.125V197C99.9704 197.117 99.3413 197.193 98.6871 197.226C98.0329 197.26 97.4542 197.277 96.951 197.277C96.4981 197.277 95.9026 197.26 95.1646 197.226C94.4265 197.193 93.7556 197.117 93.1517 197V188.923L84.6472 169.977C85.3517 169.641 86.115 169.373 86.9369 169.172C87.7588 168.971 88.5053 168.87 89.1762 168.87C90.2162 168.87 91.0633 169.088 91.7175 169.524C92.3717 169.943 92.9001 170.681 93.3027 171.738L95.2149 176.619C95.651 177.794 96.0033 178.792 96.2717 179.614C96.5401 180.419 96.7749 181.325 96.9762 182.331H97.2781C97.9155 180.016 98.6116 177.878 99.3665 175.915L101.958 169.348ZM122.835 183.941C122.65 183.572 122.373 182.968 122.004 182.13C121.635 181.274 121.266 180.419 120.897 179.563C120.528 178.708 120.26 178.087 120.092 177.701L119.891 177.777C119.958 179.069 120.025 180.461 120.092 181.954C120.159 183.447 120.21 184.822 120.243 186.08C120.293 187.321 120.319 188.227 120.319 188.797V197C119.698 197.117 119.094 197.193 118.507 197.226C117.92 197.26 117.383 197.277 116.897 197.277C116.427 197.277 115.865 197.26 115.211 197.226C114.557 197.193 113.928 197.117 113.324 197V169.474C113.928 169.34 114.666 169.231 115.538 169.147C116.41 169.063 117.098 169.021 117.601 169.021C118.104 169.021 118.801 169.038 119.69 169.071C120.595 169.088 121.35 169.163 121.954 169.298L128.27 182.331C128.42 182.583 128.63 183.01 128.899 183.614C129.167 184.218 129.46 184.881 129.779 185.602C130.098 186.323 130.391 187.003 130.66 187.64C130.945 188.261 131.155 188.722 131.289 189.024L131.515 188.974C131.448 187.883 131.356 186.625 131.239 185.199C131.138 183.757 131.046 182.365 130.962 181.023C130.895 179.664 130.861 178.574 130.861 177.752V173.147C130.861 171.453 131.222 170.338 131.943 169.801C132.664 169.247 133.755 168.971 135.214 168.971H137.73L138.007 169.323V196.874C137.386 197.008 136.64 197.109 135.768 197.176C134.895 197.243 134.216 197.277 133.729 197.277C133.243 197.277 132.522 197.26 131.566 197.226C130.61 197.21 129.838 197.134 129.251 197L122.835 183.941ZM145.414 169.298C146.018 169.18 146.697 169.105 147.452 169.071C148.224 169.038 148.836 169.021 149.289 169.021C149.792 169.021 150.379 169.038 151.05 169.071C151.721 169.105 152.375 169.18 153.013 169.298V179.739H153.591C154.262 179.739 154.699 179.656 154.9 179.488C155.118 179.303 155.386 178.934 155.705 178.381L159.68 171.487C160.133 170.665 160.62 170.044 161.14 169.625C161.677 169.205 162.532 168.996 163.706 168.996C163.975 168.996 164.386 169.012 164.939 169.046C165.509 169.063 166.097 169.096 166.7 169.147C167.321 169.197 167.841 169.247 168.26 169.298L168.688 169.776L163.404 178.607C162.582 180.033 161.677 181.132 160.687 181.903C161.978 182.239 162.943 182.801 163.58 183.589C164.218 184.361 164.78 185.317 165.266 186.457L167.128 191.012C167.631 192.219 168.059 193.108 168.411 193.679C168.764 194.249 169.183 194.735 169.669 195.138C169.166 195.792 168.453 196.337 167.531 196.774C166.608 197.193 165.66 197.394 164.687 197.377C163.396 197.361 162.448 197.05 161.844 196.446C161.257 195.843 160.737 195.004 160.284 193.93L158.095 188.521C157.693 187.548 157.257 186.86 156.787 186.457C156.334 186.038 155.688 185.812 154.849 185.778C154.631 185.761 154.363 185.761 154.044 185.778C153.726 185.795 153.382 185.812 153.013 185.828V197C152.375 197.117 151.721 197.193 151.05 197.226C150.379 197.26 149.792 197.277 149.289 197.277C148.836 197.277 148.224 197.26 147.452 197.226C146.697 197.193 146.018 197.117 145.414 197V169.298ZM171.52 194.886C171.52 194.266 171.637 193.586 171.872 192.848C172.123 192.11 172.459 191.423 172.878 190.785C173.298 190.131 173.759 189.645 174.262 189.326C175.487 189.997 176.854 190.576 178.363 191.062C179.89 191.548 181.399 191.792 182.892 191.792C183.899 191.792 184.729 191.582 185.383 191.163C186.054 190.743 186.39 190.148 186.39 189.376C186.39 188.873 186.197 188.42 185.811 188.017C185.425 187.598 184.763 187.221 183.823 186.885L179.596 185.25C178.288 184.763 177.08 184.176 175.973 183.488C174.883 182.784 173.994 181.928 173.306 180.922C172.635 179.916 172.3 178.716 172.3 177.324C172.3 174.758 173.289 172.661 175.269 171.034C177.248 169.407 179.932 168.585 183.32 168.568C185.216 168.568 187.103 168.794 188.981 169.247C190.86 169.683 192.437 170.187 193.712 170.757C193.712 171.83 193.485 172.904 193.032 173.978C192.579 175.034 191.967 175.856 191.196 176.443C189.954 175.89 188.604 175.429 187.145 175.06C185.702 174.69 184.394 174.514 183.219 174.531C182.28 174.531 181.55 174.732 181.03 175.135C180.527 175.538 180.276 176.024 180.276 176.594C180.276 177.131 180.51 177.542 180.98 177.827C181.467 178.096 182.079 178.364 182.817 178.632L187.019 180.243C189.3 181.065 191.12 182.205 192.479 183.665C193.837 185.107 194.517 186.885 194.517 188.999C194.517 190.861 194.014 192.446 193.007 193.754C192.017 195.046 190.659 196.035 188.931 196.723C187.203 197.394 185.241 197.73 183.043 197.73C180.443 197.73 178.137 197.428 176.124 196.824C174.128 196.22 172.593 195.574 171.52 194.886Z" fill="#E07E3C"/>
  <path fill-rule="evenodd" clip-rule="evenodd" d="M153.551 85.973C153.551 89.0805 151.018 91.5995 147.894 91.5995C146.592 91.5995 145.393 91.1619 144.437 90.4265C144.33 90.5168 144.224 90.6078 144.117 90.6989C143.613 91.1301 143.109 91.5616 142.548 91.9257C140.531 93.199 139.51 92.8777 138.462 90.7809C138.122 90.099 137.977 89.3913 137.899 88.6453C137.12 89.3456 137.461 90.318 137.854 91.4393C137.93 91.6567 138.008 91.8797 138.081 92.1075C138.265 92.6983 138.348 93.2325 138.424 93.7187C138.591 94.7886 138.721 95.6263 139.811 96.3252C143.281 98.5633 147.276 98.9751 151.061 97.4572C156.365 95.3346 159.928 90.009 159.246 83.8599C159.168 83.1268 158.788 82.7792 158.094 82.4962C156.96 82.0307 155.807 82.1028 154.657 82.1748C154.186 82.2042 153.716 82.2336 153.248 82.2261C153.041 82.2228 152.812 82.1952 152.579 82.1671C152.387 82.1441 152.193 82.1207 152.007 82.1104C152.964 83.1181 153.551 84.4774 153.551 85.973Z" fill="#EBB189"/>
  <path fill-rule="evenodd" clip-rule="evenodd" d="M73.0267 83.1525C72.5427 83.9817 72.2656 84.9453 72.2656 85.9732C72.2656 88.3288 73.7209 90.3463 75.7859 91.1846C75.7736 91.2021 75.7614 91.2195 75.7491 91.2369C75.1841 92.0406 74.6194 92.844 74.0049 93.5071C71.801 95.8398 67.9613 92.8916 66.8166 89.051C66.4446 87.8023 66.287 86.5061 66.2011 85.14C66.8166 82.9248 68.4909 80.6158 71.1956 78.354C71.1784 79.9189 72.0151 81.5339 73.0267 83.1525Z" fill="#FEFEFE"/>
  <path fill-rule="evenodd" clip-rule="evenodd" d="M82.2016 89.6524C81.1644 90.845 79.6318 91.5996 77.922 91.5996C76.5129 91.5996 75.2241 91.0871 74.2338 90.2392C74.3533 90.667 74.348 91.2585 73.8938 92.1226C71.6371 93.4751 71.1611 93.2846 69.1231 91.5996C67.5997 89.9504 66.2815 88.2654 67.2377 83.0557C64.3047 90.3492 68.5387 96.6513 73.5482 98.0875C78.4097 99.4741 82.753 98.9711 86.467 95.3381C88.2314 93.6076 88.7195 92.166 87.1399 90.3492C86.8441 90.0116 86.5287 89.6424 86.2053 89.2639C85.6119 88.5691 84.9917 87.8431 84.4164 87.2234C83.6567 88.2326 82.9192 89.0351 82.2016 89.6524Z" fill="#EBB189"/>
  <path fill-rule="evenodd" clip-rule="evenodd" d="M142.349 84.855C142.276 85.2164 142.238 85.5903 142.238 85.9732C142.238 87.9465 143.259 89.6825 144.804 90.6869C144.761 90.7231 144.718 90.7593 144.674 90.7956C144.109 91.2685 143.544 91.7412 142.929 92.1314C140.726 93.5039 139.609 93.1571 138.465 90.8982C138.093 90.1634 137.935 89.4011 137.849 88.5971C138.426 87.3756 139.934 86.1053 142.349 84.855Z" fill="#FEFEFE"/>
  <path fill-rule="evenodd" clip-rule="evenodd" d="M73.6732 82.2587C72.797 83.2497 72.2656 84.5497 72.2656 85.9731C72.2656 86.0954 72.2695 86.2167 72.2772 86.3371C72.0868 85.9274 71.9932 85.4765 71.9472 84.9948C71.8782 84.3449 71.7483 83.7006 71.618 83.0545C71.552 82.7274 71.486 82.3998 71.4277 82.0707C72.0525 81.9413 72.6343 82.0569 73.2146 82.1722C73.3673 82.2026 73.5199 82.2329 73.6732 82.2587Z" fill="#EBB189"/>
  <path fill-rule="evenodd" clip-rule="evenodd" d="M126.525 97.7713C127.697 94.8993 128.907 92.1131 130.474 89.4987C133.854 83.8651 138.432 79.6432 144.91 77.839C149.068 76.6728 153.3 76.7712 157.57 77.2005C166.244 78.0844 174.276 81.0298 182.124 84.5649C182.275 84.6341 182.447 84.6974 182.623 84.762C183.227 84.9833 183.879 85.2221 183.889 85.7923C183.889 86.3558 183.247 86.6809 182.655 86.9805C182.499 87.0593 182.346 87.1368 182.211 87.216C181.93 87.3827 181.651 87.5532 181.371 87.7241C180.335 88.3576 179.296 88.9927 178.188 89.4374C176.609 90.0755 175.807 91.1558 175.572 92.7391C175.029 96.4334 173.03 99.4896 170.995 102.46C165.849 109.947 158.816 114.782 149.759 116.39C143.997 117.421 138.309 116.992 132.867 114.672L132.759 114.625C131.651 114.151 131.099 113.915 130.756 114.088C130.414 114.261 130.28 114.84 130.013 115.996L129.967 116.194C128.795 121.25 126.661 125.792 122.725 129.376C119.307 132.481 115.914 135.598 112.582 138.777C111.718 139.612 111.138 139.452 110.398 138.777C109.787 138.216 109.17 137.658 108.553 137.101L108.552 137.1C107.685 136.318 106.818 135.535 105.968 134.739C105.378 134.179 104.782 133.624 104.186 133.068C102.354 131.361 100.522 129.654 98.8366 127.792C95.4557 124.061 93.7282 119.68 93.3456 114.733C93.284 113.923 93.062 113.776 92.3091 114.107C90.0758 115.077 87.7806 115.862 85.3625 116.304C77.1938 117.789 69.5685 116.525 62.5353 112.021C54.8606 107.099 50.0116 100.115 47.4327 91.4992C47.198 90.7015 46.766 90.2351 46.0382 89.8425C45.5673 89.5858 45.093 89.3328 44.6174 89.0798L44.6162 89.079L44.6149 89.0782C42.7504 88.0846 40.8653 87.0801 39.0668 85.7798C40.5968 84.8225 42.0528 84.0739 43.5704 83.4846C49.3822 81.2019 55.2306 79.0172 61.3755 77.8019C66.5824 76.7833 71.8391 76.3294 77.0828 77.5076C84.6838 79.2135 90.0142 83.853 93.6046 90.579C93.7395 90.8303 93.8752 91.0816 94.011 91.3329C95.0945 93.3384 96.1839 95.354 96.7759 97.6117C97.1488 96.3434 97.1128 95.0752 97.0772 93.8211C97.0705 93.5827 97.0634 93.3443 97.0596 93.1071C96.887 84.577 93.654 77.6547 86.1892 73.0398C82.8083 70.9534 79.0571 69.9469 75.1211 69.6647C68.1247 69.1492 61.3261 70.4378 54.5396 71.8616C53.6472 72.0499 52.7593 72.2637 51.8715 72.4771C49.9244 72.9456 47.9765 73.4145 45.9766 73.6166C43.5951 73.85 41.9912 72.5859 41.8183 70.2049C41.7166 68.8333 41.7396 67.4554 41.7628 66.0754C41.7705 65.6149 41.7782 65.1544 41.7813 64.6938C41.9166 63.0626 42.0494 61.4709 42.1797 59.9076C42.9725 50.3963 43.6768 41.9458 44.3233 32.1689C44.3233 31.2115 41.4852 28.3656 40.6832 28.0342C38.9331 27.2954 37.1928 26.8596 35.4473 26.4225C33.7714 26.0028 32.0908 25.582 30.3925 24.8906C29.3807 24.4856 29.0599 24.1419 29.5658 23.0619L29.6455 22.8887C30.1044 21.8902 30.3368 21.3846 30.7108 21.2389C31.0946 21.0894 31.6276 21.3187 32.7072 21.7833L32.7122 21.7854C32.9944 21.9063 33.2767 22.0309 33.5593 22.1556C34.1663 22.4236 34.7752 22.6924 35.3898 22.9269C35.5043 22.9711 35.6294 23.0431 35.7578 23.117C36.1276 23.3298 36.5244 23.5582 36.7717 23.1846C37.0638 22.7489 36.6809 22.4743 36.3219 22.2168C36.1955 22.1262 36.072 22.0377 35.982 21.945C35.0072 20.8895 34.0078 19.8585 32.9343 18.9011C32.2434 18.2997 32.3544 17.9438 32.9467 17.3547L33.0182 17.283C34.8234 15.4749 34.8824 15.4159 36.6607 17.3301C37.543 18.2708 38.3564 19.1499 39.1299 19.9859C42.5753 23.7095 45.2292 26.5776 49.6525 30.216C53.3359 33.2476 57.7072 36.5373 62.0782 39.8269C66.4496 43.1165 70.8209 46.4061 74.5043 49.4377C76.1287 50.7723 77.759 52.101 79.3894 53.43C84.9419 57.9558 90.4969 62.4841 95.8382 67.2466C102.008 72.733 105.833 79.7044 106.61 88.0258C107.325 95.7337 107.301 103.429 105.574 111.039C104.821 114.365 103.649 117.569 101.971 120.821H104.241C105.965 120.821 107.69 120.819 109.414 120.818H109.436C112.898 120.816 116.358 120.813 119.813 120.821C120.639 120.821 121.133 120.796 120.615 119.753C117.283 113.039 116.592 105.786 116.395 98.446C116.247 92.9108 116.469 87.4244 118.06 82.0609C119.813 76.1452 121.492 72.8947 126.106 68.967C133.779 62.4203 143.062 54.7396 151.103 48.0857C151.881 47.4418 152.647 46.8079 153.399 46.1852C156.044 43.9984 158.684 41.8053 161.324 39.6126L161.326 39.6108C166.924 34.9611 172.521 30.312 178.163 25.7252C180.996 23.4291 183.551 20.8557 186.107 18.28C187.158 17.221 188.209 16.1615 189.281 15.1209C189.996 14.4213 190.366 14.3967 191.07 15.1209L191.178 15.2328C191.998 16.0827 192.409 16.5086 192.406 16.9309C192.402 17.3552 191.979 17.7757 191.131 18.6188C190.07 19.6744 189 20.7203 187.807 21.8849L187.343 22.3377C188.341 22.3377 189.091 21.9744 189.805 21.6284C190.125 21.4736 190.437 21.3223 190.761 21.2086C191.115 21.0858 191.458 20.9303 191.801 20.7749C191.972 20.6972 192.143 20.6194 192.316 20.5458L192.338 20.5362C193.399 20.077 193.929 19.848 194.31 19.9958C194.69 20.1429 194.924 20.6629 195.39 21.7001L195.45 21.8345C195.919 22.8778 195.66 23.246 194.636 23.6633C192.325 24.6044 190.037 25.5889 187.749 26.573C186.189 27.2444 184.628 27.9157 183.062 28.5727C182.087 28.9777 181.717 29.5055 181.717 30.6101C181.754 43.2857 181.742 55.9611 181.729 68.649V68.6582C181.729 68.8066 181.731 68.9558 181.733 69.1054C181.748 70.2324 181.764 71.3827 180.915 72.3033C179.483 73.8621 177.633 73.8867 175.782 73.4449C170.513 72.1808 165.207 71.0147 159.865 70.1924C153.017 69.1371 146.144 68.9775 139.616 71.8861C133.645 74.5373 129.708 79.0785 127.648 85.2522C126.29 89.3145 126.167 93.5122 126.525 97.7713ZM74.06 82.9866C73.8077 82.9628 73.4124 83.0278 73.1476 82.9866C72.7261 82.9211 72.2903 82.8532 71.8466 82.8469C71.5856 82.8432 71.3363 82.8374 71.0916 82.8315C70.5264 82.8178 69.9863 82.8048 69.3833 82.8219L69.2078 82.8273C68.1854 82.8578 67.774 82.8703 67.544 83.0795C67.3894 83.2208 67.3169 83.4508 67.1958 83.836C67.1099 84.1081 66.9997 84.4578 66.8187 84.9083C65.5357 89.0569 68.5814 96.323 73.5787 97.7467C78.4525 99.1337 82.7836 98.6303 86.4976 94.9972C88.262 93.2668 88.3114 92.2482 86.7318 90.4314C86.1377 89.7538 85.5188 89.0944 84.8928 88.4272L84.8912 88.4255L84.8908 88.4247L84.8853 88.4192C84.6297 88.1467 84.3729 87.8733 84.116 87.5965C82.34 85.5749 80.04 84.1949 78.2 83.7349C77.2021 83.4855 75.3645 82.9866 74.06 82.9866ZM133.632 94.7271C132.468 96.4101 131.833 98.2122 131.204 99.9994C131.053 100.428 130.903 100.856 130.745 101.281C130.696 101.416 130.642 101.556 130.587 101.698C130.295 102.452 129.972 103.287 130.189 103.896C130.382 104.453 131.001 104.499 131.644 104.546C131.992 104.572 132.346 104.598 132.645 104.706C135.927 105.884 139.259 106.768 142.787 106.903C148.772 107.136 154.102 105.7 158.631 101.601C162.913 97.7221 165.183 92.825 166.478 87.351C166.651 86.6392 166.367 86.3074 165.75 86.0745C165.367 85.929 164.98 85.7869 164.593 85.6443L164.592 85.6439L164.591 85.6435L164.59 85.6431C163.51 85.2459 162.426 84.8471 161.382 84.3686C160.087 83.7672 159.976 84.2823 160.013 85.4118C160.136 88.9098 159.396 92.1377 157.286 95.0589C152.572 101.551 143.565 103.122 137.149 98.4585C136.303 97.8346 135.641 97.0407 134.97 96.2346C134.545 95.7241 134.115 95.2081 133.632 94.7271ZM81.0808 106.854C83.2789 107.045 85.5854 106.381 87.9733 105.692C89.097 105.368 90.2392 105.039 91.3961 104.791C93.6666 104.301 93.6046 104.117 92.7532 101.919C92.4142 101.055 92.0907 100.184 91.7669 99.3133L91.7665 99.3121C91.4426 98.4406 91.1183 97.5687 90.7793 96.7035C90.0758 94.9239 89.9153 94.9114 88.6692 96.3842C83.3635 102.656 72.9125 102.68 67.4338 96.5314C64.5343 93.2668 63.0783 89.5725 63.3251 85.2155C63.3264 85.188 63.3276 85.16 63.3289 85.1325C63.3549 84.6178 63.3808 84.0981 62.5848 84.3194C60.7956 84.835 59.0065 85.3747 57.2421 85.9515C56.8596 86.0745 56.7607 86.3078 56.8596 86.8722C57.6 90.7386 58.9571 94.2854 61.3014 97.5012C66.0519 104.055 72.357 107.295 81.0808 106.854ZM153.411 59.8459C155.207 59.9701 156.804 60.0739 158.375 60.1756L158.779 60.2018C162.035 60.4156 165.217 61.0671 168.396 61.7181C168.868 61.8143 169.339 61.911 169.81 62.006C169.945 62.0336 170.071 62.0602 170.189 62.0848C170.921 62.2386 171.304 62.319 171.504 62.1648C171.722 61.996 171.722 61.5472 171.722 60.6073V60.5698C171.722 55.7219 171.71 50.874 171.698 46.0256C171.698 45.9598 171.707 45.8889 171.717 45.8172C171.748 45.5826 171.781 45.3379 171.488 45.2158C171.209 45.1029 171 45.2817 170.801 45.4509C170.763 45.4842 170.724 45.5171 170.686 45.5471L170.685 45.5476C168.896 46.9959 167.107 48.4437 165.331 49.9041C161.432 53.1566 157.533 56.4092 153.411 59.8459ZM139.195 87.6695C139.099 87.7566 139 87.8466 138.897 87.9395L138.863 87.9699C138.817 88.0112 138.77 88.0521 138.725 88.0921L138.723 88.0946C137.912 88.8148 137.249 89.4037 137.64 90.6486C138.195 92.4528 139.08 94.8889 140.573 95.8583C143.83 97.9817 147.437 98.5611 151.003 97.1128C156.013 95.0756 159.357 90.0063 158.715 84.1398C158.641 83.44 158.283 83.1087 157.629 82.8386C156.559 82.4027 155.471 82.4685 154.385 82.5344C153.944 82.5615 153.503 82.5881 153.064 82.581C152.868 82.5777 152.653 82.5514 152.433 82.5248C150.42 82.3549 145.36 83.2749 142.909 85.1584C142.215 85.6912 140.114 86.8355 139.195 87.6695ZM67.0885 55.0646C68.7712 56.4671 70.4761 57.8883 72.2208 59.3378C70.2712 59.4608 68.5558 59.5833 66.8409 59.7059C63.6234 59.9067 60.4793 60.5528 57.3373 61.1983C56.8282 61.3029 56.3191 61.4076 55.81 61.5101C54.8254 61.711 54.3477 61.8477 54.116 61.6689C53.8944 61.4984 53.8973 61.0395 53.8973 60.0743C53.8973 55.228 53.9099 50.3817 53.922 45.5359V45.5301C53.922 45.4617 53.9137 45.39 53.9049 45.3183C53.8764 45.0812 53.8475 44.8424 54.132 44.7198C54.4148 44.5994 54.6151 44.7753 54.8074 44.9441C54.8497 44.9812 54.8916 45.0183 54.9339 45.0516C55.3056 45.3521 55.6772 45.6526 56.0489 45.9527C57.4659 47.098 58.8813 48.2416 60.2891 49.4086C62.5445 51.277 64.7962 53.1537 67.0885 55.0646Z" fill="#E07E3C"/>
</svg>
